{"glyphs":{"0":{"ha":1183,"x_min":0,"x_max":974,"o":"m 168 974 l 179 974 q 184 968 184 973 l 184 795 q 179 789 184 789 l 5 789 q 0 795 0 789 l 0 806 q 100 955 0 892 q 168 974 139 974 m 201 974 l 377 974 q 382 968 382 973 l 382 795 q 377 789 382 789 l 201 789 q 195 795 195 789 l 195 968 q 201 974 196 974 m 399 974 l 575 974 q 581 968 581 973 l 581 795 q 575 789 581 789 l 399 789 q 393 795 393 789 l 393 968 q 399 974 394 974 m 597 974 l 770 974 q 776 968 776 973 l 776 795 q 770 789 776 789 l 597 789 q 591 795 591 789 l 591 968 q 597 974 592 974 m 795 974 l 806 974 q 955 873 892 974 q 974 806 974 835 l 974 795 q 968 789 974 789 l 795 789 q 789 795 789 789 l 789 968 q 795 974 790 974 m 5 779 l 179 779 q 184 773 184 778 l 184 597 q 179 591 184 591 l 5 591 q 0 597 0 591 l 0 773 q 5 779 1 779 m 795 779 l 968 779 q 974 773 974 778 l 974 597 q 968 591 974 591 l 795 591 q 789 597 789 591 l 789 773 q 795 779 790 779 m 5 581 l 179 581 q 184 575 184 580 l 184 399 q 179 393 184 393 l 5 393 q 0 399 0 393 l 0 575 q 5 581 1 581 m 795 581 l 968 581 q 974 575 974 580 l 974 399 q 968 393 974 393 l 795 393 q 789 399 789 393 l 789 575 q 795 581 790 581 m 5 382 l 179 382 q 184 377 184 382 l 184 201 q 179 195 184 195 l 5 195 q 0 201 0 195 l 0 377 q 5 382 1 382 m 795 382 l 968 382 q 974 377 974 382 l 974 201 q 968 195 974 195 l 795 195 q 789 201 789 195 l 789 377 q 795 382 790 382 m 5 184 l 179 184 q 184 179 184 184 l 184 5 q 179 0 184 0 l 168 0 q 19 100 81 0 q 0 168 0 139 l 0 179 q 5 184 1 184 m 201 184 l 377 184 q 382 179 382 184 l 382 5 q 377 0 382 0 l 201 0 q 195 5 195 0 l 195 179 q 201 184 196 184 m 399 184 l 575 184 q 581 179 581 184 l 581 5 q 575 0 581 0 l 399 0 q 393 5 393 0 l 393 179 q 399 184 394 184 m 597 184 l 770 184 q 776 179 776 184 l 776 5 q 770 0 776 0 l 597 0 q 591 5 591 0 l 591 179 q 597 184 592 184 m 795 184 l 968 184 q 974 179 974 184 l 974 168 q 873 19 974 81 q 806 0 835 0 l 795 0 q 789 5 789 0 l 789 179 q 795 184 790 184 z "},"1":{"ha":1183,"x_min":591,"x_max":977,"o":"m 597 974 l 770 974 q 776 968 776 973 l 776 795 q 770 789 776 789 l 597 789 q 591 795 591 789 l 591 968 q 597 974 592 974 m 795 974 l 971 974 q 977 968 977 973 l 977 795 q 971 789 977 789 l 795 789 q 789 795 789 789 l 789 968 q 795 974 790 974 m 795 779 l 971 779 q 977 773 977 778 l 977 597 q 971 591 977 591 l 795 591 q 789 597 789 591 l 789 773 q 795 779 790 779 m 795 581 l 971 581 q 977 575 977 580 l 977 399 q 971 393 977 393 l 795 393 q 789 399 789 393 l 789 575 q 795 581 790 581 m 795 382 l 971 382 q 977 377 977 382 l 977 201 q 971 195 977 195 l 795 195 q 789 201 789 195 l 789 377 q 795 382 790 382 m 795 184 l 971 184 q 977 179 977 184 l 977 5 q 971 0 977 0 l 795 0 q 789 5 789 0 l 789 179 q 795 184 790 184 z "},"2":{"ha":1183,"x_min":0,"x_max":974,"o":"m 168 974 l 179 974 q 184 968 184 973 l 184 795 q 179 789 184 789 l 5 789 q 0 795 0 789 l 0 806 q 100 955 0 892 q 168 974 139 974 m 201 974 l 377 974 q 382 968 382 973 l 382 795 q 377 789 382 789 l 201 789 q 195 795 195 789 l 195 968 q 201 974 196 974 m 399 974 l 575 974 q 581 968 581 973 l 581 795 q 575 789 581 789 l 399 789 q 393 795 393 789 l 393 968 q 399 974 394 974 m 597 974 l 770 974 q 776 968 776 973 l 776 795 q 770 789 776 789 l 597 789 q 591 795 591 789 l 591 968 q 597 974 592 974 m 795 974 l 806 974 q 955 873 892 974 q 974 806 974 835 l 974 795 q 968 789 974 789 l 795 789 q 789 795 789 789 l 789 968 q 795 974 790 974 m 5 779 l 179 779 q 184 773 184 778 l 184 689 q 179 684 184 684 l 5 684 q 0 689 0 684 l 0 773 q 5 779 1 779 m 795 779 l 968 779 q 974 773 974 778 l 974 597 q 968 591 974 591 l 795 591 q 789 597 789 591 l 789 773 q 795 779 790 779 m 182 581 l 184 575 l 184 399 q 179 393 184 393 l 5 393 q 0 399 0 393 l 0 407 q 117 567 0 509 q 182 581 151 581 m 201 581 l 377 581 q 382 575 382 580 l 382 399 q 377 393 382 393 l 201 393 q 195 399 195 393 l 195 575 q 201 581 196 581 m 399 581 l 575 581 q 581 575 581 580 l 581 399 q 575 393 581 393 l 399 393 q 393 399 393 393 l 393 575 q 399 581 394 581 m 597 581 l 770 581 q 776 575 776 580 l 776 399 q 770 393 776 393 l 597 393 q 591 399 591 393 l 591 575 q 597 581 592 581 m 795 581 l 968 581 q 974 575 974 580 l 974 567 q 857 407 974 465 q 792 393 823 393 l 789 399 l 789 575 q 795 581 790 581 m 5 382 l 179 382 q 184 377 184 382 l 184 201 q 179 195 184 195 l 5 195 q 0 201 0 195 l 0 377 q 5 382 1 382 m 795 290 l 968 290 q 974 285 974 290 l 974 201 q 968 195 974 195 l 795 195 q 789 201 789 195 l 789 285 q 795 290 790 290 m 5 184 l 179 184 q 184 179 184 184 l 184 5 q 179 0 184 0 l 5 0 q 0 5 0 0 l 0 179 q 5 184 1 184 m 201 184 l 377 184 q 382 179 382 184 l 382 5 q 377 0 382 0 l 201 0 q 195 5 195 0 l 195 179 q 201 184 196 184 m 399 184 l 575 184 q 581 179 581 184 l 581 5 q 575 0 581 0 l 399 0 q 393 5 393 0 l 393 179 q 399 184 394 184 m 597 184 l 770 184 q 776 179 776 184 l 776 5 q 770 0 776 0 l 597 0 q 591 5 591 0 l 591 179 q 597 184 592 184 m 795 184 l 968 184 q 974 179 974 184 l 974 5 q 968 0 974 0 l 795 0 q 789 5 789 0 l 789 179 q 795 184 790 184 z "},"3":{"ha":1183,"x_min":0,"x_max":974,"o":"m 168 974 l 179 974 q 184 968 184 973 l 184 795 q 179 789 184 789 l 5 789 q 0 795 0 789 l 0 806 q 100 955 0 892 q 168 974 139 974 m 201 974 l 377 974 q 382 968 382 973 l 382 795 q 377 789 382 789 l 201 789 q 195 795 195 789 l 195 968 q 201 974 196 974 m 399 974 l 575 974 q 581 968 581 973 l 581 795 q 575 789 581 789 l 399 789 q 393 795 393 789 l 393 968 q 399 974 394 974 m 597 974 l 770 974 q 776 968 776 973 l 776 795 q 770 789 776 789 l 597 789 q 591 795 591 789 l 591 968 q 597 974 592 974 m 795 974 l 806 974 q 955 873 892 974 q 974 806 974 835 l 974 795 q 968 789 974 789 l 795 789 q 789 795 789 789 l 789 968 q 795 974 790 974 m 5 779 l 179 779 q 184 773 184 778 l 184 689 q 179 684 184 684 l 5 684 q 0 689 0 684 l 0 773 q 5 779 1 779 m 795 779 l 968 779 q 974 773 974 778 l 974 597 q 968 591 974 591 l 795 591 q 789 597 789 591 l 789 773 q 795 779 790 779 m 201 581 l 377 581 q 382 575 382 580 l 382 399 q 377 393 382 393 l 201 393 q 195 399 195 393 l 195 575 q 201 581 196 581 m 399 581 l 575 581 q 581 575 581 580 l 581 399 q 575 393 581 393 l 399 393 q 393 399 393 393 l 393 575 q 399 581 394 581 m 597 581 l 770 581 q 776 575 776 580 l 776 399 q 770 393 776 393 l 597 393 q 591 399 591 393 l 591 575 q 597 581 592 581 m 795 581 l 968 581 q 974 572 974 581 q 917 486 960 530 q 974 396 960 451 l 968 393 l 795 393 q 789 399 789 393 l 789 575 q 795 581 790 581 m 795 382 l 968 382 q 974 377 974 382 l 974 201 q 968 195 974 195 l 795 195 q 789 201 789 195 l 789 377 q 795 382 790 382 m 5 290 l 179 290 q 184 285 184 290 l 184 201 q 179 195 184 195 l 5 195 q 0 201 0 195 l 0 285 q 5 290 1 290 m 5 184 l 179 184 q 184 179 184 184 l 184 5 q 179 0 184 0 l 168 0 q 19 100 81 0 q 0 168 0 139 l 0 179 q 5 184 1 184 m 201 184 l 377 184 q 382 179 382 184 l 382 5 q 377 0 382 0 l 201 0 q 195 5 195 0 l 195 179 q 201 184 196 184 m 399 184 l 575 184 q 581 179 581 184 l 581 5 q 575 0 581 0 l 399 0 q 393 5 393 0 l 393 179 q 399 184 394 184 m 597 184 l 770 184 q 776 179 776 184 l 776 5 q 770 0 776 0 l 597 0 q 591 5 591 0 l 591 179 q 597 184 592 184 m 795 184 l 968 184 q 974 179 974 184 l 974 168 q 873 19 974 81 q 806 0 835 0 l 795 0 q 789 5 789 0 l 789 179 q 795 184 790 184 z "},"4":{"ha":1183,"x_min":0,"x_max":974,"o":"m 5 974 l 179 974 q 184 968 184 973 l 184 795 q 179 789 184 789 l 5 789 q 0 795 0 789 l 0 968 q 5 974 1 974 m 795 974 l 968 974 q 974 968 974 973 l 974 795 q 968 789 974 789 l 795 789 q 789 795 789 789 l 789 968 q 795 974 790 974 m 5 779 l 179 779 q 184 773 184 778 l 184 597 q 179 591 184 591 l 5 591 q 0 597 0 591 l 0 773 q 5 779 1 779 m 795 779 l 968 779 q 974 773 974 778 l 974 597 q 968 591 974 591 l 795 591 q 789 597 789 591 l 789 773 q 795 779 790 779 m 5 581 l 179 581 q 184 575 184 580 l 184 399 q 179 393 184 393 q 11 513 70 393 q 0 567 0 542 l 0 575 q 5 581 1 581 m 201 581 l 377 581 q 382 575 382 580 l 382 399 q 377 393 382 393 l 201 393 q 195 399 195 393 l 195 575 q 201 581 196 581 m 399 581 l 575 581 q 581 575 581 580 l 581 399 q 575 393 581 393 l 399 393 q 393 399 393 393 l 393 575 q 399 581 394 581 m 597 581 l 770 581 q 776 575 776 580 l 776 399 q 770 393 776 393 l 597 393 q 591 399 591 393 l 591 575 q 597 581 592 581 m 795 581 l 968 581 q 974 575 974 580 l 974 399 q 968 393 974 393 l 795 393 q 789 399 789 393 l 789 575 q 795 581 790 581 m 795 382 l 968 382 q 974 377 974 382 l 974 201 q 968 195 974 195 l 795 195 q 789 201 789 195 l 789 377 q 795 382 790 382 m 795 184 l 968 184 q 974 179 974 184 l 974 5 q 968 0 974 0 l 795 0 q 789 5 789 0 l 789 179 q 795 184 790 184 z "},"5":{"ha":1183,"x_min":0,"x_max":974,"o":"m 5 974 l 179 974 q 184 968 184 973 l 184 795 q 179 789 184 789 l 5 789 q 0 795 0 789 l 0 968 q 5 974 1 974 m 201 974 l 377 974 q 382 968 382 973 l 382 795 q 377 789 382 789 l 201 789 q 195 795 195 789 l 195 968 q 201 974 196 974 m 399 974 l 575 974 q 581 968 581 973 l 581 795 q 575 789 581 789 l 399 789 q 393 795 393 789 l 393 968 q 399 974 394 974 m 597 974 l 770 974 q 776 968 776 973 l 776 795 q 770 789 776 789 l 597 789 q 591 795 591 789 l 591 968 q 597 974 592 974 m 795 974 l 968 974 q 974 968 974 973 l 974 795 q 968 789 974 789 l 795 789 q 789 795 789 789 l 789 968 q 795 974 790 974 m 5 779 l 179 779 q 184 773 184 778 l 184 597 q 179 591 184 591 l 5 591 q 0 597 0 591 l 0 773 q 5 779 1 779 m 795 779 l 968 779 q 974 773 974 778 l 974 689 q 968 684 974 684 l 795 684 q 789 689 789 684 l 789 773 q 795 779 790 779 m 5 581 l 179 581 q 184 575 184 580 l 184 399 q 179 393 184 393 l 5 393 q 0 399 0 393 l 0 575 q 5 581 1 581 m 201 581 l 377 581 q 382 575 382 580 l 382 399 q 377 393 382 393 l 201 393 q 195 399 195 393 l 195 575 q 201 581 196 581 m 399 581 l 575 581 q 581 575 581 580 l 581 399 q 575 393 581 393 l 399 393 q 393 399 393 393 l 393 575 q 399 581 394 581 m 597 581 l 770 581 q 776 575 776 580 l 776 399 q 770 393 776 393 l 597 393 q 591 399 591 393 l 591 575 q 597 581 592 581 m 795 581 q 963 461 904 581 q 974 407 974 432 l 974 399 q 968 393 974 393 l 795 393 q 789 399 789 393 l 789 575 q 795 581 790 581 m 795 382 l 968 382 q 974 377 974 382 l 974 201 q 968 195 974 195 l 795 195 q 789 201 789 195 l 789 377 q 795 382 790 382 m 5 290 l 179 290 q 184 285 184 290 l 184 201 q 179 195 184 195 l 5 195 q 0 201 0 195 l 0 285 q 5 290 1 290 m 5 184 l 179 184 q 184 179 184 184 l 184 5 q 179 0 184 0 l 168 0 q 19 100 81 0 q 0 168 0 139 l 0 179 q 5 184 1 184 m 201 184 l 377 184 q 382 179 382 184 l 382 5 q 377 0 382 0 l 201 0 q 195 5 195 0 l 195 179 q 201 184 196 184 m 399 184 l 575 184 q 581 179 581 184 l 581 5 q 575 0 581 0 l 399 0 q 393 5 393 0 l 393 179 q 399 184 394 184 m 597 184 l 770 184 q 776 179 776 184 l 776 5 q 770 0 776 0 l 597 0 q 591 5 591 0 l 591 179 q 597 184 592 184 m 795 184 l 968 184 q 974 179 974 184 l 974 168 q 873 19 974 81 q 806 0 835 0 l 795 0 q 789 5 789 0 l 789 179 q 795 184 790 184 z "},"6":{"ha":1183,"x_min":0,"x_max":974,"o":"m 168 974 l 179 974 q 184 968 184 973 l 184 795 q 179 789 184 789 l 5 789 q 0 795 0 789 l 0 806 q 100 955 0 892 q 168 974 139 974 m 201 974 l 377 974 q 382 968 382 973 l 382 795 q 377 789 382 789 l 201 789 q 195 795 195 789 l 195 968 q 201 974 196 974 m 399 974 l 575 974 q 581 968 581 973 l 581 795 q 575 789 581 789 l 399 789 q 393 795 393 789 l 393 968 q 399 974 394 974 m 597 974 l 770 974 q 776 968 776 973 l 776 795 q 770 789 776 789 l 597 789 q 591 795 591 789 l 591 968 q 597 974 592 974 m 795 974 l 806 974 q 955 873 892 974 q 974 806 974 835 l 974 795 q 968 789 974 789 l 795 789 q 789 795 789 789 l 789 968 q 795 974 790 974 m 5 779 l 179 779 q 184 773 184 778 l 184 597 q 179 591 184 591 l 5 591 q 0 597 0 591 l 0 773 q 5 779 1 779 m 795 779 l 968 779 q 974 773 974 778 l 974 689 q 968 684 974 684 l 795 684 q 789 689 789 684 l 789 773 q 795 779 790 779 m 5 581 l 179 581 q 184 575 184 580 l 184 399 q 179 393 184 393 l 5 393 q 0 399 0 393 l 0 575 q 5 581 1 581 m 201 581 l 377 581 q 382 575 382 580 l 382 399 q 377 393 382 393 l 201 393 q 195 399 195 393 l 195 575 q 201 581 196 581 m 399 581 l 575 581 q 581 575 581 580 l 581 399 q 575 393 581 393 l 399 393 q 393 399 393 393 l 393 575 q 399 581 394 581 m 597 581 l 770 581 q 776 575 776 580 l 776 399 q 770 393 776 393 l 597 393 q 591 399 591 393 l 591 575 q 597 581 592 581 m 795 581 q 963 461 904 581 q 974 407 974 432 l 974 399 q 968 393 974 393 l 795 393 q 789 399 789 393 l 789 575 q 795 581 790 581 m 5 382 l 179 382 q 184 377 184 382 l 184 201 q 179 195 184 195 l 5 195 q 0 201 0 195 l 0 377 q 5 382 1 382 m 795 382 l 968 382 q 974 377 974 382 l 974 201 q 968 195 974 195 l 795 195 q 789 201 789 195 l 789 377 q 795 382 790 382 m 5 184 l 179 184 q 184 179 184 184 l 184 5 q 179 0 184 0 l 168 0 q 19 100 81 0 q 0 168 0 139 l 0 179 q 5 184 1 184 m 201 184 l 377 184 q 382 179 382 184 l 382 5 q 377 0 382 0 l 201 0 q 195 5 195 0 l 195 179 q 201 184 196 184 m 399 184 l 575 184 q 581 179 581 184 l 581 5 q 575 0 581 0 l 399 0 q 393 5 393 0 l 393 179 q 399 184 394 184 m 597 184 l 770 184 q 776 179 776 184 l 776 5 q 770 0 776 0 l 597 0 q 591 5 591 0 l 591 179 q 597 184 592 184 m 795 184 l 968 184 q 974 179 974 184 l 974 168 q 873 19 974 81 q 806 0 835 0 l 795 0 q 789 5 789 0 l 789 179 q 795 184 790 184 z "},"7":{"ha":1183,"x_min":0,"x_max":974,"o":"m 5 974 l 179 974 q 184 968 184 973 l 184 795 q 179 789 184 789 l 5 789 q 0 795 0 789 l 0 968 q 5 974 1 974 m 201 974 l 377 974 q 382 968 382 973 l 382 795 q 377 789 382 789 l 201 789 q 195 795 195 789 l 195 968 q 201 974 196 974 m 399 974 l 575 974 q 581 968 581 973 l 581 795 q 575 789 581 789 l 399 789 q 393 795 393 789 l 393 968 q 399 974 394 974 m 597 974 l 770 974 q 776 968 776 973 l 776 795 q 770 789 776 789 l 597 789 q 591 795 591 789 l 591 968 q 597 974 592 974 m 795 974 l 968 974 q 974 968 974 973 l 974 795 q 968 789 974 789 l 795 789 q 789 795 789 789 l 789 968 q 795 974 790 974 m 5 779 l 179 779 q 184 773 184 778 l 184 689 q 179 684 184 684 l 5 684 q 0 689 0 684 l 0 773 q 5 779 1 779 m 795 779 l 968 779 q 974 773 974 778 l 974 597 q 968 591 974 591 l 795 591 q 789 597 789 591 l 789 773 q 795 779 790 779 m 578 581 l 581 575 l 581 399 q 575 393 581 393 l 399 393 q 393 399 393 393 q 524 572 393 515 q 578 581 562 581 m 597 581 l 770 581 q 776 575 776 580 l 776 399 q 770 393 776 393 l 597 393 q 591 399 591 393 l 591 575 q 597 581 592 581 m 795 581 l 968 581 q 974 575 974 580 l 974 567 q 857 407 974 465 q 792 393 823 393 l 789 399 l 789 575 q 795 581 790 581 m 399 382 l 575 382 q 581 377 581 382 l 581 201 q 575 195 581 195 l 399 195 q 393 201 393 195 l 393 377 q 399 382 394 382 m 399 184 l 575 184 q 581 179 581 184 l 581 5 q 575 0 581 0 l 399 0 q 393 5 393 0 l 393 179 q 399 184 394 184 z "},"8":{"ha":1183,"x_min":0,"x_max":974,"o":"m 168 974 l 179 974 q 184 968 184 973 l 184 795 q 179 789 184 789 l 5 789 q 0 795 0 789 l 0 806 q 100 955 0 892 q 168 974 139 974 m 201 974 l 377 974 q 382 968 382 973 l 382 795 q 377 789 382 789 l 201 789 q 195 795 195 789 l 195 968 q 201 974 196 974 m 399 974 l 575 974 q 581 968 581 973 l 581 795 q 575 789 581 789 l 399 789 q 393 795 393 789 l 393 968 q 399 974 394 974 m 597 974 l 770 974 q 776 968 776 973 l 776 795 q 770 789 776 789 l 597 789 q 591 795 591 789 l 591 968 q 597 974 592 974 m 795 974 l 806 974 q 955 873 892 974 q 974 806 974 835 l 974 795 q 968 789 974 789 l 795 789 q 789 795 789 789 l 789 968 q 795 974 790 974 m 5 779 l 179 779 q 184 773 184 778 l 184 597 q 179 591 184 591 l 5 591 q 0 597 0 591 l 0 773 q 5 779 1 779 m 795 779 l 968 779 q 974 773 974 778 l 974 597 q 968 591 974 591 l 795 591 q 789 597 789 591 l 789 773 q 795 779 790 779 m 5 581 l 176 581 q 182 575 182 580 l 182 399 q 176 393 182 393 l 5 393 q 0 401 0 393 q 57 488 16 450 q 0 578 7 534 l 5 581 m 201 581 l 377 581 q 382 575 382 580 l 382 399 q 377 393 382 393 l 201 393 q 195 399 195 393 l 195 575 q 201 581 196 581 m 399 581 l 575 581 q 581 575 581 580 l 581 399 q 575 393 581 393 l 399 393 q 393 399 393 393 l 393 575 q 399 581 394 581 m 597 581 l 770 581 q 776 575 776 580 l 776 399 q 770 393 776 393 l 597 393 q 591 399 591 393 l 591 575 q 597 581 592 581 m 795 581 l 968 581 q 974 575 974 580 q 917 486 958 527 q 974 396 956 455 l 968 393 l 795 393 q 789 399 789 393 l 789 575 q 795 581 790 581 m 5 382 l 179 382 q 184 377 184 382 l 184 201 q 179 195 184 195 l 5 195 q 0 201 0 195 l 0 377 q 5 382 1 382 m 795 382 l 968 382 q 974 377 974 382 l 974 201 q 968 195 974 195 l 795 195 q 789 201 789 195 l 789 377 q 795 382 790 382 m 5 184 l 179 184 q 184 179 184 184 l 184 5 q 179 0 184 0 l 168 0 q 19 100 81 0 q 0 168 0 139 l 0 179 q 5 184 1 184 m 201 184 l 377 184 q 382 179 382 184 l 382 5 q 377 0 382 0 l 201 0 q 195 5 195 0 l 195 179 q 201 184 196 184 m 399 184 l 575 184 q 581 179 581 184 l 581 5 q 575 0 581 0 l 399 0 q 393 5 393 0 l 393 179 q 399 184 394 184 m 597 184 l 770 184 q 776 179 776 184 l 776 5 q 770 0 776 0 l 597 0 q 591 5 591 0 l 591 179 q 597 184 592 184 m 795 184 l 968 184 q 974 179 974 184 l 974 168 q 873 19 974 81 q 806 0 835 0 l 795 0 q 789 5 789 0 l 789 179 q 795 184 790 184 z "},"9":{"ha":1183,"x_min":0,"x_max":974,"o":"m 168 974 l 179 974 q 184 968 184 973 l 184 795 q 179 789 184 789 l 5 789 q 0 795 0 789 l 0 806 q 100 955 0 892 q 168 974 139 974 m 203 974 l 377 974 q 382 968 382 973 l 382 795 q 377 789 382 789 l 203 789 q 198 795 198 789 l 198 968 q 203 974 199 974 m 399 974 l 575 974 q 581 968 581 973 l 581 795 q 575 789 581 789 l 399 789 q 393 795 393 789 l 393 968 q 399 974 394 974 m 597 974 l 773 974 q 779 968 779 973 l 779 795 q 773 789 779 789 l 597 789 q 591 795 591 789 l 591 968 q 597 974 592 974 m 795 974 l 806 974 q 955 873 892 974 q 974 806 974 835 l 974 795 q 968 789 974 789 l 795 789 q 789 795 789 789 l 789 968 q 795 974 790 974 m 5 779 l 179 779 q 184 773 184 778 l 184 597 q 179 591 184 591 l 5 591 q 0 597 0 591 l 0 773 q 5 779 1 779 m 795 779 l 968 779 q 974 773 974 778 l 974 597 q 968 591 974 591 l 795 591 q 789 597 789 591 l 789 773 q 795 779 790 779 m 5 581 l 179 581 q 184 575 184 580 l 184 399 q 179 393 184 393 q 11 513 70 393 q 0 567 0 542 l 0 575 q 5 581 1 581 m 203 581 l 377 581 q 382 575 382 580 l 382 399 q 377 393 382 393 l 203 393 q 198 399 198 393 l 198 575 q 203 581 199 581 m 399 581 l 575 581 q 581 575 581 580 l 581 399 q 575 393 581 393 l 399 393 q 393 399 393 393 l 393 575 q 399 581 394 581 m 597 581 l 773 581 q 779 575 779 580 l 779 399 q 773 393 779 393 l 597 393 q 591 399 591 393 l 591 575 q 597 581 592 581 m 795 581 l 968 581 q 974 575 974 580 l 974 399 q 968 393 974 393 l 795 393 q 789 399 789 393 l 789 575 q 795 581 790 581 m 795 382 l 968 382 q 974 377 974 382 l 974 201 q 968 195 974 195 l 795 195 q 789 201 789 195 l 789 377 q 795 382 790 382 m 5 290 l 179 290 q 184 285 184 290 l 184 201 q 179 195 184 195 l 5 195 q 0 201 0 195 l 0 285 q 5 290 1 290 m 5 184 l 179 184 q 184 179 184 184 l 184 5 q 179 0 184 0 l 168 0 q 19 100 81 0 q 0 168 0 139 l 0 179 q 5 184 1 184 m 203 184 l 377 184 q 382 179 382 184 l 382 5 q 377 0 382 0 l 203 0 q 198 5 198 0 l 198 179 q 203 184 199 184 m 399 184 l 575 184 q 581 179 581 184 l 581 5 q 575 0 581 0 l 399 0 q 393 5 393 0 l 393 179 q 399 184 394 184 m 597 184 l 773 184 q 779 179 779 184 l 779 5 q 773 0 779 0 l 597 0 q 591 5 591 0 l 591 179 q 597 184 592 184 m 795 184 l 968 184 q 974 179 974 184 l 974 168 q 873 19 974 81 q 806 0 835 0 l 795 0 q 789 5 789 0 l 789 179 q 795 184 790 184 z "},"\u0000":{"ha":1183,"x_min":0,"x_max":0,"o":""},"\u001d":{"ha":1183,"x_min":0,"x_max":0,"o":""}," ":{"ha":593,"x_min":0,"x_max":0,"o":""}," ":{"ha":593,"x_min":0,"x_max":0,"o":""},"!":{"ha":1183,"x_min":393,"x_max":578,"o":"m 399 974 l 572 974 q 578 968 578 973 l 578 795 q 572 789 578 789 l 399 789 q 393 795 393 789 l 393 968 q 399 974 394 974 m 399 779 l 572 779 q 578 773 578 778 l 578 597 q 572 591 578 591 l 399 591 q 393 597 393 591 l 393 773 q 399 779 394 779 m 399 581 l 572 581 q 578 575 578 580 l 578 399 q 572 393 578 393 l 399 393 q 393 399 393 393 l 393 575 q 399 581 394 581 m 399 184 l 572 184 q 578 179 578 184 l 578 5 q 572 0 578 0 l 399 0 q 393 5 393 0 l 393 179 q 399 184 394 184 z "},"\"":{"ha":789,"x_min":0,"x_max":581,"o":"m 5 974 l 179 974 q 184 968 184 973 l 184 795 q 179 789 184 789 l 5 789 q 0 795 0 789 l 0 968 q 5 974 1 974 m 399 974 l 575 974 q 581 968 581 973 l 581 795 q 575 789 581 789 l 399 789 q 393 795 393 789 l 393 968 q 399 974 394 974 m 5 779 l 179 779 q 184 773 184 778 l 184 597 q 179 591 184 591 l 5 591 q 0 597 0 591 l 0 773 q 5 779 1 779 m 399 779 l 575 779 q 581 773 581 778 l 581 597 q 575 591 581 591 l 399 591 q 393 597 393 591 l 393 773 q 399 779 394 779 z "},"#":{"ha":1183,"x_min":0,"x_max":974,"o":"m 201 974 l 377 974 q 382 968 382 973 l 382 795 q 377 789 382 789 l 201 789 q 195 795 195 789 l 195 968 q 201 974 196 974 m 597 974 l 770 974 q 776 968 776 973 l 776 795 q 770 789 776 789 l 597 789 q 591 795 591 789 l 591 968 q 597 974 592 974 m 5 779 l 179 779 q 184 773 184 778 l 184 597 q 179 591 184 591 l 5 591 q 0 597 0 591 l 0 773 q 5 779 1 779 m 201 779 l 377 779 q 382 773 382 778 l 382 597 q 377 591 382 591 l 201 591 q 195 597 195 591 l 195 773 q 201 779 196 779 m 399 779 l 575 779 q 581 773 581 778 l 581 597 q 575 591 581 591 l 399 591 q 393 597 393 591 l 393 773 q 399 779 394 779 m 597 779 l 770 779 q 776 773 776 778 l 776 597 q 770 591 776 591 l 597 591 q 591 597 591 591 l 591 773 q 597 779 592 779 m 795 779 l 968 779 q 974 773 974 778 l 974 597 q 968 591 974 591 l 795 591 q 789 597 789 591 l 789 773 q 795 779 790 779 m 201 581 l 377 581 q 382 575 382 580 l 382 399 q 377 393 382 393 l 201 393 q 195 399 195 393 l 195 575 q 201 581 196 581 m 597 581 l 770 581 q 776 575 776 580 l 776 399 q 770 393 776 393 l 597 393 q 591 399 591 393 l 591 575 q 597 581 592 581 m 5 382 l 179 382 q 184 377 184 382 l 184 201 q 179 195 184 195 l 5 195 q 0 201 0 195 l 0 377 q 5 382 1 382 m 201 382 l 377 382 q 382 377 382 382 l 382 201 q 377 195 382 195 l 201 195 q 195 201 195 195 l 195 377 q 201 382 196 382 m 399 382 l 575 382 q 581 377 581 382 l 581 201 q 575 195 581 195 l 399 195 q 393 201 393 195 l 393 377 q 399 382 394 382 m 597 382 l 770 382 q 776 377 776 382 l 776 201 q 770 195 776 195 l 597 195 q 591 201 591 195 l 591 377 q 597 382 592 382 m 795 382 l 968 382 q 974 377 974 382 l 974 201 q 968 195 974 195 l 795 195 q 789 201 789 195 l 789 377 q 795 382 790 382 m 201 184 l 377 184 q 382 179 382 184 l 382 5 q 377 0 382 0 l 201 0 q 195 5 195 0 l 195 179 q 201 184 196 184 m 597 184 l 770 184 q 776 179 776 184 l 776 5 q 770 0 776 0 l 597 0 q 591 5 591 0 l 591 179 q 597 184 592 184 z "},"$":{"ha":1183,"x_min":0,"x_max":977,"o":"m 5 974 l 179 974 q 184 968 184 973 l 184 795 q 179 789 184 789 l 5 789 q 0 795 0 789 l 0 968 q 5 974 1 974 m 201 974 l 377 974 q 382 968 382 973 l 382 795 q 377 789 382 789 l 201 789 q 195 795 195 789 l 195 968 q 201 974 196 974 m 399 974 l 575 974 q 581 968 581 973 l 581 795 q 575 789 581 789 l 399 789 q 393 795 393 789 l 393 968 q 399 974 394 974 m 597 974 l 770 974 q 776 968 776 973 l 776 795 q 770 789 776 789 l 597 789 q 591 795 591 789 l 591 968 q 597 974 592 974 m 795 974 l 971 974 q 977 968 977 973 l 977 795 q 971 789 977 789 l 795 789 q 789 795 789 789 l 789 968 q 795 974 790 974 m 5 779 l 179 779 q 184 773 184 778 l 184 597 q 179 591 184 591 l 5 591 q 0 597 0 591 l 0 773 q 5 779 1 779 m 795 779 l 971 779 q 977 773 977 778 l 977 597 q 971 591 977 591 l 795 591 q 789 597 789 591 l 789 773 q 795 779 790 779 m 5 581 l 179 581 q 184 575 184 580 l 184 399 q 179 393 184 393 l 5 393 q 0 399 0 393 l 0 575 q 5 581 1 581 m 399 581 l 575 581 q 581 575 581 580 l 581 399 q 575 393 581 393 l 399 393 q 393 399 393 393 l 393 575 q 399 581 394 581 m 795 581 l 971 581 q 977 575 977 580 l 977 399 q 971 393 977 393 l 795 393 q 789 399 789 393 l 789 575 q 795 581 790 581 m 5 382 l 179 382 q 184 377 184 382 l 184 201 q 179 195 184 195 l 5 195 q 0 201 0 195 l 0 377 q 5 382 1 382 m 795 382 l 971 382 q 977 377 977 382 l 977 201 q 971 195 977 195 l 795 195 q 789 201 789 195 l 789 377 q 795 382 790 382 m 5 184 l 179 184 q 184 179 184 184 l 184 5 q 179 0 184 0 l 5 0 q 0 5 0 0 l 0 179 q 5 184 1 184 m 201 184 l 377 184 q 382 179 382 184 l 382 5 q 377 0 382 0 l 201 0 q 195 5 195 0 l 195 179 q 201 184 196 184 m 399 184 l 575 184 q 581 179 581 184 l 581 5 q 575 0 581 0 l 399 0 q 393 5 393 0 l 393 179 q 399 184 394 184 m 597 184 l 770 184 q 776 179 776 184 l 776 5 q 770 0 776 0 l 597 0 q 591 5 591 0 l 591 179 q 597 184 592 184 m 795 184 l 971 184 q 977 179 977 184 l 977 5 q 971 0 977 0 l 795 0 q 789 5 789 0 l 789 179 q 795 184 790 184 z "},"%":{"ha":1183,"x_min":0,"x_max":974,"o":"m 168 974 l 179 974 q 184 968 184 973 l 184 795 q 179 789 184 789 l 5 789 q 0 795 0 789 l 0 806 q 100 955 0 892 q 168 974 139 974 m 201 974 l 209 974 q 369 857 312 974 q 382 792 382 823 l 377 789 l 201 789 q 195 795 195 789 l 195 968 q 201 974 196 974 m 795 974 l 968 974 q 974 968 974 973 l 974 795 q 968 789 974 789 l 795 789 q 789 795 789 789 l 789 968 q 795 974 790 974 m 5 779 l 179 779 q 184 773 184 778 l 184 597 q 179 591 184 591 q 5 724 61 591 q 0 765 0 750 l 0 773 q 5 779 1 779 m 201 779 l 377 779 q 382 770 382 779 q 255 600 382 659 q 198 591 221 591 l 195 597 l 195 773 q 201 779 196 779 m 597 779 l 770 779 q 776 773 776 778 l 776 597 q 770 591 776 591 l 597 591 q 591 597 591 591 l 591 773 q 597 779 592 779 m 399 581 l 575 581 q 581 575 581 580 l 581 399 q 575 393 581 393 l 399 393 q 393 399 393 393 l 393 575 q 399 581 394 581 m 201 382 l 377 382 q 382 377 382 382 l 382 201 q 377 195 382 195 l 201 195 q 195 201 195 195 l 195 377 q 201 382 196 382 m 776 382 l 779 377 l 779 201 q 773 195 779 195 l 597 195 q 591 203 591 195 q 719 374 591 315 q 776 382 753 382 m 795 382 q 968 250 913 382 q 974 209 974 224 l 974 201 q 968 195 974 195 l 795 195 q 789 201 789 195 l 789 377 q 795 382 790 382 m 5 184 l 179 184 q 184 179 184 184 l 184 5 q 179 0 184 0 l 5 0 q 0 5 0 0 l 0 179 q 5 184 1 184 m 597 184 l 773 184 q 779 179 779 184 l 779 5 q 773 0 779 0 l 765 0 q 605 117 662 0 q 591 182 591 151 l 597 184 m 795 184 l 968 184 q 974 179 974 184 l 974 168 q 873 19 974 81 q 806 0 835 0 l 795 0 q 789 5 789 0 l 789 179 q 795 184 790 184 z "},"&":{"ha":1183,"x_min":0,"x_max":974,"o":"m 174 974 l 179 974 q 184 968 184 973 l 184 795 q 179 789 184 789 l 5 789 q 0 795 0 789 l 0 806 q 111 960 0 899 q 174 974 144 974 m 201 974 l 377 974 q 382 968 382 973 l 382 795 q 377 789 382 789 l 201 789 q 195 795 195 789 l 195 968 q 201 974 196 974 m 399 974 l 407 974 q 567 857 510 974 q 581 792 581 824 l 575 789 l 399 789 q 393 795 393 789 l 393 968 q 399 974 394 974 m 5 779 l 179 779 q 184 773 184 778 l 184 597 q 179 591 184 591 l 5 591 q 0 597 0 591 l 0 773 q 5 779 1 779 m 399 779 l 575 779 q 581 773 581 778 l 581 597 q 575 591 581 591 l 399 591 q 393 597 393 591 l 393 773 q 399 779 394 779 m 5 581 l 179 581 q 184 575 184 580 l 184 399 q 179 393 184 393 l 5 393 q 0 399 0 393 l 0 575 q 5 581 1 581 m 201 581 l 377 581 q 382 575 382 580 l 382 399 q 377 393 382 393 l 201 393 q 195 399 195 393 l 195 575 q 201 581 196 581 m 399 581 l 575 581 q 581 575 581 580 l 581 399 q 575 393 581 393 l 399 393 q 393 399 393 393 l 393 575 q 399 581 394 581 m 795 581 l 968 581 q 974 575 974 580 l 974 399 q 968 393 974 393 l 795 393 q 789 399 789 393 l 789 575 q 795 581 790 581 m 5 382 l 179 382 q 184 377 184 382 l 184 201 q 179 195 184 195 l 5 195 q 0 201 0 195 l 0 377 q 5 382 1 382 m 597 382 l 773 382 q 779 377 779 382 l 779 201 q 773 195 779 195 l 597 195 q 591 201 591 195 l 591 377 q 597 382 592 382 m 5 184 l 179 184 q 184 179 184 184 l 184 5 q 179 0 184 0 l 174 0 q 19 100 79 0 q 0 168 0 139 l 0 179 q 5 184 1 184 m 201 184 l 377 184 q 382 179 382 184 l 382 5 q 377 0 382 0 l 201 0 q 195 5 195 0 l 195 179 q 201 184 196 184 m 399 184 l 575 184 q 581 176 581 184 q 469 14 581 77 q 407 0 433 0 l 399 0 q 393 5 393 0 l 393 179 q 399 184 394 184 m 795 184 l 968 184 q 974 179 974 184 l 974 5 q 968 0 974 0 l 795 0 q 789 5 789 0 l 789 179 q 795 184 790 184 z "},"'":{"ha":396,"x_min":0,"x_max":184,"o":"m 5 974 l 179 974 q 184 968 184 973 l 184 795 q 179 789 184 789 l 5 789 q 0 795 0 789 l 0 968 q 5 974 1 974 m 5 779 l 179 779 q 184 773 184 778 l 184 597 q 179 591 184 591 l 5 591 q 0 597 0 591 l 0 773 q 5 779 1 779 z "},"(":{"ha":1183,"x_min":0,"x_max":977,"o":"m 5 974 l 179 974 q 184 968 184 973 l 184 795 q 179 789 184 789 l 5 789 q 0 795 0 789 l 0 968 q 5 974 1 974 m 201 974 l 377 974 q 382 968 382 973 l 382 795 q 377 789 382 789 l 201 789 q 195 795 195 789 l 195 968 q 201 974 196 974 m 399 974 l 575 974 q 581 968 581 973 l 581 795 q 575 789 581 789 l 399 789 q 393 795 393 789 l 393 968 q 399 974 394 974 m 597 974 l 770 974 q 776 968 776 973 l 776 795 q 770 789 776 789 l 597 789 q 591 795 591 789 l 591 968 q 597 974 592 974 m 795 974 l 971 974 q 977 968 977 973 l 977 795 q 971 789 977 789 l 795 789 q 789 795 789 789 l 789 968 q 795 974 790 974 m 5 779 l 179 779 q 184 773 184 778 l 184 597 q 179 591 184 591 l 5 591 q 0 597 0 591 l 0 773 q 5 779 1 779 m 795 779 l 971 779 q 977 773 977 778 l 977 597 q 971 591 977 591 l 795 591 q 789 597 789 591 l 789 773 q 795 779 790 779 m 5 581 l 179 581 q 184 575 184 580 l 184 399 q 179 393 184 393 l 5 393 q 0 399 0 393 l 0 575 q 5 581 1 581 m 399 581 l 575 581 q 581 575 581 580 l 581 399 q 575 393 581 393 l 399 393 q 393 399 393 393 l 393 575 q 399 581 394 581 m 795 581 l 971 581 q 977 575 977 580 l 977 399 q 971 393 977 393 l 795 393 q 789 399 789 393 l 789 575 q 795 581 790 581 m 5 382 l 179 382 q 184 377 184 382 l 184 201 q 179 195 184 195 l 5 195 q 0 201 0 195 l 0 377 q 5 382 1 382 m 795 382 l 971 382 q 977 377 977 382 l 977 201 q 971 195 977 195 l 795 195 q 789 201 789 195 l 789 377 q 795 382 790 382 m 5 184 l 179 184 q 184 179 184 184 l 184 5 q 179 0 184 0 l 5 0 q 0 5 0 0 l 0 179 q 5 184 1 184 m 201 184 l 377 184 q 382 179 382 184 l 382 5 q 377 0 382 0 l 201 0 q 195 5 195 0 l 195 179 q 201 184 196 184 m 399 184 l 575 184 q 581 179 581 184 l 581 5 q 575 0 581 0 l 399 0 q 393 5 393 0 l 393 179 q 399 184 394 184 m 597 184 l 770 184 q 776 179 776 184 l 776 5 q 770 0 776 0 l 597 0 q 591 5 591 0 l 591 179 q 597 184 592 184 m 795 184 l 971 184 q 977 179 977 184 l 977 5 q 971 0 977 0 l 795 0 q 789 5 789 0 l 789 179 q 795 184 790 184 z "},")":{"ha":1183,"x_min":0,"x_max":977,"o":"m 5 974 l 179 974 q 184 968 184 973 l 184 795 q 179 789 184 789 l 5 789 q 0 795 0 789 l 0 968 q 5 974 1 974 m 201 974 l 377 974 q 382 968 382 973 l 382 795 q 377 789 382 789 l 201 789 q 195 795 195 789 l 195 968 q 201 974 196 974 m 399 974 l 575 974 q 581 968 581 973 l 581 795 q 575 789 581 789 l 399 789 q 393 795 393 789 l 393 968 q 399 974 394 974 m 597 974 l 770 974 q 776 968 776 973 l 776 795 q 770 789 776 789 l 597 789 q 591 795 591 789 l 591 968 q 597 974 592 974 m 795 974 l 971 974 q 977 968 977 973 l 977 795 q 971 789 977 789 l 795 789 q 789 795 789 789 l 789 968 q 795 974 790 974 m 5 779 l 179 779 q 184 773 184 778 l 184 597 q 179 591 184 591 l 5 591 q 0 597 0 591 l 0 773 q 5 779 1 779 m 795 779 l 971 779 q 977 773 977 778 l 977 597 q 971 591 977 591 l 795 591 q 789 597 789 591 l 789 773 q 795 779 790 779 m 5 581 l 179 581 q 184 575 184 580 l 184 399 q 179 393 184 393 l 5 393 q 0 399 0 393 l 0 575 q 5 581 1 581 m 399 581 l 575 581 q 581 575 581 580 l 581 399 q 575 393 581 393 l 399 393 q 393 399 393 393 l 393 575 q 399 581 394 581 m 795 581 l 971 581 q 977 575 977 580 l 977 399 q 971 393 977 393 l 795 393 q 789 399 789 393 l 789 575 q 795 581 790 581 m 5 382 l 179 382 q 184 377 184 382 l 184 201 q 179 195 184 195 l 5 195 q 0 201 0 195 l 0 377 q 5 382 1 382 m 795 382 l 971 382 q 977 377 977 382 l 977 201 q 971 195 977 195 l 795 195 q 789 201 789 195 l 789 377 q 795 382 790 382 m 5 184 l 179 184 q 184 179 184 184 l 184 5 q 179 0 184 0 l 5 0 q 0 5 0 0 l 0 179 q 5 184 1 184 m 201 184 l 377 184 q 382 179 382 184 l 382 5 q 377 0 382 0 l 201 0 q 195 5 195 0 l 195 179 q 201 184 196 184 m 399 184 l 575 184 q 581 179 581 184 l 581 5 q 575 0 581 0 l 399 0 q 393 5 393 0 l 393 179 q 399 184 394 184 m 597 184 l 770 184 q 776 179 776 184 l 776 5 q 770 0 776 0 l 597 0 q 591 5 591 0 l 591 179 q 597 184 592 184 m 795 184 l 971 184 q 977 179 977 184 l 977 5 q 971 0 977 0 l 795 0 q 789 5 789 0 l 789 179 q 795 184 790 184 z "},"*":{"ha":1183,"x_min":0,"x_max":581,"o":"m 5 974 l 179 974 q 184 968 184 973 l 184 795 q 179 789 184 789 l 5 789 q 0 795 0 789 l 0 968 q 5 974 1 974 m 399 974 l 575 974 q 581 968 581 973 l 581 795 q 575 789 581 789 l 399 789 q 393 795 393 789 l 393 968 q 399 974 394 974 m 201 779 l 377 779 q 382 773 382 778 l 382 597 q 377 591 382 591 l 201 591 q 195 597 195 591 l 195 773 q 201 779 196 779 m 5 581 l 179 581 q 184 575 184 580 l 184 399 q 179 393 184 393 l 5 393 q 0 399 0 393 l 0 575 q 5 581 1 581 m 399 581 l 575 581 q 581 575 581 580 l 581 399 q 575 393 581 393 l 399 393 q 393 399 393 393 l 393 575 q 399 581 394 581 z "},"+":{"ha":1183,"x_min":0,"x_max":974,"o":"m 399 974 l 575 974 q 581 968 581 973 l 581 795 q 575 789 581 789 l 399 789 q 393 795 393 789 l 393 968 q 399 974 394 974 m 399 779 l 575 779 q 581 773 581 778 l 581 597 q 575 591 581 591 l 399 591 q 393 597 393 591 l 393 773 q 399 779 394 779 m 5 581 l 179 581 q 184 575 184 580 l 184 399 q 179 393 184 393 l 5 393 q 0 399 0 393 l 0 575 q 5 581 1 581 m 201 581 l 377 581 q 382 575 382 580 l 382 399 q 377 393 382 393 l 201 393 q 195 399 195 393 l 195 575 q 201 581 196 581 m 399 581 l 575 581 q 581 575 581 580 l 581 399 q 575 393 581 393 l 399 393 q 393 399 393 393 l 393 575 q 399 581 394 581 m 597 581 l 770 581 q 776 575 776 580 l 776 399 q 770 393 776 393 l 597 393 q 591 399 591 393 l 591 575 q 597 581 592 581 m 792 581 l 968 581 q 974 575 974 580 l 974 399 q 968 393 974 393 l 792 393 q 787 399 787 393 l 787 575 q 792 581 787 581 m 399 382 l 575 382 q 581 377 581 382 l 581 201 q 575 195 581 195 l 399 195 q 393 201 393 195 l 393 377 q 399 382 394 382 m 399 184 l 575 184 q 581 179 581 184 l 581 5 q 575 0 581 0 l 399 0 q 393 5 393 0 l 393 179 q 399 184 394 184 z "},",":{"ha":396,"x_min":0,"x_max":184,"o":"m 5 382 l 179 382 q 184 377 184 382 l 184 201 q 179 195 184 195 l 5 195 q 0 201 0 195 l 0 377 q 5 382 1 382 m 5 184 l 179 184 q 184 179 184 184 l 184 5 q 179 0 184 0 l 5 0 q 0 5 0 0 l 0 179 q 5 184 1 184 z "},"-":{"ha":1183,"x_min":0,"x_max":974,"o":"m 5 581 l 179 581 q 184 575 184 580 l 184 399 q 179 393 184 393 l 5 393 q 0 399 0 393 l 0 575 q 5 581 1 581 m 201 581 l 377 581 q 382 575 382 580 l 382 399 q 377 393 382 393 l 201 393 q 195 399 195 393 l 195 575 q 201 581 196 581 m 399 581 l 575 581 q 581 575 581 580 l 581 399 q 575 393 581 393 l 399 393 q 393 399 393 393 l 393 575 q 399 581 394 581 m 597 581 l 770 581 q 776 575 776 580 l 776 399 q 770 393 776 393 l 597 393 q 591 399 591 393 l 591 575 q 597 581 592 581 m 792 581 l 968 581 q 974 575 974 580 l 974 399 q 968 393 974 393 l 792 393 q 787 399 787 393 l 787 575 q 792 581 787 581 z "},"­":{"ha":1183,"x_min":0,"x_max":974,"o":"m 5 581 l 179 581 q 184 575 184 580 l 184 399 q 179 393 184 393 l 5 393 q 0 399 0 393 l 0 575 q 5 581 1 581 m 201 581 l 377 581 q 382 575 382 580 l 382 399 q 377 393 382 393 l 201 393 q 195 399 195 393 l 195 575 q 201 581 196 581 m 399 581 l 575 581 q 581 575 581 580 l 581 399 q 575 393 581 393 l 399 393 q 393 399 393 393 l 393 575 q 399 581 394 581 m 597 581 l 770 581 q 776 575 776 580 l 776 399 q 770 393 776 393 l 597 393 q 591 399 591 393 l 591 575 q 597 581 592 581 m 792 581 l 968 581 q 974 575 974 580 l 974 399 q 968 393 974 393 l 792 393 q 787 399 787 393 l 787 575 q 792 581 787 581 z "},".":{"ha":396,"x_min":0,"x_max":184,"o":"m 5 184 l 179 184 q 184 179 184 184 l 184 5 q 179 0 184 0 l 5 0 q 0 5 0 0 l 0 179 q 5 184 1 184 z "},"/":{"ha":1183,"x_min":0,"x_max":974,"o":"m 795 974 l 968 974 q 974 968 974 973 l 974 795 q 968 789 974 789 l 795 789 q 789 795 789 789 l 789 968 q 795 974 790 974 m 597 779 l 770 779 q 776 773 776 778 l 776 597 q 770 591 776 591 l 597 591 q 591 597 591 591 l 591 773 q 597 779 592 779 m 399 581 l 575 581 q 581 575 581 580 l 581 399 q 575 393 581 393 l 399 393 q 393 399 393 393 l 393 575 q 399 581 394 581 m 201 382 l 377 382 q 382 377 382 382 l 382 201 q 377 195 382 195 l 201 195 q 195 201 195 195 l 195 377 q 201 382 196 382 m 5 184 l 179 184 q 184 179 184 184 l 184 5 q 179 0 184 0 l 5 0 q 0 5 0 0 l 0 179 q 5 184 1 184 z "},":":{"ha":396,"x_min":0,"x_max":184,"o":"m 5 779 l 179 779 q 184 773 184 778 l 184 597 q 179 591 184 591 l 5 591 q 0 597 0 591 l 0 773 q 5 779 1 779 m 5 382 l 179 382 q 184 377 184 382 l 184 201 q 179 195 184 195 l 5 195 q 0 201 0 195 l 0 377 q 5 382 1 382 z "},";":{"ha":396,"x_min":0,"x_max":184,"o":"m 5 779 l 179 779 q 184 773 184 778 l 184 597 q 179 591 184 591 l 5 591 q 0 597 0 591 l 0 773 q 5 779 1 779 m 5 382 l 179 382 q 184 377 184 382 l 184 201 q 179 195 184 195 l 5 195 q 0 201 0 195 l 0 377 q 5 382 1 382 m 5 184 l 179 184 q 184 179 184 184 l 184 5 q 179 0 184 0 l 5 0 q 0 5 0 0 l 0 179 q 5 184 1 184 z "},";":{"ha":396,"x_min":0,"x_max":184,"o":"m 5 779 l 179 779 q 184 773 184 778 l 184 597 q 179 591 184 591 l 5 591 q 0 597 0 591 l 0 773 q 5 779 1 779 m 5 382 l 179 382 q 184 377 184 382 l 184 201 q 179 195 184 195 l 5 195 q 0 201 0 195 l 0 377 q 5 382 1 382 m 5 184 l 179 184 q 184 179 184 184 l 184 5 q 179 0 184 0 l 5 0 q 0 5 0 0 l 0 179 q 5 184 1 184 z "},"<":{"ha":1183,"x_min":195,"x_max":776,"o":"m 597 974 l 770 974 q 776 968 776 973 l 776 795 q 770 789 776 789 l 597 789 q 591 795 591 789 l 591 968 q 597 974 592 974 m 399 779 l 575 779 q 581 773 581 778 l 581 597 q 575 591 581 591 l 399 591 q 393 597 393 591 l 393 773 q 399 779 394 779 m 201 581 l 377 581 q 382 575 382 580 l 382 399 q 377 393 382 393 l 201 393 q 195 399 195 393 l 195 575 q 201 581 196 581 m 399 382 l 575 382 q 581 377 581 382 l 581 201 q 575 195 581 195 l 399 195 q 393 201 393 195 l 393 377 q 399 382 394 382 m 597 184 l 770 184 q 776 179 776 184 l 776 5 q 770 0 776 0 l 597 0 q 591 5 591 0 l 591 179 q 597 184 592 184 z "},"=":{"ha":1183,"x_min":195,"x_max":779,"o":"m 201 779 l 377 779 q 382 773 382 778 l 382 597 q 377 591 382 591 l 201 591 q 195 597 195 591 l 195 773 q 201 779 196 779 m 399 779 l 575 779 q 581 773 581 778 l 581 597 q 575 591 581 591 l 399 591 q 393 597 393 591 l 393 773 q 399 779 394 779 m 597 779 l 773 779 q 779 773 779 778 l 779 597 q 773 591 779 591 l 597 591 q 591 597 591 591 l 591 773 q 597 779 592 779 m 201 382 l 377 382 q 382 377 382 382 l 382 201 q 377 195 382 195 l 201 195 q 195 201 195 195 l 195 377 q 201 382 196 382 m 399 382 l 575 382 q 581 377 581 382 l 581 201 q 575 195 581 195 l 399 195 q 393 201 393 195 l 393 377 q 399 382 394 382 m 597 382 l 770 382 q 776 377 776 382 l 776 201 q 770 195 776 195 l 597 195 q 591 201 591 195 l 591 377 q 597 382 592 382 z "},">":{"ha":1183,"x_min":198,"x_max":776,"o":"m 203 974 l 377 974 q 382 968 382 973 l 382 795 q 377 789 382 789 l 203 789 q 198 795 198 789 l 198 968 q 203 974 199 974 m 399 779 l 575 779 q 581 773 581 778 l 581 597 q 575 591 581 591 l 399 591 q 393 597 393 591 l 393 773 q 399 779 394 779 m 597 581 l 770 581 q 776 575 776 580 l 776 399 q 770 393 776 393 l 597 393 q 591 399 591 393 l 591 575 q 597 581 592 581 m 399 382 l 575 382 q 581 377 581 382 l 581 201 q 575 195 581 195 l 399 195 q 393 201 393 195 l 393 377 q 399 382 394 382 m 203 184 l 377 184 q 382 179 382 184 l 382 5 q 377 0 382 0 l 203 0 q 198 5 198 0 l 198 179 q 203 184 199 184 z "},"?":{"ha":1183,"x_min":0,"x_max":977,"o":"m 5 974 l 179 974 q 184 968 184 973 l 184 795 q 179 789 184 789 l 5 789 q 0 795 0 789 l 0 968 q 5 974 1 974 m 201 974 l 377 974 q 382 968 382 973 l 382 795 q 377 789 382 789 l 201 789 q 195 795 195 789 l 195 968 q 201 974 196 974 m 399 974 l 575 974 q 581 968 581 973 l 581 795 q 575 789 581 789 l 399 789 q 393 795 393 789 l 393 968 q 399 974 394 974 m 597 974 l 770 974 q 776 968 776 973 l 776 795 q 770 789 776 789 l 597 789 q 591 795 591 789 l 591 968 q 597 974 592 974 m 795 974 l 971 974 q 977 968 977 973 l 977 795 q 971 789 977 789 l 795 789 q 789 795 789 789 l 789 968 q 795 974 790 974 m 5 779 l 179 779 q 184 773 184 778 l 184 597 q 179 591 184 591 l 5 591 q 0 597 0 591 l 0 773 q 5 779 1 779 m 795 779 l 971 779 q 977 773 977 778 l 977 597 q 971 591 977 591 l 795 591 q 789 597 789 591 l 789 773 q 795 779 790 779 m 5 581 l 179 581 q 184 575 184 580 l 184 399 q 179 393 184 393 l 5 393 q 0 399 0 393 l 0 575 q 5 581 1 581 m 399 581 l 575 581 q 581 575 581 580 l 581 399 q 575 393 581 393 l 399 393 q 393 399 393 393 l 393 575 q 399 581 394 581 m 795 581 l 971 581 q 977 575 977 580 l 977 399 q 971 393 977 393 l 795 393 q 789 399 789 393 l 789 575 q 795 581 790 581 m 5 382 l 179 382 q 184 377 184 382 l 184 201 q 179 195 184 195 l 5 195 q 0 201 0 195 l 0 377 q 5 382 1 382 m 795 382 l 971 382 q 977 377 977 382 l 977 201 q 971 195 977 195 l 795 195 q 789 201 789 195 l 789 377 q 795 382 790 382 m 5 184 l 179 184 q 184 179 184 184 l 184 5 q 179 0 184 0 l 5 0 q 0 5 0 0 l 0 179 q 5 184 1 184 m 201 184 l 377 184 q 382 179 382 184 l 382 5 q 377 0 382 0 l 201 0 q 195 5 195 0 l 195 179 q 201 184 196 184 m 399 184 l 575 184 q 581 179 581 184 l 581 5 q 575 0 581 0 l 399 0 q 393 5 393 0 l 393 179 q 399 184 394 184 m 597 184 l 770 184 q 776 179 776 184 l 776 5 q 770 0 776 0 l 597 0 q 591 5 591 0 l 591 179 q 597 184 592 184 m 795 184 l 971 184 q 977 179 977 184 l 977 5 q 971 0 977 0 l 795 0 q 789 5 789 0 l 789 179 q 795 184 790 184 z "},"@":{"ha":1183,"x_min":0,"x_max":977,"o":"m 5 974 l 179 974 q 184 968 184 973 l 184 795 q 179 789 184 789 l 5 789 q 0 795 0 789 l 0 968 q 5 974 1 974 m 201 974 l 377 974 q 382 968 382 973 l 382 795 q 377 789 382 789 l 201 789 q 195 795 195 789 l 195 968 q 201 974 196 974 m 399 974 l 575 974 q 581 968 581 973 l 581 795 q 575 789 581 789 l 399 789 q 393 795 393 789 l 393 968 q 399 974 394 974 m 597 974 l 770 974 q 776 968 776 973 l 776 795 q 770 789 776 789 l 597 789 q 591 795 591 789 l 591 968 q 597 974 592 974 m 795 974 l 971 974 q 977 968 977 973 l 977 795 q 971 789 977 789 l 795 789 q 789 795 789 789 l 789 968 q 795 974 790 974 m 5 779 l 179 779 q 184 773 184 778 l 184 597 q 179 591 184 591 l 5 591 q 0 597 0 591 l 0 773 q 5 779 1 779 m 795 779 l 971 779 q 977 773 977 778 l 977 597 q 971 591 977 591 l 795 591 q 789 597 789 591 l 789 773 q 795 779 790 779 m 5 581 l 179 581 q 184 575 184 580 l 184 399 q 179 393 184 393 l 5 393 q 0 399 0 393 l 0 575 q 5 581 1 581 m 399 581 l 575 581 q 581 575 581 580 l 581 399 q 575 393 581 393 l 399 393 q 393 399 393 393 l 393 575 q 399 581 394 581 m 795 581 l 971 581 q 977 575 977 580 l 977 399 q 971 393 977 393 l 795 393 q 789 399 789 393 l 789 575 q 795 581 790 581 m 5 382 l 179 382 q 184 377 184 382 l 184 201 q 179 195 184 195 l 5 195 q 0 201 0 195 l 0 377 q 5 382 1 382 m 795 382 l 971 382 q 977 377 977 382 l 977 201 q 971 195 977 195 l 795 195 q 789 201 789 195 l 789 377 q 795 382 790 382 m 5 184 l 179 184 q 184 179 184 184 l 184 5 q 179 0 184 0 l 5 0 q 0 5 0 0 l 0 179 q 5 184 1 184 m 201 184 l 377 184 q 382 179 382 184 l 382 5 q 377 0 382 0 l 201 0 q 195 5 195 0 l 195 179 q 201 184 196 184 m 399 184 l 575 184 q 581 179 581 184 l 581 5 q 575 0 581 0 l 399 0 q 393 5 393 0 l 393 179 q 399 184 394 184 m 597 184 l 770 184 q 776 179 776 184 l 776 5 q 770 0 776 0 l 597 0 q 591 5 591 0 l 591 179 q 597 184 592 184 m 795 184 l 971 184 q 977 179 977 184 l 977 5 q 971 0 977 0 l 795 0 q 789 5 789 0 l 789 179 q 795 184 790 184 z "},"A":{"ha":1183,"x_min":0,"x_max":974,"o":"m 168 974 l 179 974 q 184 968 184 973 l 184 795 q 179 789 184 789 l 5 789 q 0 795 0 789 l 0 806 q 100 955 0 892 q 168 974 139 974 m 203 974 l 377 974 q 382 968 382 973 l 382 795 q 377 789 382 789 l 203 789 q 198 795 198 789 l 198 968 q 203 974 199 974 m 399 974 l 575 974 q 581 968 581 973 l 581 795 q 575 789 581 789 l 399 789 q 393 795 393 789 l 393 968 q 399 974 394 974 m 597 974 l 773 974 q 779 968 779 973 l 779 795 q 773 789 779 789 l 597 789 q 591 795 591 789 l 591 968 q 597 974 592 974 m 795 974 l 806 974 q 955 873 892 974 q 974 806 974 835 l 974 795 q 968 789 974 789 l 795 789 q 789 795 789 789 l 789 968 q 795 974 790 974 m 5 779 l 179 779 q 184 773 184 778 l 184 597 q 179 591 184 591 l 5 591 q 0 597 0 591 l 0 773 q 5 779 1 779 m 795 779 l 968 779 q 974 773 974 778 l 974 597 q 968 591 974 591 l 795 591 q 789 597 789 591 l 789 773 q 795 779 790 779 m 5 581 l 179 581 q 184 575 184 580 l 184 399 q 179 393 184 393 l 5 393 q 0 399 0 393 l 0 575 q 5 581 1 581 m 795 581 l 968 581 q 974 575 974 580 l 974 399 q 968 393 974 393 l 795 393 q 789 399 789 393 l 789 575 q 795 581 790 581 m 5 382 l 179 382 q 184 377 184 382 l 184 201 q 179 195 184 195 l 5 195 q 0 201 0 195 l 0 377 q 5 382 1 382 m 203 382 l 377 382 q 382 377 382 382 l 382 201 q 377 195 382 195 l 203 195 q 198 201 198 195 l 198 377 q 203 382 199 382 m 399 382 l 575 382 q 581 377 581 382 l 581 201 q 575 195 581 195 l 399 195 q 393 201 393 195 l 393 377 q 399 382 394 382 m 597 382 l 773 382 q 779 377 779 382 l 779 201 q 773 195 779 195 l 597 195 q 591 201 591 195 l 591 377 q 597 382 592 382 m 795 382 l 968 382 q 974 377 974 382 l 974 201 q 968 195 974 195 l 795 195 q 789 201 789 195 l 789 377 q 795 382 790 382 m 5 184 l 179 184 q 184 179 184 184 l 184 5 q 179 0 184 0 l 5 0 q 0 5 0 0 l 0 179 q 5 184 1 184 m 795 184 l 968 184 q 974 179 974 184 l 974 5 q 968 0 974 0 l 795 0 q 789 5 789 0 l 789 179 q 795 184 790 184 z "},"B":{"ha":1183,"x_min":0,"x_max":974,"o":"m 5 974 l 179 974 q 184 968 184 973 l 184 795 q 179 789 184 789 l 5 789 q 0 795 0 789 l 0 968 q 5 974 1 974 m 203 974 l 377 974 q 382 968 382 973 l 382 795 q 377 789 382 789 l 203 789 q 198 795 198 789 l 198 968 q 203 974 199 974 m 399 974 l 575 974 q 581 968 581 973 l 581 795 q 575 789 581 789 l 399 789 q 393 795 393 789 l 393 968 q 399 974 394 974 m 597 974 l 773 974 q 779 968 779 973 l 779 795 q 773 789 779 789 l 597 789 q 591 795 591 789 l 591 968 q 597 974 592 974 m 795 974 l 806 974 q 960 863 899 974 q 974 800 974 829 l 974 795 q 968 789 974 789 l 795 789 q 789 795 789 789 l 789 968 q 795 974 790 974 m 5 779 l 179 779 q 184 773 184 778 l 184 597 q 179 591 184 591 l 5 591 q 0 597 0 591 l 0 773 q 5 779 1 779 m 795 779 l 968 779 q 974 773 974 778 l 974 597 q 968 591 974 591 l 795 591 q 789 597 789 591 l 789 773 q 795 779 790 779 m 5 581 l 179 581 q 184 575 184 580 l 184 399 q 179 393 184 393 l 5 393 q 0 399 0 393 l 0 575 q 5 581 1 581 m 203 581 l 377 581 q 382 575 382 580 l 382 399 q 377 393 382 393 l 203 393 q 198 399 198 393 l 198 575 q 203 581 199 581 m 399 581 l 575 581 q 581 575 581 580 l 581 399 q 575 393 581 393 l 399 393 q 393 399 393 393 l 393 575 q 399 581 394 581 m 597 581 l 770 581 q 776 575 776 580 l 776 399 q 770 393 776 393 l 597 393 q 591 399 591 393 l 591 575 q 597 581 592 581 m 795 581 l 968 581 q 974 575 974 580 q 917 486 958 527 q 974 396 966 437 l 968 393 l 795 393 q 789 399 789 393 l 789 575 q 795 581 790 581 m 5 382 l 179 382 q 184 377 184 382 l 184 201 q 179 195 184 195 l 5 195 q 0 201 0 195 l 0 377 q 5 382 1 382 m 795 382 l 968 382 q 974 377 974 382 l 974 201 q 968 195 974 195 l 795 195 q 789 201 789 195 l 789 377 q 795 382 790 382 m 5 184 l 179 184 q 184 179 184 184 l 184 5 q 179 0 184 0 l 5 0 q 0 5 0 0 l 0 179 q 5 184 1 184 m 203 184 l 377 184 q 382 179 382 184 l 382 5 q 377 0 382 0 l 203 0 q 198 5 198 0 l 198 179 q 203 184 199 184 m 399 184 l 575 184 q 581 179 581 184 l 581 5 q 575 0 581 0 l 399 0 q 393 5 393 0 l 393 179 q 399 184 394 184 m 597 184 l 773 184 q 779 179 779 184 l 779 5 q 773 0 779 0 l 597 0 q 591 5 591 0 l 591 179 q 597 184 592 184 m 795 184 l 968 184 q 974 179 974 184 l 974 174 q 873 19 974 79 q 806 0 835 0 l 795 0 q 789 5 789 0 l 789 179 q 795 184 790 184 z "},"C":{"ha":1183,"x_min":0,"x_max":974,"o":"m 168 974 l 179 974 q 184 968 184 973 l 184 795 q 179 789 184 789 l 5 789 q 0 795 0 789 l 0 806 q 100 955 0 892 q 168 974 139 974 m 201 974 l 377 974 q 382 968 382 973 l 382 795 q 377 789 382 789 l 201 789 q 195 795 195 789 l 195 968 q 201 974 196 974 m 399 974 l 575 974 q 581 968 581 973 l 581 795 q 575 789 581 789 l 399 789 q 393 795 393 789 l 393 968 q 399 974 394 974 m 597 974 l 770 974 q 776 968 776 973 l 776 795 q 770 789 776 789 l 597 789 q 591 795 591 789 l 591 968 q 597 974 592 974 m 795 974 l 806 974 q 955 873 892 974 q 974 806 974 835 l 974 795 q 968 789 974 789 l 795 789 q 789 795 789 789 l 789 968 q 795 974 790 974 m 5 779 l 179 779 q 184 773 184 778 l 184 597 q 179 591 184 591 l 5 591 q 0 597 0 591 l 0 773 q 5 779 1 779 m 795 779 l 968 779 q 974 773 974 778 l 974 689 q 968 684 974 684 l 795 684 q 789 689 789 684 l 789 773 q 795 779 790 779 m 5 581 l 179 581 q 184 575 184 580 l 184 399 q 179 393 184 393 l 5 393 q 0 399 0 393 l 0 575 q 5 581 1 581 m 5 382 l 179 382 q 184 377 184 382 l 184 201 q 179 195 184 195 l 5 195 q 0 201 0 195 l 0 377 q 5 382 1 382 m 795 290 l 968 290 q 974 285 974 290 l 974 201 q 968 195 974 195 l 795 195 q 789 201 789 195 l 789 285 q 795 290 790 290 m 5 184 l 179 184 q 184 179 184 184 l 184 5 q 179 0 184 0 l 168 0 q 19 100 81 0 q 0 168 0 139 l 0 179 q 5 184 1 184 m 201 184 l 377 184 q 382 179 382 184 l 382 5 q 377 0 382 0 l 201 0 q 195 5 195 0 l 195 179 q 201 184 196 184 m 399 184 l 575 184 q 581 179 581 184 l 581 5 q 575 0 581 0 l 399 0 q 393 5 393 0 l 393 179 q 399 184 394 184 m 597 184 l 770 184 q 776 179 776 184 l 776 5 q 770 0 776 0 l 597 0 q 591 5 591 0 l 591 179 q 597 184 592 184 m 795 184 l 968 184 q 974 179 974 184 l 974 168 q 873 19 974 81 q 806 0 835 0 l 795 0 q 789 5 789 0 l 789 179 q 795 184 790 184 z "},"D":{"ha":1183,"x_min":0,"x_max":974,"o":"m 5 974 l 179 974 q 184 968 184 973 l 184 795 q 179 789 184 789 l 5 789 q 0 795 0 789 l 0 968 q 5 974 1 974 m 203 974 l 377 974 q 382 968 382 973 l 382 795 q 377 789 382 789 l 203 789 q 198 795 198 789 l 198 968 q 203 974 199 974 m 399 974 l 575 974 q 581 968 581 973 l 581 795 q 575 789 581 789 l 399 789 q 393 795 393 789 l 393 968 q 399 974 394 974 m 597 974 l 773 974 q 779 968 779 973 l 779 795 q 773 789 779 789 l 597 789 q 591 795 591 789 l 591 968 q 597 974 592 974 m 795 974 l 806 974 q 960 863 899 974 q 974 800 974 829 l 974 795 q 968 789 974 789 l 795 789 q 789 795 789 789 l 789 968 q 795 974 790 974 m 5 779 l 179 779 q 184 773 184 778 l 184 597 q 179 591 184 591 l 5 591 q 0 597 0 591 l 0 773 q 5 779 1 779 m 795 779 l 968 779 q 974 773 974 778 l 974 597 q 968 591 974 591 l 795 591 q 789 597 789 591 l 789 773 q 795 779 790 779 m 5 581 l 179 581 q 184 575 184 580 l 184 399 q 179 393 184 393 l 5 393 q 0 399 0 393 l 0 575 q 5 581 1 581 m 795 581 l 968 581 q 974 575 974 580 l 974 399 q 968 393 974 393 l 795 393 q 789 399 789 393 l 789 575 q 795 581 790 581 m 5 382 l 179 382 q 184 377 184 382 l 184 201 q 179 195 184 195 l 5 195 q 0 201 0 195 l 0 377 q 5 382 1 382 m 795 382 l 968 382 q 974 377 974 382 l 974 201 q 968 195 974 195 l 795 195 q 789 201 789 195 l 789 377 q 795 382 790 382 m 5 184 l 179 184 q 184 179 184 184 l 184 5 q 179 0 184 0 l 5 0 q 0 5 0 0 l 0 179 q 5 184 1 184 m 203 184 l 377 184 q 382 179 382 184 l 382 5 q 377 0 382 0 l 203 0 q 198 5 198 0 l 198 179 q 203 184 199 184 m 399 184 l 575 184 q 581 179 581 184 l 581 5 q 575 0 581 0 l 399 0 q 393 5 393 0 l 393 179 q 399 184 394 184 m 597 184 l 773 184 q 779 179 779 184 l 779 5 q 773 0 779 0 l 597 0 q 591 5 591 0 l 591 179 q 597 184 592 184 m 795 184 l 968 184 q 974 179 974 184 l 974 174 q 873 19 974 79 q 806 0 835 0 l 795 0 q 789 5 789 0 l 789 179 q 795 184 790 184 z "},"E":{"ha":1183,"x_min":0,"x_max":977,"o":"m 795 974 l 971 974 q 977 968 977 973 l 977 795 q 971 789 977 789 l 795 789 q 789 795 789 789 l 789 968 q 795 974 790 974 m 795 184 l 971 184 q 977 179 977 184 l 977 5 q 971 0 977 0 l 795 0 q 789 5 789 0 l 789 179 q 795 184 790 184 m 5 974 l 179 974 q 184 968 184 973 l 184 795 q 179 789 184 789 l 5 789 q 0 795 0 789 l 0 968 q 5 974 1 974 m 201 974 l 377 974 q 382 968 382 973 l 382 795 q 377 789 382 789 l 201 789 q 195 795 195 789 l 195 968 q 201 974 196 974 m 399 974 l 575 974 q 581 968 581 973 l 581 795 q 575 789 581 789 l 399 789 q 393 795 393 789 l 393 968 q 399 974 394 974 m 597 974 l 770 974 q 776 968 776 973 l 776 795 q 770 789 776 789 l 597 789 q 591 795 591 789 l 591 968 q 597 974 592 974 m 5 779 l 179 779 q 184 773 184 778 l 184 597 q 179 591 184 591 l 5 591 q 0 597 0 591 l 0 773 q 5 779 1 779 m 5 581 l 179 581 q 184 575 184 580 l 184 399 q 179 393 184 393 l 5 393 q 0 399 0 393 l 0 575 q 5 581 1 581 m 201 581 l 377 581 q 382 575 382 580 l 382 399 q 377 393 382 393 l 201 393 q 195 399 195 393 l 195 575 q 201 581 196 581 m 399 581 l 575 581 q 581 575 581 580 l 581 399 q 575 393 581 393 l 399 393 q 393 399 393 393 l 393 575 q 399 581 394 581 m 597 581 l 770 581 q 776 575 776 580 l 776 399 q 770 393 776 393 l 597 393 q 591 399 591 393 l 591 575 q 597 581 592 581 m 5 382 l 179 382 q 184 377 184 382 l 184 201 q 179 195 184 195 l 5 195 q 0 201 0 195 l 0 377 q 5 382 1 382 m 5 184 l 179 184 q 184 179 184 184 l 184 5 q 179 0 184 0 l 5 0 q 0 5 0 0 l 0 179 q 5 184 1 184 m 201 184 l 377 184 q 382 179 382 184 l 382 5 q 377 0 382 0 l 201 0 q 195 5 195 0 l 195 179 q 201 184 196 184 m 399 184 l 575 184 q 581 179 581 184 l 581 5 q 575 0 581 0 l 399 0 q 393 5 393 0 l 393 179 q 399 184 394 184 m 597 184 l 770 184 q 776 179 776 184 l 776 5 q 770 0 776 0 l 597 0 q 591 5 591 0 l 591 179 q 597 184 592 184 z "},"F":{"ha":1183,"x_min":0,"x_max":974,"o":"m 5 974 l 179 974 q 184 968 184 973 l 184 795 q 179 789 184 789 l 5 789 q 0 795 0 789 l 0 968 q 5 974 1 974 m 201 974 l 377 974 q 382 968 382 973 l 382 795 q 377 789 382 789 l 201 789 q 195 795 195 789 l 195 968 q 201 974 196 974 m 399 974 l 575 974 q 581 968 581 973 l 581 795 q 575 789 581 789 l 399 789 q 393 795 393 789 l 393 968 q 399 974 394 974 m 597 974 l 770 974 q 776 968 776 973 l 776 795 q 770 789 776 789 l 597 789 q 591 795 591 789 l 591 968 q 597 974 592 974 m 795 974 l 968 974 q 974 968 974 973 l 974 795 q 968 789 974 789 l 795 789 q 789 795 789 789 l 789 968 q 795 974 790 974 m 5 779 l 179 779 q 184 773 184 778 l 184 597 q 179 591 184 591 l 5 591 q 0 597 0 591 l 0 773 q 5 779 1 779 m 5 581 l 179 581 q 184 575 184 580 l 184 399 q 179 393 184 393 l 5 393 q 0 399 0 393 l 0 575 q 5 581 1 581 m 201 581 l 377 581 q 382 575 382 580 l 382 399 q 377 393 382 393 l 201 393 q 195 399 195 393 l 195 575 q 201 581 196 581 m 399 581 l 575 581 q 581 575 581 580 l 581 399 q 575 393 581 393 l 399 393 q 393 399 393 393 l 393 575 q 399 581 394 581 m 597 581 l 770 581 q 776 575 776 580 l 776 399 q 770 393 776 393 l 597 393 q 591 399 591 393 l 591 575 q 597 581 592 581 m 5 382 l 179 382 q 184 377 184 382 l 184 201 q 179 195 184 195 l 5 195 q 0 201 0 195 l 0 377 q 5 382 1 382 m 5 184 l 179 184 q 184 179 184 184 l 184 5 q 179 0 184 0 l 5 0 q 0 5 0 0 l 0 179 q 5 184 1 184 z "},"G":{"ha":1183,"x_min":0,"x_max":974,"o":"m 168 974 l 179 974 q 184 968 184 973 l 184 795 q 179 789 184 789 l 5 789 q 0 795 0 789 l 0 800 q 100 955 0 895 q 168 974 139 974 m 201 974 l 377 974 q 382 968 382 973 l 382 795 q 377 789 382 789 l 201 789 q 195 795 195 789 l 195 968 q 201 974 196 974 m 399 974 l 575 974 q 581 968 581 973 l 581 795 q 575 789 581 789 l 399 789 q 393 795 393 789 l 393 968 q 399 974 394 974 m 597 974 l 770 974 q 776 968 776 973 l 776 795 q 770 789 776 789 l 597 789 q 591 795 591 789 l 591 968 q 597 974 592 974 m 795 974 l 806 974 q 955 873 892 974 q 974 806 974 835 l 974 795 q 968 789 974 789 l 795 789 q 789 795 789 789 l 789 968 q 795 974 790 974 m 5 779 l 179 779 q 184 773 184 778 l 184 597 q 179 591 184 591 l 5 591 q 0 597 0 591 l 0 773 q 5 779 1 779 m 795 779 l 968 779 q 974 773 974 778 l 974 689 q 968 684 974 684 l 795 684 q 789 689 789 684 l 789 773 q 795 779 790 779 m 5 581 l 179 581 q 184 575 184 580 l 184 399 q 179 393 184 393 l 5 393 q 0 399 0 393 l 0 575 q 5 581 1 581 m 399 581 l 575 581 q 581 575 581 580 l 581 399 q 575 393 581 393 l 399 393 q 393 399 393 393 l 393 575 q 399 581 394 581 m 597 581 l 770 581 q 776 575 776 580 l 776 399 q 770 393 776 393 l 597 393 q 591 399 591 393 l 591 575 q 597 581 592 581 m 795 581 l 968 581 q 974 575 974 580 l 974 399 q 968 393 974 393 l 795 393 q 789 399 789 393 l 789 575 q 795 581 790 581 m 5 382 l 179 382 q 184 377 184 382 l 184 201 q 179 195 184 195 l 5 195 q 0 201 0 195 l 0 377 q 5 382 1 382 m 795 382 l 968 382 q 974 377 974 382 l 974 201 q 968 195 974 195 l 795 195 q 789 201 789 195 l 789 377 q 795 382 790 382 m 5 184 l 179 184 q 184 179 184 184 l 184 5 q 179 0 184 0 l 168 0 q 14 111 75 0 q 0 174 0 144 l 0 179 q 5 184 1 184 m 201 184 l 377 184 q 382 179 382 184 l 382 5 q 377 0 382 0 l 201 0 q 195 5 195 0 l 195 179 q 201 184 196 184 m 399 184 l 575 184 q 581 179 581 184 l 581 5 q 575 0 581 0 l 399 0 q 393 5 393 0 l 393 179 q 399 184 394 184 m 597 184 l 770 184 q 776 179 776 184 l 776 5 q 770 0 776 0 l 597 0 q 591 5 591 0 l 591 179 q 597 184 592 184 m 795 184 l 968 184 q 974 179 974 184 l 974 168 q 873 19 974 81 q 806 0 835 0 l 795 0 q 789 5 789 0 l 789 179 q 795 184 790 184 z "},"H":{"ha":1183,"x_min":0,"x_max":977,"o":"m 5 974 l 179 974 q 184 968 184 973 l 184 795 q 179 789 184 789 l 5 789 q 0 795 0 789 l 0 968 q 5 974 1 974 m 795 974 l 971 974 q 977 968 977 973 l 977 795 q 971 789 977 789 l 795 789 q 789 795 789 789 l 789 968 q 795 974 790 974 m 5 779 l 179 779 q 184 773 184 778 l 184 597 q 179 591 184 591 l 5 591 q 0 597 0 591 l 0 773 q 5 779 1 779 m 795 779 l 971 779 q 977 773 977 778 l 977 597 q 971 591 977 591 l 795 591 q 789 597 789 591 l 789 773 q 795 779 790 779 m 5 581 l 179 581 q 184 575 184 580 l 184 399 q 179 393 184 393 l 5 393 q 0 399 0 393 l 0 575 q 5 581 1 581 m 399 581 l 575 581 q 581 575 581 580 l 581 399 q 575 393 581 393 l 399 393 q 393 399 393 393 l 393 575 q 399 581 394 581 m 795 581 l 971 581 q 977 575 977 580 l 977 399 q 971 393 977 393 l 795 393 q 789 399 789 393 l 789 575 q 795 581 790 581 m 5 382 l 179 382 q 184 377 184 382 l 184 201 q 179 195 184 195 l 5 195 q 0 201 0 195 l 0 377 q 5 382 1 382 m 795 382 l 971 382 q 977 377 977 382 l 977 201 q 971 195 977 195 l 795 195 q 789 201 789 195 l 789 377 q 795 382 790 382 m 5 184 l 179 184 q 184 179 184 184 l 184 5 q 179 0 184 0 l 5 0 q 0 5 0 0 l 0 179 q 5 184 1 184 m 795 184 l 971 184 q 977 179 977 184 l 977 5 q 971 0 977 0 l 795 0 q 789 5 789 0 l 789 179 q 795 184 790 184 m 5 974 l 179 974 q 184 968 184 973 l 184 795 q 179 789 184 789 l 5 789 q 0 795 0 789 l 0 968 q 5 974 1 974 m 795 974 l 968 974 q 974 968 974 973 l 974 795 q 968 789 974 789 l 795 789 q 789 795 789 789 l 789 968 q 795 974 790 974 m 5 779 l 179 779 q 184 773 184 778 l 184 597 q 179 591 184 591 l 5 591 q 0 597 0 591 l 0 773 q 5 779 1 779 m 795 779 l 968 779 q 974 773 974 778 l 974 597 q 968 591 974 591 l 795 591 q 789 597 789 591 l 789 773 q 795 779 790 779 m 5 581 l 179 581 q 184 575 184 580 l 184 399 q 179 393 184 393 l 5 393 q 0 399 0 393 l 0 575 q 5 581 1 581 m 201 581 l 377 581 q 382 575 382 580 l 382 399 q 377 393 382 393 l 201 393 q 195 399 195 393 l 195 575 q 201 581 196 581 m 399 581 l 575 581 q 581 575 581 580 l 581 399 q 575 393 581 393 l 399 393 q 393 399 393 393 l 393 575 q 399 581 394 581 m 597 581 l 770 581 q 776 575 776 580 l 776 399 q 770 393 776 393 l 597 393 q 591 399 591 393 l 591 575 q 597 581 592 581 m 795 581 l 968 581 q 974 575 974 580 l 974 399 q 968 393 974 393 l 795 393 q 789 399 789 393 l 789 575 q 795 581 790 581 m 5 382 l 179 382 q 184 377 184 382 l 184 201 q 179 195 184 195 l 5 195 q 0 201 0 195 l 0 377 q 5 382 1 382 m 795 382 l 968 382 q 974 377 974 382 l 974 201 q 968 195 974 195 l 795 195 q 789 201 789 195 l 789 377 q 795 382 790 382 m 5 184 l 179 184 q 184 179 184 184 l 184 5 q 179 0 184 0 l 5 0 q 0 5 0 0 l 0 179 q 5 184 1 184 m 795 184 l 968 184 q 974 179 974 184 l 974 5 q 968 0 974 0 l 795 0 q 789 5 789 0 l 789 179 q 795 184 790 184 z "},"I":{"ha":1183,"x_min":0,"x_max":974,"o":"m 5 974 l 179 974 q 184 968 184 973 l 184 795 q 179 789 184 789 l 5 789 q 0 795 0 789 l 0 968 q 5 974 1 974 m 201 974 l 377 974 q 382 968 382 973 l 382 795 q 377 789 382 789 l 201 789 q 195 795 195 789 l 195 968 q 201 974 196 974 m 399 974 l 575 974 q 581 968 581 973 l 581 795 q 575 789 581 789 l 399 789 q 393 795 393 789 l 393 968 q 399 974 394 974 m 597 974 l 770 974 q 776 968 776 973 l 776 795 q 770 789 776 789 l 597 789 q 591 795 591 789 l 591 968 q 597 974 592 974 m 795 974 l 968 974 q 974 968 974 973 l 974 795 q 968 789 974 789 l 795 789 q 789 795 789 789 l 789 968 q 795 974 790 974 m 399 779 l 575 779 q 581 773 581 778 l 581 597 q 575 591 581 591 l 399 591 q 393 597 393 591 l 393 773 q 399 779 394 779 m 399 581 l 575 581 q 581 575 581 580 l 581 399 q 575 393 581 393 l 399 393 q 393 399 393 393 l 393 575 q 399 581 394 581 m 399 382 l 575 382 q 581 377 581 382 l 581 201 q 575 195 581 195 l 399 195 q 393 201 393 195 l 393 377 q 399 382 394 382 m 5 184 l 179 184 q 184 179 184 184 l 184 5 q 179 0 184 0 l 5 0 q 0 5 0 0 l 0 179 q 5 184 1 184 m 201 184 l 377 184 q 382 179 382 184 l 382 5 q 377 0 382 0 l 201 0 q 195 5 195 0 l 195 179 q 201 184 196 184 m 399 184 l 575 184 q 581 179 581 184 l 581 5 q 575 0 581 0 l 399 0 q 393 5 393 0 l 393 179 q 399 184 394 184 m 597 184 l 770 184 q 776 179 776 184 l 776 5 q 770 0 776 0 l 597 0 q 591 5 591 0 l 591 179 q 597 184 592 184 m 795 184 l 968 184 q 974 179 974 184 l 974 5 q 968 0 974 0 l 795 0 q 789 5 789 0 l 789 179 q 795 184 790 184 z "},"J":{"ha":1183,"x_min":0,"x_max":974,"o":"m 795 974 l 968 974 q 974 968 974 973 l 974 795 q 968 789 974 789 l 795 789 q 789 795 789 789 l 789 968 q 795 974 790 974 m 795 779 l 968 779 q 974 773 974 778 l 974 597 q 968 591 974 591 l 795 591 q 789 597 789 591 l 789 773 q 795 779 790 779 m 795 581 l 968 581 q 974 575 974 580 l 974 399 q 968 393 974 393 l 795 393 q 789 399 789 393 l 789 575 q 795 581 790 581 m 5 382 l 179 382 q 184 377 184 382 l 184 201 q 179 195 184 195 l 5 195 q 0 201 0 195 l 0 377 q 5 382 1 382 m 795 382 l 968 382 q 974 377 974 382 l 974 201 q 968 195 974 195 l 795 195 q 789 201 789 195 l 789 377 q 795 382 790 382 m 5 184 l 179 184 q 184 179 184 184 l 184 5 q 179 0 184 0 l 168 0 q 19 100 81 0 q 0 168 0 139 l 0 179 q 5 184 1 184 m 201 184 l 377 184 q 382 179 382 184 l 382 5 q 377 0 382 0 l 201 0 q 195 5 195 0 l 195 179 q 201 184 196 184 m 399 184 l 575 184 q 581 179 581 184 l 581 5 q 575 0 581 0 l 399 0 q 393 5 393 0 l 393 179 q 399 184 394 184 m 597 184 l 770 184 q 776 179 776 184 l 776 5 q 770 0 776 0 l 597 0 q 591 5 591 0 l 591 179 q 597 184 592 184 m 795 184 l 968 184 q 974 179 974 184 l 974 168 q 873 19 974 81 q 806 0 835 0 l 795 0 q 789 5 789 0 l 789 179 q 795 184 790 184 z "},"K":{"ha":1183,"x_min":0,"x_max":974,"o":"m 5 974 l 179 974 q 184 968 184 973 l 184 795 q 179 789 184 789 l 5 789 q 0 795 0 789 l 0 968 q 5 974 1 974 m 795 974 l 968 974 q 974 968 974 973 l 974 795 q 968 789 974 789 l 795 789 q 789 795 789 789 l 789 968 q 795 974 790 974 m 5 779 l 179 779 q 184 773 184 778 l 184 597 q 179 591 184 591 l 5 591 q 0 597 0 591 l 0 773 q 5 779 1 779 m 795 779 l 968 779 q 974 773 974 778 l 974 597 q 968 591 974 591 l 795 591 q 789 597 789 591 l 789 773 q 795 779 790 779 m 5 581 l 179 581 q 184 575 184 580 l 184 399 q 179 393 184 393 l 5 393 q 0 399 0 393 l 0 575 q 5 581 1 581 m 203 581 l 377 581 q 382 575 382 580 l 382 399 q 377 393 382 393 l 203 393 q 198 399 198 393 l 198 575 q 203 581 199 581 m 399 581 l 575 581 q 581 575 581 580 l 581 399 q 575 393 581 393 l 399 393 q 393 399 393 393 l 393 575 q 399 581 394 581 m 597 581 l 770 581 q 776 575 776 580 l 776 399 q 770 393 776 393 l 597 393 q 591 399 591 393 l 591 575 q 597 581 592 581 m 795 581 l 968 581 q 974 575 974 580 q 917 486 958 527 q 974 396 966 437 l 968 393 l 795 393 q 789 399 789 393 l 789 575 q 795 581 790 581 m 5 382 l 179 382 q 184 377 184 382 l 184 201 q 179 195 184 195 l 5 195 q 0 201 0 195 l 0 377 q 5 382 1 382 m 795 382 l 968 382 q 974 377 974 382 l 974 201 q 968 195 974 195 l 795 195 q 789 201 789 195 l 789 377 q 795 382 790 382 m 5 184 l 179 184 q 184 179 184 184 l 184 5 q 179 0 184 0 l 5 0 q 0 5 0 0 l 0 179 q 5 184 1 184 m 795 184 l 968 184 q 974 179 974 184 l 974 5 q 968 0 974 0 l 795 0 q 789 5 789 0 l 789 179 q 795 184 790 184 z "},"L":{"ha":1183,"x_min":0,"x_max":974,"o":"m 5 974 l 179 974 q 184 968 184 973 l 184 795 q 179 789 184 789 l 5 789 q 0 795 0 789 l 0 968 q 5 974 1 974 m 5 779 l 179 779 q 184 773 184 778 l 184 597 q 179 591 184 591 l 5 591 q 0 597 0 591 l 0 773 q 5 779 1 779 m 5 581 l 179 581 q 184 575 184 580 l 184 399 q 179 393 184 393 l 5 393 q 0 399 0 393 l 0 575 q 5 581 1 581 m 5 382 l 179 382 q 184 377 184 382 l 184 201 q 179 195 184 195 l 5 195 q 0 201 0 195 l 0 377 q 5 382 1 382 m 5 184 l 179 184 q 184 179 184 184 l 184 5 q 179 0 184 0 l 5 0 q 0 5 0 0 l 0 179 q 5 184 1 184 m 201 184 l 377 184 q 382 179 382 184 l 382 5 q 377 0 382 0 l 201 0 q 195 5 195 0 l 195 179 q 201 184 196 184 m 399 184 l 575 184 q 581 179 581 184 l 581 5 q 575 0 581 0 l 399 0 q 393 5 393 0 l 393 179 q 399 184 394 184 m 597 184 l 770 184 q 776 179 776 184 l 776 5 q 770 0 776 0 l 597 0 q 591 5 591 0 l 591 179 q 597 184 592 184 m 795 184 l 968 184 q 974 179 974 184 l 974 5 q 968 0 974 0 l 795 0 q 789 5 789 0 l 789 179 q 795 184 790 184 z "},"M":{"ha":1183,"x_min":0,"x_max":974,"o":"m 5 974 l 179 974 q 184 968 184 973 l 184 795 q 179 789 184 789 l 5 789 q 0 795 0 789 l 0 968 q 5 974 1 974 m 203 974 l 377 974 q 382 968 382 973 l 382 795 q 377 789 382 789 l 203 789 q 198 795 198 789 l 198 968 q 203 974 199 974 m 399 974 q 488 917 444 961 q 578 974 543 974 l 581 968 l 581 795 q 575 789 581 789 l 399 789 q 393 795 393 789 l 393 968 q 399 974 394 974 m 597 974 l 773 974 q 779 968 779 973 l 779 795 q 773 789 779 789 l 597 789 q 591 795 591 789 l 591 968 q 597 974 592 974 m 795 974 l 968 974 q 974 968 974 973 l 974 795 q 968 789 974 789 l 795 789 q 789 795 789 789 l 789 968 q 795 974 790 974 m 5 779 l 179 779 q 184 773 184 778 l 184 597 q 179 591 184 591 l 5 591 q 0 597 0 591 l 0 773 q 5 779 1 779 m 399 779 l 575 779 q 581 773 581 778 l 581 597 q 575 591 581 591 l 399 591 q 393 597 393 591 l 393 773 q 399 779 394 779 m 795 779 l 968 779 q 974 773 974 778 l 974 597 q 968 591 974 591 l 795 591 q 789 597 789 591 l 789 773 q 795 779 790 779 m 5 581 l 179 581 q 184 575 184 580 l 184 399 q 179 393 184 393 l 5 393 q 0 399 0 393 l 0 575 q 5 581 1 581 m 399 581 l 575 581 q 581 575 581 580 l 581 399 q 575 393 581 393 l 399 393 q 393 399 393 393 l 393 575 q 399 581 394 581 m 795 581 l 968 581 q 974 575 974 580 l 974 399 q 968 393 974 393 l 795 393 q 789 399 789 393 l 789 575 q 795 581 790 581 m 5 382 l 179 382 q 184 377 184 382 l 184 201 q 179 195 184 195 l 5 195 q 0 201 0 195 l 0 377 q 5 382 1 382 m 399 382 l 575 382 q 581 377 581 382 l 581 201 q 575 195 581 195 l 399 195 q 393 201 393 195 l 393 377 q 399 382 394 382 m 795 382 l 968 382 q 974 377 974 382 l 974 201 q 968 195 974 195 l 795 195 q 789 201 789 195 l 789 377 q 795 382 790 382 m 5 184 l 179 184 q 184 179 184 184 l 184 5 q 179 0 184 0 l 5 0 q 0 5 0 0 l 0 179 q 5 184 1 184 m 399 184 l 575 184 q 581 179 581 184 l 581 5 q 575 0 581 0 l 399 0 q 393 5 393 0 l 393 179 q 399 184 394 184 m 795 184 l 968 184 q 974 179 974 184 l 974 5 q 968 0 974 0 l 795 0 q 789 5 789 0 l 789 179 q 795 184 790 184 z "},"N":{"ha":1183,"x_min":0,"x_max":974,"o":"m 5 974 l 179 974 q 184 968 184 973 l 184 795 q 179 789 184 789 l 5 789 q 0 795 0 789 l 0 968 q 5 974 1 974 m 795 974 l 968 974 q 974 968 974 973 l 974 795 q 968 789 974 789 l 795 789 q 789 795 789 789 l 789 968 q 795 974 790 974 m 5 779 l 179 779 q 184 773 184 778 l 184 597 q 179 591 184 591 l 5 591 q 0 597 0 591 l 0 773 q 5 779 1 779 m 201 779 l 377 779 q 382 773 382 778 l 382 597 q 377 591 382 591 l 201 591 q 195 597 195 591 l 195 773 q 201 779 196 779 m 795 779 l 968 779 q 974 773 974 778 l 974 597 q 968 591 974 591 l 795 591 q 789 597 789 591 l 789 773 q 795 779 790 779 m 5 581 l 179 581 q 184 575 184 580 l 184 399 q 179 393 184 393 l 5 393 q 0 399 0 393 l 0 575 q 5 581 1 581 m 399 581 l 575 581 q 581 575 581 580 l 581 399 q 575 393 581 393 l 399 393 q 393 399 393 393 l 393 575 q 399 581 394 581 m 795 581 l 968 581 q 974 575 974 580 l 974 399 q 968 393 974 393 l 795 393 q 789 399 789 393 l 789 575 q 795 581 790 581 m 5 382 l 179 382 q 184 377 184 382 l 184 201 q 179 195 184 195 l 5 195 q 0 201 0 195 l 0 377 q 5 382 1 382 m 597 382 l 770 382 q 776 377 776 382 l 776 201 q 770 195 776 195 l 597 195 q 591 201 591 195 l 591 377 q 597 382 592 382 m 795 382 l 968 382 q 974 377 974 382 l 974 201 q 968 195 974 195 l 795 195 q 789 201 789 195 l 789 377 q 795 382 790 382 m 5 184 l 179 184 q 184 179 184 184 l 184 5 q 179 0 184 0 l 5 0 q 0 5 0 0 l 0 179 q 5 184 1 184 m 795 184 l 968 184 q 974 179 974 184 l 974 5 q 968 0 974 0 l 795 0 q 789 5 789 0 l 789 179 q 795 184 790 184 z "},"O":{"ha":1183,"x_min":0,"x_max":974,"o":"m 168 974 l 179 974 q 184 968 184 973 l 184 795 q 179 789 184 789 l 5 789 q 0 795 0 789 l 0 806 q 100 955 0 892 q 168 974 139 974 m 201 974 l 377 974 q 382 968 382 973 l 382 795 q 377 789 382 789 l 201 789 q 195 795 195 789 l 195 968 q 201 974 196 974 m 399 974 l 575 974 q 581 968 581 973 l 581 795 q 575 789 581 789 l 399 789 q 393 795 393 789 l 393 968 q 399 974 394 974 m 597 974 l 770 974 q 776 968 776 973 l 776 795 q 770 789 776 789 l 597 789 q 591 795 591 789 l 591 968 q 597 974 592 974 m 795 974 l 806 974 q 955 873 892 974 q 974 806 974 835 l 974 795 q 968 789 974 789 l 795 789 q 789 795 789 789 l 789 968 q 795 974 790 974 m 5 779 l 179 779 q 184 773 184 778 l 184 597 q 179 591 184 591 l 5 591 q 0 597 0 591 l 0 773 q 5 779 1 779 m 795 779 l 968 779 q 974 773 974 778 l 974 597 q 968 591 974 591 l 795 591 q 789 597 789 591 l 789 773 q 795 779 790 779 m 5 581 l 179 581 q 184 575 184 580 l 184 399 q 179 393 184 393 l 5 393 q 0 399 0 393 l 0 575 q 5 581 1 581 m 795 581 l 968 581 q 974 575 974 580 l 974 399 q 968 393 974 393 l 795 393 q 789 399 789 393 l 789 575 q 795 581 790 581 m 5 382 l 179 382 q 184 377 184 382 l 184 201 q 179 195 184 195 l 5 195 q 0 201 0 195 l 0 377 q 5 382 1 382 m 795 382 l 968 382 q 974 377 974 382 l 974 201 q 968 195 974 195 l 795 195 q 789 201 789 195 l 789 377 q 795 382 790 382 m 5 184 l 179 184 q 184 179 184 184 l 184 5 q 179 0 184 0 l 168 0 q 19 100 81 0 q 0 168 0 139 l 0 179 q 5 184 1 184 m 201 184 l 377 184 q 382 179 382 184 l 382 5 q 377 0 382 0 l 201 0 q 195 5 195 0 l 195 179 q 201 184 196 184 m 399 184 l 575 184 q 581 179 581 184 l 581 5 q 575 0 581 0 l 399 0 q 393 5 393 0 l 393 179 q 399 184 394 184 m 597 184 l 770 184 q 776 179 776 184 l 776 5 q 770 0 776 0 l 597 0 q 591 5 591 0 l 591 179 q 597 184 592 184 m 795 184 l 968 184 q 974 179 974 184 l 974 168 q 873 19 974 81 q 806 0 835 0 l 795 0 q 789 5 789 0 l 789 179 q 795 184 790 184 z "},"P":{"ha":1183,"x_min":0,"x_max":974,"o":"m 5 974 l 179 974 q 184 968 184 973 l 184 795 q 179 789 184 789 l 5 789 q 0 795 0 789 l 0 968 q 5 974 1 974 m 203 974 l 377 974 q 382 968 382 973 l 382 795 q 377 789 382 789 l 203 789 q 198 795 198 789 l 198 968 q 203 974 199 974 m 399 974 l 575 974 q 581 968 581 973 l 581 795 q 575 789 581 789 l 399 789 q 393 795 393 789 l 393 968 q 399 974 394 974 m 597 974 l 773 974 q 779 968 779 973 l 779 795 q 773 789 779 789 l 597 789 q 591 795 591 789 l 591 968 q 597 974 592 974 m 795 974 l 806 974 q 960 863 899 974 q 974 800 974 829 l 974 795 q 968 789 974 789 l 795 789 q 789 795 789 789 l 789 968 q 795 974 790 974 m 5 779 l 179 779 q 184 773 184 778 l 184 597 q 179 591 184 591 l 5 591 q 0 597 0 591 l 0 773 q 5 779 1 779 m 795 779 l 968 779 q 974 773 974 778 l 974 597 q 968 591 974 591 l 795 591 q 789 597 789 591 l 789 773 q 795 779 790 779 m 5 581 l 179 581 q 184 575 184 580 l 184 399 q 179 393 184 393 l 5 393 q 0 399 0 393 l 0 575 q 5 581 1 581 m 203 581 l 377 581 q 382 575 382 580 l 382 399 q 377 393 382 393 l 203 393 q 198 399 198 393 l 198 575 q 203 581 199 581 m 399 581 l 575 581 q 581 575 581 580 l 581 399 q 575 393 581 393 l 399 393 q 393 399 393 393 l 393 575 q 399 581 394 581 m 597 581 l 770 581 q 776 575 776 580 l 776 399 q 770 393 776 393 l 597 393 q 591 399 591 393 l 591 575 q 597 581 592 581 m 795 581 l 968 581 q 974 575 974 580 l 974 567 q 860 407 974 468 q 792 393 819 393 l 789 399 l 789 575 q 795 581 790 581 m 5 382 l 179 382 q 184 377 184 382 l 184 201 q 179 195 184 195 l 5 195 q 0 201 0 195 l 0 377 q 5 382 1 382 m 5 184 l 179 184 q 184 179 184 184 l 184 5 q 179 0 184 0 l 5 0 q 0 5 0 0 l 0 179 q 5 184 1 184 z "},"Q":{"ha":1183,"x_min":0,"x_max":974,"o":"m 168 974 l 179 974 q 184 968 184 973 l 184 795 q 179 789 184 789 l 5 789 q 0 795 0 789 l 0 806 q 100 955 0 892 q 168 974 139 974 m 201 974 l 377 974 q 382 968 382 973 l 382 795 q 377 789 382 789 l 201 789 q 195 795 195 789 l 195 968 q 201 974 196 974 m 399 974 l 575 974 q 581 968 581 973 l 581 795 q 575 789 581 789 l 399 789 q 393 795 393 789 l 393 968 q 399 974 394 974 m 597 974 l 770 974 q 776 968 776 973 l 776 795 q 770 789 776 789 l 597 789 q 591 795 591 789 l 591 968 q 597 974 592 974 m 795 974 l 806 974 q 955 873 892 974 q 974 806 974 835 l 974 795 q 968 789 974 789 l 795 789 q 789 795 789 789 l 789 968 q 795 974 790 974 m 5 779 l 179 779 q 184 773 184 778 l 184 597 q 179 591 184 591 l 5 591 q 0 597 0 591 l 0 773 q 5 779 1 779 m 795 779 l 968 779 q 974 773 974 778 l 974 597 q 968 591 974 591 l 795 591 q 789 597 789 591 l 789 773 q 795 779 790 779 m 5 581 l 179 581 q 184 575 184 580 l 184 399 q 179 393 184 393 l 5 393 q 0 399 0 393 l 0 575 q 5 581 1 581 m 795 581 l 968 581 q 974 575 974 580 l 974 399 q 968 393 974 393 l 795 393 q 789 399 789 393 l 789 575 q 795 581 790 581 m 5 382 l 179 382 q 184 377 184 382 l 184 201 q 179 195 184 195 l 5 195 q 0 201 0 195 l 0 377 q 5 382 1 382 m 399 382 l 575 382 q 581 377 581 382 l 581 201 q 575 195 581 195 l 399 195 q 393 201 393 195 l 393 377 q 399 382 394 382 m 795 382 l 968 382 q 974 377 974 382 l 974 201 q 968 195 974 195 l 795 195 q 789 201 789 195 l 789 377 q 795 382 790 382 m 5 184 l 179 184 q 184 179 184 184 l 184 5 q 179 0 184 0 l 168 0 q 19 100 81 0 q 0 168 0 139 l 0 179 q 5 184 1 184 m 201 184 l 377 184 q 382 179 382 184 l 382 5 q 377 0 382 0 l 201 0 q 195 5 195 0 l 195 179 q 201 184 196 184 m 399 184 l 575 184 q 581 179 581 184 l 581 5 q 575 0 581 0 l 399 0 q 393 5 393 0 l 393 179 q 399 184 394 184 m 597 184 l 770 184 q 776 179 776 184 l 776 5 q 770 0 776 0 l 597 0 q 591 5 591 0 l 591 179 q 597 184 592 184 m 795 184 l 968 184 q 974 179 974 184 l 974 168 q 873 19 974 81 q 806 0 835 0 l 795 0 q 789 5 789 0 l 789 179 q 795 184 790 184 z "},"R":{"ha":1183,"x_min":0,"x_max":974,"o":"m 5 974 l 179 974 q 184 968 184 973 l 184 795 q 179 789 184 789 l 5 789 q 0 795 0 789 l 0 968 q 5 974 1 974 m 203 974 l 377 974 q 382 968 382 973 l 382 795 q 377 789 382 789 l 203 789 q 198 795 198 789 l 198 968 q 203 974 199 974 m 399 974 l 575 974 q 581 968 581 973 l 581 795 q 575 789 581 789 l 399 789 q 393 795 393 789 l 393 968 q 399 974 394 974 m 597 974 l 773 974 q 779 968 779 973 l 779 795 q 773 789 779 789 l 597 789 q 591 795 591 789 l 591 968 q 597 974 592 974 m 795 974 l 806 974 q 960 863 899 974 q 974 800 974 829 l 974 795 q 968 789 974 789 l 795 789 q 789 795 789 789 l 789 968 q 795 974 790 974 m 5 779 l 179 779 q 184 773 184 778 l 184 597 q 179 591 184 591 l 5 591 q 0 597 0 591 l 0 773 q 5 779 1 779 m 795 779 l 968 779 q 974 773 974 778 l 974 597 q 968 591 974 591 l 795 591 q 789 597 789 591 l 789 773 q 795 779 790 779 m 5 581 l 179 581 q 184 575 184 580 l 184 399 q 179 393 184 393 l 5 393 q 0 399 0 393 l 0 575 q 5 581 1 581 m 203 581 l 377 581 q 382 575 382 580 l 382 399 q 377 393 382 393 l 203 393 q 198 399 198 393 l 198 575 q 203 581 199 581 m 399 581 l 575 581 q 581 575 581 580 l 581 399 q 575 393 581 393 l 399 393 q 393 399 393 393 l 393 575 q 399 581 394 581 m 597 581 l 770 581 q 776 575 776 580 l 776 399 q 770 393 776 393 l 597 393 q 591 399 591 393 l 591 575 q 597 581 592 581 m 795 581 l 968 581 q 974 575 974 580 q 917 486 958 527 q 974 396 966 437 l 968 393 l 795 393 q 789 399 789 393 l 789 575 q 795 581 790 581 m 5 382 l 179 382 q 184 377 184 382 l 184 201 q 179 195 184 195 l 5 195 q 0 201 0 195 l 0 377 q 5 382 1 382 m 795 382 l 968 382 q 974 377 974 382 l 974 201 q 968 195 974 195 l 795 195 q 789 201 789 195 l 789 377 q 795 382 790 382 m 5 184 l 179 184 q 184 179 184 184 l 184 5 q 179 0 184 0 l 5 0 q 0 5 0 0 l 0 179 q 5 184 1 184 m 795 184 l 968 184 q 974 179 974 184 l 974 5 q 968 0 974 0 l 795 0 q 789 5 789 0 l 789 179 q 795 184 790 184 z "},"S":{"ha":1183,"x_min":0,"x_max":974,"o":"m 168 974 l 179 974 q 184 968 184 973 l 184 795 q 179 789 184 789 l 5 789 q 0 795 0 789 l 0 806 q 100 955 0 892 q 168 974 139 974 m 203 974 l 377 974 q 382 968 382 973 l 382 795 q 377 789 382 789 l 203 789 q 198 795 198 789 l 198 968 q 203 974 199 974 m 399 974 l 575 974 q 581 968 581 973 l 581 795 q 575 789 581 789 l 399 789 q 393 795 393 789 l 393 968 q 399 974 394 974 m 597 974 l 773 974 q 779 968 779 973 l 779 795 q 773 789 779 789 l 597 789 q 591 795 591 789 l 591 968 q 597 974 592 974 m 795 974 l 806 974 q 955 873 892 974 q 974 806 974 835 l 974 795 q 968 789 974 789 l 795 789 q 789 795 789 789 l 789 968 q 795 974 790 974 m 5 779 l 179 779 q 184 773 184 778 l 184 597 q 179 591 184 591 l 5 591 q 0 597 0 591 l 0 773 q 5 779 1 779 m 795 779 l 968 779 q 974 773 974 778 l 974 689 q 968 684 974 684 l 795 684 q 789 689 789 684 l 789 773 q 795 779 790 779 m 5 581 l 179 581 q 184 575 184 580 l 184 399 q 179 393 184 393 q 11 513 70 393 q 0 567 0 542 l 0 575 q 5 581 1 581 m 203 581 l 377 581 q 382 575 382 580 l 382 399 q 377 393 382 393 l 203 393 q 198 399 198 393 l 198 575 q 203 581 199 581 m 399 581 l 575 581 q 581 575 581 580 l 581 399 q 575 393 581 393 l 399 393 q 393 399 393 393 l 393 575 q 399 581 394 581 m 597 581 l 773 581 q 779 575 779 580 l 779 399 q 773 393 779 393 l 597 393 q 591 399 591 393 l 591 575 q 597 581 592 581 m 795 581 q 963 461 904 581 q 974 407 974 432 l 974 399 q 968 393 974 393 l 795 393 q 789 399 789 393 l 789 575 q 795 581 790 581 m 795 382 l 968 382 q 974 377 974 382 l 974 201 q 968 195 974 195 l 795 195 q 789 201 789 195 l 789 377 q 795 382 790 382 m 5 290 l 179 290 q 184 285 184 290 l 184 201 q 179 195 184 195 l 5 195 q 0 201 0 195 l 0 285 q 5 290 1 290 m 5 184 l 179 184 q 184 179 184 184 l 184 5 q 179 0 184 0 l 168 0 q 19 100 81 0 q 0 168 0 139 l 0 179 q 5 184 1 184 m 203 184 l 377 184 q 382 179 382 184 l 382 5 q 377 0 382 0 l 203 0 q 198 5 198 0 l 198 179 q 203 184 199 184 m 399 184 l 575 184 q 581 179 581 184 l 581 5 q 575 0 581 0 l 399 0 q 393 5 393 0 l 393 179 q 399 184 394 184 m 597 184 l 773 184 q 779 179 779 184 l 779 5 q 773 0 779 0 l 597 0 q 591 5 591 0 l 591 179 q 597 184 592 184 m 795 184 l 968 184 q 974 179 974 184 l 974 168 q 873 19 974 81 q 806 0 835 0 l 795 0 q 789 5 789 0 l 789 179 q 795 184 790 184 z "},"T":{"ha":1183,"x_min":0,"x_max":974,"o":"m 5 974 l 179 974 q 184 968 184 973 l 184 795 q 179 789 184 789 l 5 789 q 0 795 0 789 l 0 968 q 5 974 1 974 m 201 974 l 377 974 q 382 968 382 973 l 382 795 q 377 789 382 789 l 201 789 q 195 795 195 789 l 195 968 q 201 974 196 974 m 399 974 l 575 974 q 581 968 581 973 l 581 795 q 575 789 581 789 l 399 789 q 393 795 393 789 l 393 968 q 399 974 394 974 m 597 974 l 770 974 q 776 968 776 973 l 776 795 q 770 789 776 789 l 597 789 q 591 795 591 789 l 591 968 q 597 974 592 974 m 795 974 l 968 974 q 974 968 974 973 l 974 795 q 968 789 974 789 l 795 789 q 789 795 789 789 l 789 968 q 795 974 790 974 m 399 779 l 575 779 q 581 773 581 778 l 581 597 q 575 591 581 591 l 399 591 q 393 597 393 591 l 393 773 q 399 779 394 779 m 399 581 l 575 581 q 581 575 581 580 l 581 399 q 575 393 581 393 l 399 393 q 393 399 393 393 l 393 575 q 399 581 394 581 m 399 382 l 575 382 q 581 377 581 382 l 581 201 q 575 195 581 195 l 399 195 q 393 201 393 195 l 393 377 q 399 382 394 382 m 399 184 l 575 184 q 581 179 581 184 l 581 5 q 575 0 581 0 l 399 0 q 393 5 393 0 l 393 179 q 399 184 394 184 z "},"U":{"ha":1183,"x_min":0,"x_max":974,"o":"m 5 974 l 179 974 q 184 968 184 973 l 184 795 q 179 789 184 789 l 5 789 q 0 795 0 789 l 0 968 q 5 974 1 974 m 795 974 l 968 974 q 974 968 974 973 l 974 795 q 968 789 974 789 l 795 789 q 789 795 789 789 l 789 968 q 795 974 790 974 m 5 779 l 179 779 q 184 773 184 778 l 184 597 q 179 591 184 591 l 5 591 q 0 597 0 591 l 0 773 q 5 779 1 779 m 795 779 l 968 779 q 974 773 974 778 l 974 597 q 968 591 974 591 l 795 591 q 789 597 789 591 l 789 773 q 795 779 790 779 m 5 581 l 179 581 q 184 575 184 580 l 184 399 q 179 393 184 393 l 5 393 q 0 399 0 393 l 0 575 q 5 581 1 581 m 795 581 l 968 581 q 974 575 974 580 l 974 399 q 968 393 974 393 l 795 393 q 789 399 789 393 l 789 575 q 795 581 790 581 m 5 382 l 179 382 q 184 377 184 382 l 184 201 q 179 195 184 195 l 5 195 q 0 201 0 195 l 0 377 q 5 382 1 382 m 795 382 l 968 382 q 974 377 974 382 l 974 201 q 968 195 974 195 l 795 195 q 789 201 789 195 l 789 377 q 795 382 790 382 m 5 184 l 179 184 q 184 179 184 184 l 184 5 q 179 0 184 0 l 168 0 q 19 100 81 0 q 0 168 0 139 l 0 179 q 5 184 1 184 m 203 184 l 377 184 q 382 179 382 184 l 382 5 q 377 0 382 0 l 203 0 q 198 5 198 0 l 198 179 q 203 184 199 184 m 399 184 l 575 184 q 581 179 581 184 l 581 5 q 575 0 581 0 l 399 0 q 393 5 393 0 l 393 179 q 399 184 394 184 m 597 184 l 773 184 q 779 179 779 184 l 779 5 q 773 0 779 0 l 597 0 q 591 5 591 0 l 591 179 q 597 184 592 184 m 795 184 l 968 184 q 974 179 974 184 l 974 168 q 873 19 974 81 q 806 0 835 0 l 795 0 q 789 5 789 0 l 789 179 q 795 184 790 184 z "},"V":{"ha":1183,"x_min":0,"x_max":974,"o":"m 5 974 l 179 974 q 184 968 184 973 l 184 795 q 179 789 184 789 l 5 789 q 0 795 0 789 l 0 968 q 5 974 1 974 m 795 974 l 968 974 q 974 968 974 973 l 974 795 q 968 789 974 789 l 795 789 q 789 795 789 789 l 789 968 q 795 974 790 974 m 5 779 l 179 779 q 184 773 184 778 l 184 597 q 179 591 184 591 l 5 591 q 0 597 0 591 l 0 773 q 5 779 1 779 m 795 779 l 968 779 q 974 773 974 778 l 974 597 q 968 591 974 591 l 795 591 q 789 597 789 591 l 789 773 q 795 779 790 779 m 5 581 l 179 581 q 184 575 184 580 l 184 399 q 179 393 184 393 l 5 393 q 0 399 0 393 l 0 575 q 5 581 1 581 m 795 581 l 968 581 q 974 575 974 580 l 974 399 q 968 393 974 393 l 795 393 q 789 399 789 393 l 789 575 q 795 581 790 581 m 201 382 l 377 382 q 382 377 382 382 l 382 201 q 377 195 382 195 l 201 195 q 195 201 195 195 l 195 377 q 201 382 196 382 m 597 382 l 773 382 q 779 377 779 382 l 779 201 q 773 195 779 195 l 597 195 q 591 201 591 195 l 591 377 q 597 382 592 382 m 399 184 l 575 184 q 581 179 581 184 l 581 5 q 575 0 581 0 l 399 0 q 393 5 393 0 l 393 179 q 399 184 394 184 z "},"W":{"ha":1183,"x_min":0,"x_max":974,"o":"m 5 0 q 0 5 1 0 l 0 179 q 5 184 0 184 l 179 184 q 184 179 184 184 l 184 5 q 179 0 184 1 l 5 0 m 203 0 q 198 5 199 0 l 198 179 q 203 184 198 184 l 377 184 q 382 179 382 184 l 382 5 q 377 0 382 1 l 203 0 m 399 0 q 393 5 394 0 l 393 179 q 399 184 393 184 l 575 184 q 581 179 581 184 l 581 5 l 578 0 q 488 57 543 0 q 399 0 444 13 m 597 0 q 591 5 592 0 l 591 179 q 597 184 591 184 l 773 184 q 779 179 779 184 l 779 5 q 773 0 779 1 l 597 0 m 795 0 q 789 5 790 0 l 789 179 q 795 184 789 184 l 968 184 q 974 179 974 184 l 974 5 q 968 0 974 1 l 795 0 m 5 195 q 0 201 1 195 l 0 377 q 5 382 0 382 l 179 382 q 184 377 184 382 l 184 201 q 179 195 184 196 l 5 195 m 399 195 q 393 201 394 195 l 393 377 q 399 382 393 382 l 575 382 q 581 377 581 382 l 581 201 q 575 195 581 196 l 399 195 m 795 195 q 789 201 790 195 l 789 377 q 795 382 789 382 l 968 382 q 974 377 974 382 l 974 201 q 968 195 974 196 l 795 195 m 5 393 q 0 399 1 393 l 0 575 q 5 581 0 581 l 179 581 q 184 575 184 581 l 184 399 q 179 393 184 394 l 5 393 m 399 393 q 393 399 394 393 l 393 575 q 399 581 393 581 l 575 581 q 581 575 581 581 l 581 399 q 575 393 581 394 l 399 393 m 795 393 q 789 399 790 393 l 789 575 q 795 581 789 581 l 968 581 q 974 575 974 581 l 974 399 q 968 393 974 394 l 795 393 m 5 591 q 0 597 1 591 l 0 773 q 5 779 0 779 l 179 779 q 184 773 184 779 l 184 597 q 179 591 184 592 l 5 591 m 399 591 q 393 597 394 591 l 393 773 q 399 779 393 779 l 575 779 q 581 773 581 779 l 581 597 q 575 591 581 592 l 399 591 m 795 591 q 789 597 790 591 l 789 773 q 795 779 789 779 l 968 779 q 974 773 974 779 l 974 597 q 968 591 974 592 l 795 591 m 5 789 q 0 795 1 789 l 0 968 q 5 974 0 974 l 179 974 q 184 968 184 974 l 184 795 q 179 789 184 790 l 5 789 m 399 789 q 393 795 394 789 l 393 968 q 399 974 393 974 l 575 974 q 581 968 581 974 l 581 795 q 575 789 581 790 l 399 789 m 795 789 q 789 795 790 789 l 789 968 q 795 974 789 974 l 968 974 q 974 968 974 974 l 974 795 q 968 789 974 790 l 795 789 z "},"X":{"ha":1183,"x_min":0,"x_max":974,"o":"m 5 974 l 179 974 q 184 968 184 973 l 184 795 q 179 789 184 789 l 5 789 q 0 795 0 789 l 0 968 q 5 974 1 974 m 795 974 l 968 974 q 974 968 974 973 l 974 795 q 968 789 974 789 l 795 789 q 789 795 789 789 l 789 968 q 795 974 790 974 m 201 779 l 377 779 q 382 773 382 778 l 382 597 q 377 591 382 591 l 201 591 q 195 597 195 591 l 195 773 q 201 779 196 779 m 597 779 l 770 779 q 776 773 776 778 l 776 597 q 770 591 776 591 l 597 591 q 591 597 591 591 l 591 773 q 597 779 592 779 m 399 581 l 575 581 q 581 575 581 580 l 581 399 q 575 393 581 393 l 399 393 q 393 399 393 393 l 393 575 q 399 581 394 581 m 201 382 l 377 382 q 382 377 382 382 l 382 201 q 377 195 382 195 l 201 195 q 195 201 195 195 l 195 377 q 201 382 196 382 m 597 382 l 770 382 q 776 377 776 382 l 776 201 q 770 195 776 195 l 597 195 q 591 201 591 195 l 591 377 q 597 382 592 382 m 5 184 l 179 184 q 184 179 184 184 l 184 5 q 179 0 184 0 l 5 0 q 0 5 0 0 l 0 179 q 5 184 1 184 m 795 184 l 968 184 q 974 179 974 184 l 974 5 q 968 0 974 0 l 795 0 q 789 5 789 0 l 789 179 q 795 184 790 184 z "},"Y":{"ha":1183,"x_min":0,"x_max":974,"o":"m 5 974 l 179 974 q 184 968 184 973 l 184 795 q 179 789 184 789 l 5 789 q 0 795 0 789 l 0 968 q 5 974 1 974 m 795 974 l 968 974 q 974 968 974 973 l 974 795 q 968 789 974 789 l 795 789 q 789 795 789 789 l 789 968 q 795 974 790 974 m 5 779 l 179 779 q 184 773 184 778 l 184 597 q 179 591 184 591 l 5 591 q 0 597 0 591 l 0 773 q 5 779 1 779 m 795 779 l 968 779 q 974 773 974 778 l 974 597 q 968 591 974 591 l 795 591 q 789 597 789 591 l 789 773 q 795 779 790 779 m 5 581 l 179 581 q 184 575 184 580 l 184 399 q 179 393 184 393 q 11 513 70 393 q 0 567 0 542 l 0 575 q 5 581 1 581 m 201 581 l 377 581 q 382 575 382 580 l 382 399 q 377 393 382 393 l 201 393 q 195 399 195 393 l 195 575 q 201 581 196 581 m 399 581 l 575 581 q 581 575 581 580 l 581 399 q 575 393 581 393 l 399 393 q 393 399 393 393 l 393 575 q 399 581 394 581 m 597 581 l 773 581 q 779 575 779 580 l 779 399 q 773 393 779 393 l 597 393 q 591 399 591 393 l 591 575 q 597 581 592 581 m 795 581 l 968 581 q 974 575 974 580 l 974 567 q 857 407 974 465 q 792 393 823 393 l 789 399 l 789 575 q 795 581 790 581 m 399 382 l 575 382 q 581 377 581 382 l 581 201 q 575 195 581 195 l 399 195 q 393 201 393 195 l 393 377 q 399 382 394 382 m 399 184 l 575 184 q 581 179 581 184 l 581 5 q 575 0 581 0 l 399 0 q 393 5 393 0 l 393 179 q 399 184 394 184 z "},"Z":{"ha":1183,"x_min":0,"x_max":974,"o":"m 5 974 l 179 974 q 184 968 184 973 l 184 795 q 179 789 184 789 l 5 789 q 0 795 0 789 l 0 968 q 5 974 1 974 m 201 974 l 377 974 q 382 968 382 973 l 382 795 q 377 789 382 789 l 201 789 q 195 795 195 789 l 195 968 q 201 974 196 974 m 399 974 l 575 974 q 581 968 581 973 l 581 795 q 575 789 581 789 l 399 789 q 393 795 393 789 l 393 968 q 399 974 394 974 m 597 974 l 773 974 q 779 968 779 973 l 779 795 q 773 789 779 789 l 597 789 q 591 795 591 789 l 591 968 q 597 974 592 974 m 795 974 l 968 974 q 974 968 974 973 l 974 795 q 968 789 974 789 l 795 789 q 789 795 789 789 l 789 968 q 795 974 790 974 m 597 779 l 773 779 q 779 773 779 778 l 779 597 q 773 591 779 591 l 597 591 q 591 597 591 591 l 591 773 q 597 779 592 779 m 399 581 l 575 581 q 581 575 581 580 l 581 399 q 575 393 581 393 l 399 393 q 393 399 393 393 l 393 575 q 399 581 394 581 m 201 382 l 377 382 q 382 377 382 382 l 382 201 q 377 195 382 195 l 201 195 q 195 201 195 195 l 195 377 q 201 382 196 382 m 5 184 l 179 184 q 184 179 184 184 l 184 5 q 179 0 184 0 l 5 0 q 0 5 0 0 l 0 179 q 5 184 1 184 m 201 184 l 377 184 q 382 179 382 184 l 382 5 q 377 0 382 0 l 201 0 q 195 5 195 0 l 195 179 q 201 184 196 184 m 399 184 l 575 184 q 581 179 581 184 l 581 5 q 575 0 581 0 l 399 0 q 393 5 393 0 l 393 179 q 399 184 394 184 m 597 184 l 773 184 q 779 179 779 184 l 779 5 q 773 0 779 0 l 597 0 q 591 5 591 0 l 591 179 q 597 184 592 184 m 795 184 l 968 184 q 974 179 974 184 l 974 5 q 968 0 974 0 l 795 0 q 789 5 789 0 l 789 179 q 795 184 790 184 z "},"[":{"ha":1183,"x_min":0,"x_max":977,"o":"m 5 974 l 179 974 q 184 968 184 973 l 184 795 q 179 789 184 789 l 5 789 q 0 795 0 789 l 0 968 q 5 974 1 974 m 201 974 l 377 974 q 382 968 382 973 l 382 795 q 377 789 382 789 l 201 789 q 195 795 195 789 l 195 968 q 201 974 196 974 m 399 974 l 575 974 q 581 968 581 973 l 581 795 q 575 789 581 789 l 399 789 q 393 795 393 789 l 393 968 q 399 974 394 974 m 597 974 l 770 974 q 776 968 776 973 l 776 795 q 770 789 776 789 l 597 789 q 591 795 591 789 l 591 968 q 597 974 592 974 m 795 974 l 971 974 q 977 968 977 973 l 977 795 q 971 789 977 789 l 795 789 q 789 795 789 789 l 789 968 q 795 974 790 974 m 5 779 l 179 779 q 184 773 184 778 l 184 597 q 179 591 184 591 l 5 591 q 0 597 0 591 l 0 773 q 5 779 1 779 m 795 779 l 971 779 q 977 773 977 778 l 977 597 q 971 591 977 591 l 795 591 q 789 597 789 591 l 789 773 q 795 779 790 779 m 5 581 l 179 581 q 184 575 184 580 l 184 399 q 179 393 184 393 l 5 393 q 0 399 0 393 l 0 575 q 5 581 1 581 m 399 581 l 575 581 q 581 575 581 580 l 581 399 q 575 393 581 393 l 399 393 q 393 399 393 393 l 393 575 q 399 581 394 581 m 795 581 l 971 581 q 977 575 977 580 l 977 399 q 971 393 977 393 l 795 393 q 789 399 789 393 l 789 575 q 795 581 790 581 m 5 382 l 179 382 q 184 377 184 382 l 184 201 q 179 195 184 195 l 5 195 q 0 201 0 195 l 0 377 q 5 382 1 382 m 795 382 l 971 382 q 977 377 977 382 l 977 201 q 971 195 977 195 l 795 195 q 789 201 789 195 l 789 377 q 795 382 790 382 m 5 184 l 179 184 q 184 179 184 184 l 184 5 q 179 0 184 0 l 5 0 q 0 5 0 0 l 0 179 q 5 184 1 184 m 201 184 l 377 184 q 382 179 382 184 l 382 5 q 377 0 382 0 l 201 0 q 195 5 195 0 l 195 179 q 201 184 196 184 m 399 184 l 575 184 q 581 179 581 184 l 581 5 q 575 0 581 0 l 399 0 q 393 5 393 0 l 393 179 q 399 184 394 184 m 597 184 l 770 184 q 776 179 776 184 l 776 5 q 770 0 776 0 l 597 0 q 591 5 591 0 l 591 179 q 597 184 592 184 m 795 184 l 971 184 q 977 179 977 184 l 977 5 q 971 0 977 0 l 795 0 q 789 5 789 0 l 789 179 q 795 184 790 184 z "},"\\":{"ha":1183,"x_min":0,"x_max":977,"o":"m 5 974 l 179 974 q 184 968 184 973 l 184 795 q 179 789 184 789 l 5 789 q 0 795 0 789 l 0 968 q 5 974 1 974 m 201 974 l 377 974 q 382 968 382 973 l 382 795 q 377 789 382 789 l 201 789 q 195 795 195 789 l 195 968 q 201 974 196 974 m 399 974 l 575 974 q 581 968 581 973 l 581 795 q 575 789 581 789 l 399 789 q 393 795 393 789 l 393 968 q 399 974 394 974 m 597 974 l 770 974 q 776 968 776 973 l 776 795 q 770 789 776 789 l 597 789 q 591 795 591 789 l 591 968 q 597 974 592 974 m 795 974 l 971 974 q 977 968 977 973 l 977 795 q 971 789 977 789 l 795 789 q 789 795 789 789 l 789 968 q 795 974 790 974 m 5 779 l 179 779 q 184 773 184 778 l 184 597 q 179 591 184 591 l 5 591 q 0 597 0 591 l 0 773 q 5 779 1 779 m 795 779 l 971 779 q 977 773 977 778 l 977 597 q 971 591 977 591 l 795 591 q 789 597 789 591 l 789 773 q 795 779 790 779 m 5 581 l 179 581 q 184 575 184 580 l 184 399 q 179 393 184 393 l 5 393 q 0 399 0 393 l 0 575 q 5 581 1 581 m 399 581 l 575 581 q 581 575 581 580 l 581 399 q 575 393 581 393 l 399 393 q 393 399 393 393 l 393 575 q 399 581 394 581 m 795 581 l 971 581 q 977 575 977 580 l 977 399 q 971 393 977 393 l 795 393 q 789 399 789 393 l 789 575 q 795 581 790 581 m 5 382 l 179 382 q 184 377 184 382 l 184 201 q 179 195 184 195 l 5 195 q 0 201 0 195 l 0 377 q 5 382 1 382 m 795 382 l 971 382 q 977 377 977 382 l 977 201 q 971 195 977 195 l 795 195 q 789 201 789 195 l 789 377 q 795 382 790 382 m 5 184 l 179 184 q 184 179 184 184 l 184 5 q 179 0 184 0 l 5 0 q 0 5 0 0 l 0 179 q 5 184 1 184 m 201 184 l 377 184 q 382 179 382 184 l 382 5 q 377 0 382 0 l 201 0 q 195 5 195 0 l 195 179 q 201 184 196 184 m 399 184 l 575 184 q 581 179 581 184 l 581 5 q 575 0 581 0 l 399 0 q 393 5 393 0 l 393 179 q 399 184 394 184 m 597 184 l 770 184 q 776 179 776 184 l 776 5 q 770 0 776 0 l 597 0 q 591 5 591 0 l 591 179 q 597 184 592 184 m 795 184 l 971 184 q 977 179 977 184 l 977 5 q 971 0 977 0 l 795 0 q 789 5 789 0 l 789 179 q 795 184 790 184 z "},"]":{"ha":1183,"x_min":0,"x_max":977,"o":"m 5 974 l 179 974 q 184 968 184 973 l 184 795 q 179 789 184 789 l 5 789 q 0 795 0 789 l 0 968 q 5 974 1 974 m 201 974 l 377 974 q 382 968 382 973 l 382 795 q 377 789 382 789 l 201 789 q 195 795 195 789 l 195 968 q 201 974 196 974 m 399 974 l 575 974 q 581 968 581 973 l 581 795 q 575 789 581 789 l 399 789 q 393 795 393 789 l 393 968 q 399 974 394 974 m 597 974 l 770 974 q 776 968 776 973 l 776 795 q 770 789 776 789 l 597 789 q 591 795 591 789 l 591 968 q 597 974 592 974 m 795 974 l 971 974 q 977 968 977 973 l 977 795 q 971 789 977 789 l 795 789 q 789 795 789 789 l 789 968 q 795 974 790 974 m 5 779 l 179 779 q 184 773 184 778 l 184 597 q 179 591 184 591 l 5 591 q 0 597 0 591 l 0 773 q 5 779 1 779 m 795 779 l 971 779 q 977 773 977 778 l 977 597 q 971 591 977 591 l 795 591 q 789 597 789 591 l 789 773 q 795 779 790 779 m 5 581 l 179 581 q 184 575 184 580 l 184 399 q 179 393 184 393 l 5 393 q 0 399 0 393 l 0 575 q 5 581 1 581 m 399 581 l 575 581 q 581 575 581 580 l 581 399 q 575 393 581 393 l 399 393 q 393 399 393 393 l 393 575 q 399 581 394 581 m 795 581 l 971 581 q 977 575 977 580 l 977 399 q 971 393 977 393 l 795 393 q 789 399 789 393 l 789 575 q 795 581 790 581 m 5 382 l 179 382 q 184 377 184 382 l 184 201 q 179 195 184 195 l 5 195 q 0 201 0 195 l 0 377 q 5 382 1 382 m 795 382 l 971 382 q 977 377 977 382 l 977 201 q 971 195 977 195 l 795 195 q 789 201 789 195 l 789 377 q 795 382 790 382 m 5 184 l 179 184 q 184 179 184 184 l 184 5 q 179 0 184 0 l 5 0 q 0 5 0 0 l 0 179 q 5 184 1 184 m 201 184 l 377 184 q 382 179 382 184 l 382 5 q 377 0 382 0 l 201 0 q 195 5 195 0 l 195 179 q 201 184 196 184 m 399 184 l 575 184 q 581 179 581 184 l 581 5 q 575 0 581 0 l 399 0 q 393 5 393 0 l 393 179 q 399 184 394 184 m 597 184 l 770 184 q 776 179 776 184 l 776 5 q 770 0 776 0 l 597 0 q 591 5 591 0 l 591 179 q 597 184 592 184 m 795 184 l 971 184 q 977 179 977 184 l 977 5 q 971 0 977 0 l 795 0 q 789 5 789 0 l 789 179 q 795 184 790 184 z "},"^":{"ha":1183,"x_min":0,"x_max":977,"o":"m 5 974 l 179 974 q 184 968 184 973 l 184 795 q 179 789 184 789 l 5 789 q 0 795 0 789 l 0 968 q 5 974 1 974 m 201 974 l 377 974 q 382 968 382 973 l 382 795 q 377 789 382 789 l 201 789 q 195 795 195 789 l 195 968 q 201 974 196 974 m 399 974 l 575 974 q 581 968 581 973 l 581 795 q 575 789 581 789 l 399 789 q 393 795 393 789 l 393 968 q 399 974 394 974 m 597 974 l 770 974 q 776 968 776 973 l 776 795 q 770 789 776 789 l 597 789 q 591 795 591 789 l 591 968 q 597 974 592 974 m 795 974 l 971 974 q 977 968 977 973 l 977 795 q 971 789 977 789 l 795 789 q 789 795 789 789 l 789 968 q 795 974 790 974 m 5 779 l 179 779 q 184 773 184 778 l 184 597 q 179 591 184 591 l 5 591 q 0 597 0 591 l 0 773 q 5 779 1 779 m 795 779 l 971 779 q 977 773 977 778 l 977 597 q 971 591 977 591 l 795 591 q 789 597 789 591 l 789 773 q 795 779 790 779 m 5 581 l 179 581 q 184 575 184 580 l 184 399 q 179 393 184 393 l 5 393 q 0 399 0 393 l 0 575 q 5 581 1 581 m 399 581 l 575 581 q 581 575 581 580 l 581 399 q 575 393 581 393 l 399 393 q 393 399 393 393 l 393 575 q 399 581 394 581 m 795 581 l 971 581 q 977 575 977 580 l 977 399 q 971 393 977 393 l 795 393 q 789 399 789 393 l 789 575 q 795 581 790 581 m 5 382 l 179 382 q 184 377 184 382 l 184 201 q 179 195 184 195 l 5 195 q 0 201 0 195 l 0 377 q 5 382 1 382 m 795 382 l 971 382 q 977 377 977 382 l 977 201 q 971 195 977 195 l 795 195 q 789 201 789 195 l 789 377 q 795 382 790 382 m 5 184 l 179 184 q 184 179 184 184 l 184 5 q 179 0 184 0 l 5 0 q 0 5 0 0 l 0 179 q 5 184 1 184 m 201 184 l 377 184 q 382 179 382 184 l 382 5 q 377 0 382 0 l 201 0 q 195 5 195 0 l 195 179 q 201 184 196 184 m 399 184 l 575 184 q 581 179 581 184 l 581 5 q 575 0 581 0 l 399 0 q 393 5 393 0 l 393 179 q 399 184 394 184 m 597 184 l 770 184 q 776 179 776 184 l 776 5 q 770 0 776 0 l 597 0 q 591 5 591 0 l 591 179 q 597 184 592 184 m 795 184 l 971 184 q 977 179 977 184 l 977 5 q 971 0 977 0 l 795 0 q 789 5 789 0 l 789 179 q 795 184 790 184 z "},"_":{"ha":1183,"x_min":0,"x_max":977,"o":"m 5 974 l 179 974 q 184 968 184 973 l 184 795 q 179 789 184 789 l 5 789 q 0 795 0 789 l 0 968 q 5 974 1 974 m 201 974 l 377 974 q 382 968 382 973 l 382 795 q 377 789 382 789 l 201 789 q 195 795 195 789 l 195 968 q 201 974 196 974 m 399 974 l 575 974 q 581 968 581 973 l 581 795 q 575 789 581 789 l 399 789 q 393 795 393 789 l 393 968 q 399 974 394 974 m 597 974 l 770 974 q 776 968 776 973 l 776 795 q 770 789 776 789 l 597 789 q 591 795 591 789 l 591 968 q 597 974 592 974 m 795 974 l 971 974 q 977 968 977 973 l 977 795 q 971 789 977 789 l 795 789 q 789 795 789 789 l 789 968 q 795 974 790 974 m 5 779 l 179 779 q 184 773 184 778 l 184 597 q 179 591 184 591 l 5 591 q 0 597 0 591 l 0 773 q 5 779 1 779 m 795 779 l 971 779 q 977 773 977 778 l 977 597 q 971 591 977 591 l 795 591 q 789 597 789 591 l 789 773 q 795 779 790 779 m 5 581 l 179 581 q 184 575 184 580 l 184 399 q 179 393 184 393 l 5 393 q 0 399 0 393 l 0 575 q 5 581 1 581 m 399 581 l 575 581 q 581 575 581 580 l 581 399 q 575 393 581 393 l 399 393 q 393 399 393 393 l 393 575 q 399 581 394 581 m 795 581 l 971 581 q 977 575 977 580 l 977 399 q 971 393 977 393 l 795 393 q 789 399 789 393 l 789 575 q 795 581 790 581 m 5 382 l 179 382 q 184 377 184 382 l 184 201 q 179 195 184 195 l 5 195 q 0 201 0 195 l 0 377 q 5 382 1 382 m 795 382 l 971 382 q 977 377 977 382 l 977 201 q 971 195 977 195 l 795 195 q 789 201 789 195 l 789 377 q 795 382 790 382 m 5 184 l 179 184 q 184 179 184 184 l 184 5 q 179 0 184 0 l 5 0 q 0 5 0 0 l 0 179 q 5 184 1 184 m 201 184 l 377 184 q 382 179 382 184 l 382 5 q 377 0 382 0 l 201 0 q 195 5 195 0 l 195 179 q 201 184 196 184 m 399 184 l 575 184 q 581 179 581 184 l 581 5 q 575 0 581 0 l 399 0 q 393 5 393 0 l 393 179 q 399 184 394 184 m 597 184 l 770 184 q 776 179 776 184 l 776 5 q 770 0 776 0 l 597 0 q 591 5 591 0 l 591 179 q 597 184 592 184 m 795 184 l 971 184 q 977 179 977 184 l 977 5 q 971 0 977 0 l 795 0 q 789 5 789 0 l 789 179 q 795 184 790 184 z "},"`":{"ha":1183,"x_min":0,"x_max":977,"o":"m 5 974 l 179 974 q 184 968 184 973 l 184 795 q 179 789 184 789 l 5 789 q 0 795 0 789 l 0 968 q 5 974 1 974 m 201 974 l 377 974 q 382 968 382 973 l 382 795 q 377 789 382 789 l 201 789 q 195 795 195 789 l 195 968 q 201 974 196 974 m 399 974 l 575 974 q 581 968 581 973 l 581 795 q 575 789 581 789 l 399 789 q 393 795 393 789 l 393 968 q 399 974 394 974 m 597 974 l 770 974 q 776 968 776 973 l 776 795 q 770 789 776 789 l 597 789 q 591 795 591 789 l 591 968 q 597 974 592 974 m 795 974 l 971 974 q 977 968 977 973 l 977 795 q 971 789 977 789 l 795 789 q 789 795 789 789 l 789 968 q 795 974 790 974 m 5 779 l 179 779 q 184 773 184 778 l 184 597 q 179 591 184 591 l 5 591 q 0 597 0 591 l 0 773 q 5 779 1 779 m 795 779 l 971 779 q 977 773 977 778 l 977 597 q 971 591 977 591 l 795 591 q 789 597 789 591 l 789 773 q 795 779 790 779 m 5 581 l 179 581 q 184 575 184 580 l 184 399 q 179 393 184 393 l 5 393 q 0 399 0 393 l 0 575 q 5 581 1 581 m 399 581 l 575 581 q 581 575 581 580 l 581 399 q 575 393 581 393 l 399 393 q 393 399 393 393 l 393 575 q 399 581 394 581 m 795 581 l 971 581 q 977 575 977 580 l 977 399 q 971 393 977 393 l 795 393 q 789 399 789 393 l 789 575 q 795 581 790 581 m 5 382 l 179 382 q 184 377 184 382 l 184 201 q 179 195 184 195 l 5 195 q 0 201 0 195 l 0 377 q 5 382 1 382 m 795 382 l 971 382 q 977 377 977 382 l 977 201 q 971 195 977 195 l 795 195 q 789 201 789 195 l 789 377 q 795 382 790 382 m 5 184 l 179 184 q 184 179 184 184 l 184 5 q 179 0 184 0 l 5 0 q 0 5 0 0 l 0 179 q 5 184 1 184 m 201 184 l 377 184 q 382 179 382 184 l 382 5 q 377 0 382 0 l 201 0 q 195 5 195 0 l 195 179 q 201 184 196 184 m 399 184 l 575 184 q 581 179 581 184 l 581 5 q 575 0 581 0 l 399 0 q 393 5 393 0 l 393 179 q 399 184 394 184 m 597 184 l 770 184 q 776 179 776 184 l 776 5 q 770 0 776 0 l 597 0 q 591 5 591 0 l 591 179 q 597 184 592 184 m 795 184 l 971 184 q 977 179 977 184 l 977 5 q 971 0 977 0 l 795 0 q 789 5 789 0 l 789 179 q 795 184 790 184 z "},"a":{"ha":1183,"x_min":0,"x_max":974,"o":"m 168 974 l 179 974 q 184 968 184 973 l 184 795 q 179 789 184 789 l 5 789 q 0 795 0 789 l 0 806 q 100 955 0 892 q 168 974 139 974 m 203 974 l 377 974 q 382 968 382 973 l 382 795 q 377 789 382 789 l 203 789 q 198 795 198 789 l 198 968 q 203 974 199 974 m 399 974 l 575 974 q 581 968 581 973 l 581 795 q 575 789 581 789 l 399 789 q 393 795 393 789 l 393 968 q 399 974 394 974 m 597 974 l 773 974 q 779 968 779 973 l 779 795 q 773 789 779 789 l 597 789 q 591 795 591 789 l 591 968 q 597 974 592 974 m 795 974 l 806 974 q 955 873 892 974 q 974 806 974 835 l 974 795 q 968 789 974 789 l 795 789 q 789 795 789 789 l 789 968 q 795 974 790 974 m 5 779 l 179 779 q 184 773 184 778 l 184 597 q 179 591 184 591 l 5 591 q 0 597 0 591 l 0 773 q 5 779 1 779 m 795 779 l 968 779 q 974 773 974 778 l 974 597 q 968 591 974 591 l 795 591 q 789 597 789 591 l 789 773 q 795 779 790 779 m 5 581 l 179 581 q 184 575 184 580 l 184 399 q 179 393 184 393 l 5 393 q 0 399 0 393 l 0 575 q 5 581 1 581 m 795 581 l 968 581 q 974 575 974 580 l 974 399 q 968 393 974 393 l 795 393 q 789 399 789 393 l 789 575 q 795 581 790 581 m 5 382 l 179 382 q 184 377 184 382 l 184 201 q 179 195 184 195 l 5 195 q 0 201 0 195 l 0 377 q 5 382 1 382 m 203 382 l 377 382 q 382 377 382 382 l 382 201 q 377 195 382 195 l 203 195 q 198 201 198 195 l 198 377 q 203 382 199 382 m 399 382 l 575 382 q 581 377 581 382 l 581 201 q 575 195 581 195 l 399 195 q 393 201 393 195 l 393 377 q 399 382 394 382 m 597 382 l 773 382 q 779 377 779 382 l 779 201 q 773 195 779 195 l 597 195 q 591 201 591 195 l 591 377 q 597 382 592 382 m 795 382 l 968 382 q 974 377 974 382 l 974 201 q 968 195 974 195 l 795 195 q 789 201 789 195 l 789 377 q 795 382 790 382 m 5 184 l 179 184 q 184 179 184 184 l 184 5 q 179 0 184 0 l 5 0 q 0 5 0 0 l 0 179 q 5 184 1 184 m 795 184 l 968 184 q 974 179 974 184 l 974 5 q 968 0 974 0 l 795 0 q 789 5 789 0 l 789 179 q 795 184 790 184 z "},"b":{"ha":1183,"x_min":0,"x_max":974,"o":"m 5 974 l 179 974 q 184 968 184 973 l 184 795 q 179 789 184 789 l 5 789 q 0 795 0 789 l 0 968 q 5 974 1 974 m 203 974 l 377 974 q 382 968 382 973 l 382 795 q 377 789 382 789 l 203 789 q 198 795 198 789 l 198 968 q 203 974 199 974 m 399 974 l 575 974 q 581 968 581 973 l 581 795 q 575 789 581 789 l 399 789 q 393 795 393 789 l 393 968 q 399 974 394 974 m 597 974 l 773 974 q 779 968 779 973 l 779 795 q 773 789 779 789 l 597 789 q 591 795 591 789 l 591 968 q 597 974 592 974 m 795 974 l 806 974 q 960 863 899 974 q 974 800 974 829 l 974 795 q 968 789 974 789 l 795 789 q 789 795 789 789 l 789 968 q 795 974 790 974 m 5 779 l 179 779 q 184 773 184 778 l 184 597 q 179 591 184 591 l 5 591 q 0 597 0 591 l 0 773 q 5 779 1 779 m 795 779 l 968 779 q 974 773 974 778 l 974 597 q 968 591 974 591 l 795 591 q 789 597 789 591 l 789 773 q 795 779 790 779 m 5 581 l 179 581 q 184 575 184 580 l 184 399 q 179 393 184 393 l 5 393 q 0 399 0 393 l 0 575 q 5 581 1 581 m 203 581 l 377 581 q 382 575 382 580 l 382 399 q 377 393 382 393 l 203 393 q 198 399 198 393 l 198 575 q 203 581 199 581 m 399 581 l 575 581 q 581 575 581 580 l 581 399 q 575 393 581 393 l 399 393 q 393 399 393 393 l 393 575 q 399 581 394 581 m 597 581 l 770 581 q 776 575 776 580 l 776 399 q 770 393 776 393 l 597 393 q 591 399 591 393 l 591 575 q 597 581 592 581 m 795 581 l 968 581 q 974 575 974 580 q 917 486 958 527 q 974 396 966 437 l 968 393 l 795 393 q 789 399 789 393 l 789 575 q 795 581 790 581 m 5 382 l 179 382 q 184 377 184 382 l 184 201 q 179 195 184 195 l 5 195 q 0 201 0 195 l 0 377 q 5 382 1 382 m 795 382 l 968 382 q 974 377 974 382 l 974 201 q 968 195 974 195 l 795 195 q 789 201 789 195 l 789 377 q 795 382 790 382 m 5 184 l 179 184 q 184 179 184 184 l 184 5 q 179 0 184 0 l 5 0 q 0 5 0 0 l 0 179 q 5 184 1 184 m 203 184 l 377 184 q 382 179 382 184 l 382 5 q 377 0 382 0 l 203 0 q 198 5 198 0 l 198 179 q 203 184 199 184 m 399 184 l 575 184 q 581 179 581 184 l 581 5 q 575 0 581 0 l 399 0 q 393 5 393 0 l 393 179 q 399 184 394 184 m 597 184 l 773 184 q 779 179 779 184 l 779 5 q 773 0 779 0 l 597 0 q 591 5 591 0 l 591 179 q 597 184 592 184 m 795 184 l 968 184 q 974 179 974 184 l 974 174 q 873 19 974 79 q 806 0 835 0 l 795 0 q 789 5 789 0 l 789 179 q 795 184 790 184 z "},"c":{"ha":1183,"x_min":0,"x_max":974,"o":"m 168 974 l 179 974 q 184 968 184 973 l 184 795 q 179 789 184 789 l 5 789 q 0 795 0 789 l 0 806 q 100 955 0 892 q 168 974 139 974 m 201 974 l 377 974 q 382 968 382 973 l 382 795 q 377 789 382 789 l 201 789 q 195 795 195 789 l 195 968 q 201 974 196 974 m 399 974 l 575 974 q 581 968 581 973 l 581 795 q 575 789 581 789 l 399 789 q 393 795 393 789 l 393 968 q 399 974 394 974 m 597 974 l 770 974 q 776 968 776 973 l 776 795 q 770 789 776 789 l 597 789 q 591 795 591 789 l 591 968 q 597 974 592 974 m 795 974 l 806 974 q 955 873 892 974 q 974 806 974 835 l 974 795 q 968 789 974 789 l 795 789 q 789 795 789 789 l 789 968 q 795 974 790 974 m 5 779 l 179 779 q 184 773 184 778 l 184 597 q 179 591 184 591 l 5 591 q 0 597 0 591 l 0 773 q 5 779 1 779 m 795 779 l 968 779 q 974 773 974 778 l 974 689 q 968 684 974 684 l 795 684 q 789 689 789 684 l 789 773 q 795 779 790 779 m 5 581 l 179 581 q 184 575 184 580 l 184 399 q 179 393 184 393 l 5 393 q 0 399 0 393 l 0 575 q 5 581 1 581 m 5 382 l 179 382 q 184 377 184 382 l 184 201 q 179 195 184 195 l 5 195 q 0 201 0 195 l 0 377 q 5 382 1 382 m 795 290 l 968 290 q 974 285 974 290 l 974 201 q 968 195 974 195 l 795 195 q 789 201 789 195 l 789 285 q 795 290 790 290 m 5 184 l 179 184 q 184 179 184 184 l 184 5 q 179 0 184 0 l 168 0 q 19 100 81 0 q 0 168 0 139 l 0 179 q 5 184 1 184 m 201 184 l 377 184 q 382 179 382 184 l 382 5 q 377 0 382 0 l 201 0 q 195 5 195 0 l 195 179 q 201 184 196 184 m 399 184 l 575 184 q 581 179 581 184 l 581 5 q 575 0 581 0 l 399 0 q 393 5 393 0 l 393 179 q 399 184 394 184 m 597 184 l 770 184 q 776 179 776 184 l 776 5 q 770 0 776 0 l 597 0 q 591 5 591 0 l 591 179 q 597 184 592 184 m 795 184 l 968 184 q 974 179 974 184 l 974 168 q 873 19 974 81 q 806 0 835 0 l 795 0 q 789 5 789 0 l 789 179 q 795 184 790 184 z "},"d":{"ha":1183,"x_min":0,"x_max":974,"o":"m 5 974 l 179 974 q 184 968 184 973 l 184 795 q 179 789 184 789 l 5 789 q 0 795 0 789 l 0 968 q 5 974 1 974 m 203 974 l 377 974 q 382 968 382 973 l 382 795 q 377 789 382 789 l 203 789 q 198 795 198 789 l 198 968 q 203 974 199 974 m 399 974 l 575 974 q 581 968 581 973 l 581 795 q 575 789 581 789 l 399 789 q 393 795 393 789 l 393 968 q 399 974 394 974 m 597 974 l 773 974 q 779 968 779 973 l 779 795 q 773 789 779 789 l 597 789 q 591 795 591 789 l 591 968 q 597 974 592 974 m 795 974 l 806 974 q 960 863 899 974 q 974 800 974 829 l 974 795 q 968 789 974 789 l 795 789 q 789 795 789 789 l 789 968 q 795 974 790 974 m 5 779 l 179 779 q 184 773 184 778 l 184 597 q 179 591 184 591 l 5 591 q 0 597 0 591 l 0 773 q 5 779 1 779 m 795 779 l 968 779 q 974 773 974 778 l 974 597 q 968 591 974 591 l 795 591 q 789 597 789 591 l 789 773 q 795 779 790 779 m 5 581 l 179 581 q 184 575 184 580 l 184 399 q 179 393 184 393 l 5 393 q 0 399 0 393 l 0 575 q 5 581 1 581 m 795 581 l 968 581 q 974 575 974 580 l 974 399 q 968 393 974 393 l 795 393 q 789 399 789 393 l 789 575 q 795 581 790 581 m 5 382 l 179 382 q 184 377 184 382 l 184 201 q 179 195 184 195 l 5 195 q 0 201 0 195 l 0 377 q 5 382 1 382 m 795 382 l 968 382 q 974 377 974 382 l 974 201 q 968 195 974 195 l 795 195 q 789 201 789 195 l 789 377 q 795 382 790 382 m 5 184 l 179 184 q 184 179 184 184 l 184 5 q 179 0 184 0 l 5 0 q 0 5 0 0 l 0 179 q 5 184 1 184 m 203 184 l 377 184 q 382 179 382 184 l 382 5 q 377 0 382 0 l 203 0 q 198 5 198 0 l 198 179 q 203 184 199 184 m 399 184 l 575 184 q 581 179 581 184 l 581 5 q 575 0 581 0 l 399 0 q 393 5 393 0 l 393 179 q 399 184 394 184 m 597 184 l 773 184 q 779 179 779 184 l 779 5 q 773 0 779 0 l 597 0 q 591 5 591 0 l 591 179 q 597 184 592 184 m 795 184 l 968 184 q 974 179 974 184 l 974 174 q 873 19 974 79 q 806 0 835 0 l 795 0 q 789 5 789 0 l 789 179 q 795 184 790 184 z "},"e":{"ha":1183,"x_min":0,"x_max":977,"o":"m 795 974 l 971 974 q 977 968 977 973 l 977 795 q 971 789 977 789 l 795 789 q 789 795 789 789 l 789 968 q 795 974 790 974 m 795 184 l 971 184 q 977 179 977 184 l 977 5 q 971 0 977 0 l 795 0 q 789 5 789 0 l 789 179 q 795 184 790 184 m 5 974 l 179 974 q 184 968 184 973 l 184 795 q 179 789 184 789 l 5 789 q 0 795 0 789 l 0 968 q 5 974 1 974 m 201 974 l 377 974 q 382 968 382 973 l 382 795 q 377 789 382 789 l 201 789 q 195 795 195 789 l 195 968 q 201 974 196 974 m 399 974 l 575 974 q 581 968 581 973 l 581 795 q 575 789 581 789 l 399 789 q 393 795 393 789 l 393 968 q 399 974 394 974 m 597 974 l 770 974 q 776 968 776 973 l 776 795 q 770 789 776 789 l 597 789 q 591 795 591 789 l 591 968 q 597 974 592 974 m 5 779 l 179 779 q 184 773 184 778 l 184 597 q 179 591 184 591 l 5 591 q 0 597 0 591 l 0 773 q 5 779 1 779 m 5 581 l 179 581 q 184 575 184 580 l 184 399 q 179 393 184 393 l 5 393 q 0 399 0 393 l 0 575 q 5 581 1 581 m 201 581 l 377 581 q 382 575 382 580 l 382 399 q 377 393 382 393 l 201 393 q 195 399 195 393 l 195 575 q 201 581 196 581 m 399 581 l 575 581 q 581 575 581 580 l 581 399 q 575 393 581 393 l 399 393 q 393 399 393 393 l 393 575 q 399 581 394 581 m 597 581 l 770 581 q 776 575 776 580 l 776 399 q 770 393 776 393 l 597 393 q 591 399 591 393 l 591 575 q 597 581 592 581 m 5 382 l 179 382 q 184 377 184 382 l 184 201 q 179 195 184 195 l 5 195 q 0 201 0 195 l 0 377 q 5 382 1 382 m 5 184 l 179 184 q 184 179 184 184 l 184 5 q 179 0 184 0 l 5 0 q 0 5 0 0 l 0 179 q 5 184 1 184 m 201 184 l 377 184 q 382 179 382 184 l 382 5 q 377 0 382 0 l 201 0 q 195 5 195 0 l 195 179 q 201 184 196 184 m 399 184 l 575 184 q 581 179 581 184 l 581 5 q 575 0 581 0 l 399 0 q 393 5 393 0 l 393 179 q 399 184 394 184 m 597 184 l 770 184 q 776 179 776 184 l 776 5 q 770 0 776 0 l 597 0 q 591 5 591 0 l 591 179 q 597 184 592 184 z "},"f":{"ha":1183,"x_min":0,"x_max":974,"o":"m 5 974 l 179 974 q 184 968 184 973 l 184 795 q 179 789 184 789 l 5 789 q 0 795 0 789 l 0 968 q 5 974 1 974 m 201 974 l 377 974 q 382 968 382 973 l 382 795 q 377 789 382 789 l 201 789 q 195 795 195 789 l 195 968 q 201 974 196 974 m 399 974 l 575 974 q 581 968 581 973 l 581 795 q 575 789 581 789 l 399 789 q 393 795 393 789 l 393 968 q 399 974 394 974 m 597 974 l 770 974 q 776 968 776 973 l 776 795 q 770 789 776 789 l 597 789 q 591 795 591 789 l 591 968 q 597 974 592 974 m 795 974 l 968 974 q 974 968 974 973 l 974 795 q 968 789 974 789 l 795 789 q 789 795 789 789 l 789 968 q 795 974 790 974 m 5 779 l 179 779 q 184 773 184 778 l 184 597 q 179 591 184 591 l 5 591 q 0 597 0 591 l 0 773 q 5 779 1 779 m 5 581 l 179 581 q 184 575 184 580 l 184 399 q 179 393 184 393 l 5 393 q 0 399 0 393 l 0 575 q 5 581 1 581 m 201 581 l 377 581 q 382 575 382 580 l 382 399 q 377 393 382 393 l 201 393 q 195 399 195 393 l 195 575 q 201 581 196 581 m 399 581 l 575 581 q 581 575 581 580 l 581 399 q 575 393 581 393 l 399 393 q 393 399 393 393 l 393 575 q 399 581 394 581 m 597 581 l 770 581 q 776 575 776 580 l 776 399 q 770 393 776 393 l 597 393 q 591 399 591 393 l 591 575 q 597 581 592 581 m 5 382 l 179 382 q 184 377 184 382 l 184 201 q 179 195 184 195 l 5 195 q 0 201 0 195 l 0 377 q 5 382 1 382 m 5 184 l 179 184 q 184 179 184 184 l 184 5 q 179 0 184 0 l 5 0 q 0 5 0 0 l 0 179 q 5 184 1 184 z "},"g":{"ha":1183,"x_min":0,"x_max":974,"o":"m 168 974 l 179 974 q 184 968 184 973 l 184 795 q 179 789 184 789 l 5 789 q 0 795 0 789 l 0 800 q 100 955 0 895 q 168 974 139 974 m 201 974 l 377 974 q 382 968 382 973 l 382 795 q 377 789 382 789 l 201 789 q 195 795 195 789 l 195 968 q 201 974 196 974 m 399 974 l 575 974 q 581 968 581 973 l 581 795 q 575 789 581 789 l 399 789 q 393 795 393 789 l 393 968 q 399 974 394 974 m 597 974 l 770 974 q 776 968 776 973 l 776 795 q 770 789 776 789 l 597 789 q 591 795 591 789 l 591 968 q 597 974 592 974 m 795 974 l 806 974 q 955 873 892 974 q 974 806 974 835 l 974 795 q 968 789 974 789 l 795 789 q 789 795 789 789 l 789 968 q 795 974 790 974 m 5 779 l 179 779 q 184 773 184 778 l 184 597 q 179 591 184 591 l 5 591 q 0 597 0 591 l 0 773 q 5 779 1 779 m 795 779 l 968 779 q 974 773 974 778 l 974 689 q 968 684 974 684 l 795 684 q 789 689 789 684 l 789 773 q 795 779 790 779 m 5 581 l 179 581 q 184 575 184 580 l 184 399 q 179 393 184 393 l 5 393 q 0 399 0 393 l 0 575 q 5 581 1 581 m 399 581 l 575 581 q 581 575 581 580 l 581 399 q 575 393 581 393 l 399 393 q 393 399 393 393 l 393 575 q 399 581 394 581 m 597 581 l 770 581 q 776 575 776 580 l 776 399 q 770 393 776 393 l 597 393 q 591 399 591 393 l 591 575 q 597 581 592 581 m 795 581 l 968 581 q 974 575 974 580 l 974 399 q 968 393 974 393 l 795 393 q 789 399 789 393 l 789 575 q 795 581 790 581 m 5 382 l 179 382 q 184 377 184 382 l 184 201 q 179 195 184 195 l 5 195 q 0 201 0 195 l 0 377 q 5 382 1 382 m 795 382 l 968 382 q 974 377 974 382 l 974 201 q 968 195 974 195 l 795 195 q 789 201 789 195 l 789 377 q 795 382 790 382 m 5 184 l 179 184 q 184 179 184 184 l 184 5 q 179 0 184 0 l 168 0 q 14 111 75 0 q 0 174 0 144 l 0 179 q 5 184 1 184 m 201 184 l 377 184 q 382 179 382 184 l 382 5 q 377 0 382 0 l 201 0 q 195 5 195 0 l 195 179 q 201 184 196 184 m 399 184 l 575 184 q 581 179 581 184 l 581 5 q 575 0 581 0 l 399 0 q 393 5 393 0 l 393 179 q 399 184 394 184 m 597 184 l 770 184 q 776 179 776 184 l 776 5 q 770 0 776 0 l 597 0 q 591 5 591 0 l 591 179 q 597 184 592 184 m 795 184 l 968 184 q 974 179 974 184 l 974 168 q 873 19 974 81 q 806 0 835 0 l 795 0 q 789 5 789 0 l 789 179 q 795 184 790 184 z "},"h":{"ha":1183,"x_min":0,"x_max":977,"o":"m 5 974 l 179 974 q 184 968 184 973 l 184 795 q 179 789 184 789 l 5 789 q 0 795 0 789 l 0 968 q 5 974 1 974 m 795 974 l 971 974 q 977 968 977 973 l 977 795 q 971 789 977 789 l 795 789 q 789 795 789 789 l 789 968 q 795 974 790 974 m 5 779 l 179 779 q 184 773 184 778 l 184 597 q 179 591 184 591 l 5 591 q 0 597 0 591 l 0 773 q 5 779 1 779 m 795 779 l 971 779 q 977 773 977 778 l 977 597 q 971 591 977 591 l 795 591 q 789 597 789 591 l 789 773 q 795 779 790 779 m 5 581 l 179 581 q 184 575 184 580 l 184 399 q 179 393 184 393 l 5 393 q 0 399 0 393 l 0 575 q 5 581 1 581 m 399 581 l 575 581 q 581 575 581 580 l 581 399 q 575 393 581 393 l 399 393 q 393 399 393 393 l 393 575 q 399 581 394 581 m 795 581 l 971 581 q 977 575 977 580 l 977 399 q 971 393 977 393 l 795 393 q 789 399 789 393 l 789 575 q 795 581 790 581 m 5 382 l 179 382 q 184 377 184 382 l 184 201 q 179 195 184 195 l 5 195 q 0 201 0 195 l 0 377 q 5 382 1 382 m 795 382 l 971 382 q 977 377 977 382 l 977 201 q 971 195 977 195 l 795 195 q 789 201 789 195 l 789 377 q 795 382 790 382 m 5 184 l 179 184 q 184 179 184 184 l 184 5 q 179 0 184 0 l 5 0 q 0 5 0 0 l 0 179 q 5 184 1 184 m 795 184 l 971 184 q 977 179 977 184 l 977 5 q 971 0 977 0 l 795 0 q 789 5 789 0 l 789 179 q 795 184 790 184 m 5 974 l 179 974 q 184 968 184 973 l 184 795 q 179 789 184 789 l 5 789 q 0 795 0 789 l 0 968 q 5 974 1 974 m 795 974 l 968 974 q 974 968 974 973 l 974 795 q 968 789 974 789 l 795 789 q 789 795 789 789 l 789 968 q 795 974 790 974 m 5 779 l 179 779 q 184 773 184 778 l 184 597 q 179 591 184 591 l 5 591 q 0 597 0 591 l 0 773 q 5 779 1 779 m 795 779 l 968 779 q 974 773 974 778 l 974 597 q 968 591 974 591 l 795 591 q 789 597 789 591 l 789 773 q 795 779 790 779 m 5 581 l 179 581 q 184 575 184 580 l 184 399 q 179 393 184 393 l 5 393 q 0 399 0 393 l 0 575 q 5 581 1 581 m 201 581 l 377 581 q 382 575 382 580 l 382 399 q 377 393 382 393 l 201 393 q 195 399 195 393 l 195 575 q 201 581 196 581 m 399 581 l 575 581 q 581 575 581 580 l 581 399 q 575 393 581 393 l 399 393 q 393 399 393 393 l 393 575 q 399 581 394 581 m 597 581 l 770 581 q 776 575 776 580 l 776 399 q 770 393 776 393 l 597 393 q 591 399 591 393 l 591 575 q 597 581 592 581 m 795 581 l 968 581 q 974 575 974 580 l 974 399 q 968 393 974 393 l 795 393 q 789 399 789 393 l 789 575 q 795 581 790 581 m 5 382 l 179 382 q 184 377 184 382 l 184 201 q 179 195 184 195 l 5 195 q 0 201 0 195 l 0 377 q 5 382 1 382 m 795 382 l 968 382 q 974 377 974 382 l 974 201 q 968 195 974 195 l 795 195 q 789 201 789 195 l 789 377 q 795 382 790 382 m 5 184 l 179 184 q 184 179 184 184 l 184 5 q 179 0 184 0 l 5 0 q 0 5 0 0 l 0 179 q 5 184 1 184 m 795 184 l 968 184 q 974 179 974 184 l 974 5 q 968 0 974 0 l 795 0 q 789 5 789 0 l 789 179 q 795 184 790 184 z "},"i":{"ha":1183,"x_min":0,"x_max":974,"o":"m 5 974 l 179 974 q 184 968 184 973 l 184 795 q 179 789 184 789 l 5 789 q 0 795 0 789 l 0 968 q 5 974 1 974 m 201 974 l 377 974 q 382 968 382 973 l 382 795 q 377 789 382 789 l 201 789 q 195 795 195 789 l 195 968 q 201 974 196 974 m 399 974 l 575 974 q 581 968 581 973 l 581 795 q 575 789 581 789 l 399 789 q 393 795 393 789 l 393 968 q 399 974 394 974 m 597 974 l 770 974 q 776 968 776 973 l 776 795 q 770 789 776 789 l 597 789 q 591 795 591 789 l 591 968 q 597 974 592 974 m 795 974 l 968 974 q 974 968 974 973 l 974 795 q 968 789 974 789 l 795 789 q 789 795 789 789 l 789 968 q 795 974 790 974 m 399 779 l 575 779 q 581 773 581 778 l 581 597 q 575 591 581 591 l 399 591 q 393 597 393 591 l 393 773 q 399 779 394 779 m 399 581 l 575 581 q 581 575 581 580 l 581 399 q 575 393 581 393 l 399 393 q 393 399 393 393 l 393 575 q 399 581 394 581 m 399 382 l 575 382 q 581 377 581 382 l 581 201 q 575 195 581 195 l 399 195 q 393 201 393 195 l 393 377 q 399 382 394 382 m 5 184 l 179 184 q 184 179 184 184 l 184 5 q 179 0 184 0 l 5 0 q 0 5 0 0 l 0 179 q 5 184 1 184 m 201 184 l 377 184 q 382 179 382 184 l 382 5 q 377 0 382 0 l 201 0 q 195 5 195 0 l 195 179 q 201 184 196 184 m 399 184 l 575 184 q 581 179 581 184 l 581 5 q 575 0 581 0 l 399 0 q 393 5 393 0 l 393 179 q 399 184 394 184 m 597 184 l 770 184 q 776 179 776 184 l 776 5 q 770 0 776 0 l 597 0 q 591 5 591 0 l 591 179 q 597 184 592 184 m 795 184 l 968 184 q 974 179 974 184 l 974 5 q 968 0 974 0 l 795 0 q 789 5 789 0 l 789 179 q 795 184 790 184 z "},"j":{"ha":1183,"x_min":0,"x_max":974,"o":"m 795 974 l 968 974 q 974 968 974 973 l 974 795 q 968 789 974 789 l 795 789 q 789 795 789 789 l 789 968 q 795 974 790 974 m 795 779 l 968 779 q 974 773 974 778 l 974 597 q 968 591 974 591 l 795 591 q 789 597 789 591 l 789 773 q 795 779 790 779 m 795 581 l 968 581 q 974 575 974 580 l 974 399 q 968 393 974 393 l 795 393 q 789 399 789 393 l 789 575 q 795 581 790 581 m 5 382 l 179 382 q 184 377 184 382 l 184 201 q 179 195 184 195 l 5 195 q 0 201 0 195 l 0 377 q 5 382 1 382 m 795 382 l 968 382 q 974 377 974 382 l 974 201 q 968 195 974 195 l 795 195 q 789 201 789 195 l 789 377 q 795 382 790 382 m 5 184 l 179 184 q 184 179 184 184 l 184 5 q 179 0 184 0 l 168 0 q 19 100 81 0 q 0 168 0 139 l 0 179 q 5 184 1 184 m 201 184 l 377 184 q 382 179 382 184 l 382 5 q 377 0 382 0 l 201 0 q 195 5 195 0 l 195 179 q 201 184 196 184 m 399 184 l 575 184 q 581 179 581 184 l 581 5 q 575 0 581 0 l 399 0 q 393 5 393 0 l 393 179 q 399 184 394 184 m 597 184 l 770 184 q 776 179 776 184 l 776 5 q 770 0 776 0 l 597 0 q 591 5 591 0 l 591 179 q 597 184 592 184 m 795 184 l 968 184 q 974 179 974 184 l 974 168 q 873 19 974 81 q 806 0 835 0 l 795 0 q 789 5 789 0 l 789 179 q 795 184 790 184 z "},"k":{"ha":1183,"x_min":0,"x_max":974,"o":"m 5 974 l 179 974 q 184 968 184 973 l 184 795 q 179 789 184 789 l 5 789 q 0 795 0 789 l 0 968 q 5 974 1 974 m 795 974 l 968 974 q 974 968 974 973 l 974 795 q 968 789 974 789 l 795 789 q 789 795 789 789 l 789 968 q 795 974 790 974 m 5 779 l 179 779 q 184 773 184 778 l 184 597 q 179 591 184 591 l 5 591 q 0 597 0 591 l 0 773 q 5 779 1 779 m 795 779 l 968 779 q 974 773 974 778 l 974 597 q 968 591 974 591 l 795 591 q 789 597 789 591 l 789 773 q 795 779 790 779 m 5 581 l 179 581 q 184 575 184 580 l 184 399 q 179 393 184 393 l 5 393 q 0 399 0 393 l 0 575 q 5 581 1 581 m 203 581 l 377 581 q 382 575 382 580 l 382 399 q 377 393 382 393 l 203 393 q 198 399 198 393 l 198 575 q 203 581 199 581 m 399 581 l 575 581 q 581 575 581 580 l 581 399 q 575 393 581 393 l 399 393 q 393 399 393 393 l 393 575 q 399 581 394 581 m 597 581 l 770 581 q 776 575 776 580 l 776 399 q 770 393 776 393 l 597 393 q 591 399 591 393 l 591 575 q 597 581 592 581 m 795 581 l 968 581 q 974 575 974 580 q 917 486 958 527 q 974 396 966 437 l 968 393 l 795 393 q 789 399 789 393 l 789 575 q 795 581 790 581 m 5 382 l 179 382 q 184 377 184 382 l 184 201 q 179 195 184 195 l 5 195 q 0 201 0 195 l 0 377 q 5 382 1 382 m 795 382 l 968 382 q 974 377 974 382 l 974 201 q 968 195 974 195 l 795 195 q 789 201 789 195 l 789 377 q 795 382 790 382 m 5 184 l 179 184 q 184 179 184 184 l 184 5 q 179 0 184 0 l 5 0 q 0 5 0 0 l 0 179 q 5 184 1 184 m 795 184 l 968 184 q 974 179 974 184 l 974 5 q 968 0 974 0 l 795 0 q 789 5 789 0 l 789 179 q 795 184 790 184 z "},"l":{"ha":1183,"x_min":0,"x_max":974,"o":"m 5 974 l 179 974 q 184 968 184 973 l 184 795 q 179 789 184 789 l 5 789 q 0 795 0 789 l 0 968 q 5 974 1 974 m 5 779 l 179 779 q 184 773 184 778 l 184 597 q 179 591 184 591 l 5 591 q 0 597 0 591 l 0 773 q 5 779 1 779 m 5 581 l 179 581 q 184 575 184 580 l 184 399 q 179 393 184 393 l 5 393 q 0 399 0 393 l 0 575 q 5 581 1 581 m 5 382 l 179 382 q 184 377 184 382 l 184 201 q 179 195 184 195 l 5 195 q 0 201 0 195 l 0 377 q 5 382 1 382 m 5 184 l 179 184 q 184 179 184 184 l 184 5 q 179 0 184 0 l 5 0 q 0 5 0 0 l 0 179 q 5 184 1 184 m 201 184 l 377 184 q 382 179 382 184 l 382 5 q 377 0 382 0 l 201 0 q 195 5 195 0 l 195 179 q 201 184 196 184 m 399 184 l 575 184 q 581 179 581 184 l 581 5 q 575 0 581 0 l 399 0 q 393 5 393 0 l 393 179 q 399 184 394 184 m 597 184 l 770 184 q 776 179 776 184 l 776 5 q 770 0 776 0 l 597 0 q 591 5 591 0 l 591 179 q 597 184 592 184 m 795 184 l 968 184 q 974 179 974 184 l 974 5 q 968 0 974 0 l 795 0 q 789 5 789 0 l 789 179 q 795 184 790 184 z "},"m":{"ha":1183,"x_min":0,"x_max":974,"o":"m 5 974 l 179 974 q 184 968 184 973 l 184 795 q 179 789 184 789 l 5 789 q 0 795 0 789 l 0 968 q 5 974 1 974 m 203 974 l 377 974 q 382 968 382 973 l 382 795 q 377 789 382 789 l 203 789 q 198 795 198 789 l 198 968 q 203 974 199 974 m 399 974 q 488 917 444 961 q 578 974 543 974 l 581 968 l 581 795 q 575 789 581 789 l 399 789 q 393 795 393 789 l 393 968 q 399 974 394 974 m 597 974 l 773 974 q 779 968 779 973 l 779 795 q 773 789 779 789 l 597 789 q 591 795 591 789 l 591 968 q 597 974 592 974 m 795 974 l 968 974 q 974 968 974 973 l 974 795 q 968 789 974 789 l 795 789 q 789 795 789 789 l 789 968 q 795 974 790 974 m 5 779 l 179 779 q 184 773 184 778 l 184 597 q 179 591 184 591 l 5 591 q 0 597 0 591 l 0 773 q 5 779 1 779 m 399 779 l 575 779 q 581 773 581 778 l 581 597 q 575 591 581 591 l 399 591 q 393 597 393 591 l 393 773 q 399 779 394 779 m 795 779 l 968 779 q 974 773 974 778 l 974 597 q 968 591 974 591 l 795 591 q 789 597 789 591 l 789 773 q 795 779 790 779 m 5 581 l 179 581 q 184 575 184 580 l 184 399 q 179 393 184 393 l 5 393 q 0 399 0 393 l 0 575 q 5 581 1 581 m 399 581 l 575 581 q 581 575 581 580 l 581 399 q 575 393 581 393 l 399 393 q 393 399 393 393 l 393 575 q 399 581 394 581 m 795 581 l 968 581 q 974 575 974 580 l 974 399 q 968 393 974 393 l 795 393 q 789 399 789 393 l 789 575 q 795 581 790 581 m 5 382 l 179 382 q 184 377 184 382 l 184 201 q 179 195 184 195 l 5 195 q 0 201 0 195 l 0 377 q 5 382 1 382 m 399 382 l 575 382 q 581 377 581 382 l 581 201 q 575 195 581 195 l 399 195 q 393 201 393 195 l 393 377 q 399 382 394 382 m 795 382 l 968 382 q 974 377 974 382 l 974 201 q 968 195 974 195 l 795 195 q 789 201 789 195 l 789 377 q 795 382 790 382 m 5 184 l 179 184 q 184 179 184 184 l 184 5 q 179 0 184 0 l 5 0 q 0 5 0 0 l 0 179 q 5 184 1 184 m 399 184 l 575 184 q 581 179 581 184 l 581 5 q 575 0 581 0 l 399 0 q 393 5 393 0 l 393 179 q 399 184 394 184 m 795 184 l 968 184 q 974 179 974 184 l 974 5 q 968 0 974 0 l 795 0 q 789 5 789 0 l 789 179 q 795 184 790 184 z "},"n":{"ha":1183,"x_min":0,"x_max":974,"o":"m 5 974 l 179 974 q 184 968 184 973 l 184 795 q 179 789 184 789 l 5 789 q 0 795 0 789 l 0 968 q 5 974 1 974 m 795 974 l 968 974 q 974 968 974 973 l 974 795 q 968 789 974 789 l 795 789 q 789 795 789 789 l 789 968 q 795 974 790 974 m 5 779 l 179 779 q 184 773 184 778 l 184 597 q 179 591 184 591 l 5 591 q 0 597 0 591 l 0 773 q 5 779 1 779 m 201 779 l 377 779 q 382 773 382 778 l 382 597 q 377 591 382 591 l 201 591 q 195 597 195 591 l 195 773 q 201 779 196 779 m 795 779 l 968 779 q 974 773 974 778 l 974 597 q 968 591 974 591 l 795 591 q 789 597 789 591 l 789 773 q 795 779 790 779 m 5 581 l 179 581 q 184 575 184 580 l 184 399 q 179 393 184 393 l 5 393 q 0 399 0 393 l 0 575 q 5 581 1 581 m 399 581 l 575 581 q 581 575 581 580 l 581 399 q 575 393 581 393 l 399 393 q 393 399 393 393 l 393 575 q 399 581 394 581 m 795 581 l 968 581 q 974 575 974 580 l 974 399 q 968 393 974 393 l 795 393 q 789 399 789 393 l 789 575 q 795 581 790 581 m 5 382 l 179 382 q 184 377 184 382 l 184 201 q 179 195 184 195 l 5 195 q 0 201 0 195 l 0 377 q 5 382 1 382 m 597 382 l 770 382 q 776 377 776 382 l 776 201 q 770 195 776 195 l 597 195 q 591 201 591 195 l 591 377 q 597 382 592 382 m 795 382 l 968 382 q 974 377 974 382 l 974 201 q 968 195 974 195 l 795 195 q 789 201 789 195 l 789 377 q 795 382 790 382 m 5 184 l 179 184 q 184 179 184 184 l 184 5 q 179 0 184 0 l 5 0 q 0 5 0 0 l 0 179 q 5 184 1 184 m 795 184 l 968 184 q 974 179 974 184 l 974 5 q 968 0 974 0 l 795 0 q 789 5 789 0 l 789 179 q 795 184 790 184 z "},"o":{"ha":1183,"x_min":0,"x_max":974,"o":"m 168 974 l 179 974 q 184 968 184 973 l 184 795 q 179 789 184 789 l 5 789 q 0 795 0 789 l 0 806 q 100 955 0 892 q 168 974 139 974 m 201 974 l 377 974 q 382 968 382 973 l 382 795 q 377 789 382 789 l 201 789 q 195 795 195 789 l 195 968 q 201 974 196 974 m 399 974 l 575 974 q 581 968 581 973 l 581 795 q 575 789 581 789 l 399 789 q 393 795 393 789 l 393 968 q 399 974 394 974 m 597 974 l 770 974 q 776 968 776 973 l 776 795 q 770 789 776 789 l 597 789 q 591 795 591 789 l 591 968 q 597 974 592 974 m 795 974 l 806 974 q 955 873 892 974 q 974 806 974 835 l 974 795 q 968 789 974 789 l 795 789 q 789 795 789 789 l 789 968 q 795 974 790 974 m 5 779 l 179 779 q 184 773 184 778 l 184 597 q 179 591 184 591 l 5 591 q 0 597 0 591 l 0 773 q 5 779 1 779 m 795 779 l 968 779 q 974 773 974 778 l 974 597 q 968 591 974 591 l 795 591 q 789 597 789 591 l 789 773 q 795 779 790 779 m 5 581 l 179 581 q 184 575 184 580 l 184 399 q 179 393 184 393 l 5 393 q 0 399 0 393 l 0 575 q 5 581 1 581 m 795 581 l 968 581 q 974 575 974 580 l 974 399 q 968 393 974 393 l 795 393 q 789 399 789 393 l 789 575 q 795 581 790 581 m 5 382 l 179 382 q 184 377 184 382 l 184 201 q 179 195 184 195 l 5 195 q 0 201 0 195 l 0 377 q 5 382 1 382 m 795 382 l 968 382 q 974 377 974 382 l 974 201 q 968 195 974 195 l 795 195 q 789 201 789 195 l 789 377 q 795 382 790 382 m 5 184 l 179 184 q 184 179 184 184 l 184 5 q 179 0 184 0 l 168 0 q 19 100 81 0 q 0 168 0 139 l 0 179 q 5 184 1 184 m 201 184 l 377 184 q 382 179 382 184 l 382 5 q 377 0 382 0 l 201 0 q 195 5 195 0 l 195 179 q 201 184 196 184 m 399 184 l 575 184 q 581 179 581 184 l 581 5 q 575 0 581 0 l 399 0 q 393 5 393 0 l 393 179 q 399 184 394 184 m 597 184 l 770 184 q 776 179 776 184 l 776 5 q 770 0 776 0 l 597 0 q 591 5 591 0 l 591 179 q 597 184 592 184 m 795 184 l 968 184 q 974 179 974 184 l 974 168 q 873 19 974 81 q 806 0 835 0 l 795 0 q 789 5 789 0 l 789 179 q 795 184 790 184 z "},"p":{"ha":1183,"x_min":0,"x_max":974,"o":"m 5 974 l 179 974 q 184 968 184 973 l 184 795 q 179 789 184 789 l 5 789 q 0 795 0 789 l 0 968 q 5 974 1 974 m 203 974 l 377 974 q 382 968 382 973 l 382 795 q 377 789 382 789 l 203 789 q 198 795 198 789 l 198 968 q 203 974 199 974 m 399 974 l 575 974 q 581 968 581 973 l 581 795 q 575 789 581 789 l 399 789 q 393 795 393 789 l 393 968 q 399 974 394 974 m 597 974 l 773 974 q 779 968 779 973 l 779 795 q 773 789 779 789 l 597 789 q 591 795 591 789 l 591 968 q 597 974 592 974 m 795 974 l 806 974 q 960 863 899 974 q 974 800 974 829 l 974 795 q 968 789 974 789 l 795 789 q 789 795 789 789 l 789 968 q 795 974 790 974 m 5 779 l 179 779 q 184 773 184 778 l 184 597 q 179 591 184 591 l 5 591 q 0 597 0 591 l 0 773 q 5 779 1 779 m 795 779 l 968 779 q 974 773 974 778 l 974 597 q 968 591 974 591 l 795 591 q 789 597 789 591 l 789 773 q 795 779 790 779 m 5 581 l 179 581 q 184 575 184 580 l 184 399 q 179 393 184 393 l 5 393 q 0 399 0 393 l 0 575 q 5 581 1 581 m 203 581 l 377 581 q 382 575 382 580 l 382 399 q 377 393 382 393 l 203 393 q 198 399 198 393 l 198 575 q 203 581 199 581 m 399 581 l 575 581 q 581 575 581 580 l 581 399 q 575 393 581 393 l 399 393 q 393 399 393 393 l 393 575 q 399 581 394 581 m 597 581 l 770 581 q 776 575 776 580 l 776 399 q 770 393 776 393 l 597 393 q 591 399 591 393 l 591 575 q 597 581 592 581 m 795 581 l 968 581 q 974 575 974 580 l 974 567 q 860 407 974 468 q 792 393 819 393 l 789 399 l 789 575 q 795 581 790 581 m 5 382 l 179 382 q 184 377 184 382 l 184 201 q 179 195 184 195 l 5 195 q 0 201 0 195 l 0 377 q 5 382 1 382 m 5 184 l 179 184 q 184 179 184 184 l 184 5 q 179 0 184 0 l 5 0 q 0 5 0 0 l 0 179 q 5 184 1 184 z "},"q":{"ha":1183,"x_min":0,"x_max":974,"o":"m 168 974 l 179 974 q 184 968 184 973 l 184 795 q 179 789 184 789 l 5 789 q 0 795 0 789 l 0 806 q 100 955 0 892 q 168 974 139 974 m 201 974 l 377 974 q 382 968 382 973 l 382 795 q 377 789 382 789 l 201 789 q 195 795 195 789 l 195 968 q 201 974 196 974 m 399 974 l 575 974 q 581 968 581 973 l 581 795 q 575 789 581 789 l 399 789 q 393 795 393 789 l 393 968 q 399 974 394 974 m 597 974 l 770 974 q 776 968 776 973 l 776 795 q 770 789 776 789 l 597 789 q 591 795 591 789 l 591 968 q 597 974 592 974 m 795 974 l 806 974 q 955 873 892 974 q 974 806 974 835 l 974 795 q 968 789 974 789 l 795 789 q 789 795 789 789 l 789 968 q 795 974 790 974 m 5 779 l 179 779 q 184 773 184 778 l 184 597 q 179 591 184 591 l 5 591 q 0 597 0 591 l 0 773 q 5 779 1 779 m 795 779 l 968 779 q 974 773 974 778 l 974 597 q 968 591 974 591 l 795 591 q 789 597 789 591 l 789 773 q 795 779 790 779 m 5 581 l 179 581 q 184 575 184 580 l 184 399 q 179 393 184 393 l 5 393 q 0 399 0 393 l 0 575 q 5 581 1 581 m 795 581 l 968 581 q 974 575 974 580 l 974 399 q 968 393 974 393 l 795 393 q 789 399 789 393 l 789 575 q 795 581 790 581 m 5 382 l 179 382 q 184 377 184 382 l 184 201 q 179 195 184 195 l 5 195 q 0 201 0 195 l 0 377 q 5 382 1 382 m 399 382 l 575 382 q 581 377 581 382 l 581 201 q 575 195 581 195 l 399 195 q 393 201 393 195 l 393 377 q 399 382 394 382 m 795 382 l 968 382 q 974 377 974 382 l 974 201 q 968 195 974 195 l 795 195 q 789 201 789 195 l 789 377 q 795 382 790 382 m 5 184 l 179 184 q 184 179 184 184 l 184 5 q 179 0 184 0 l 168 0 q 19 100 81 0 q 0 168 0 139 l 0 179 q 5 184 1 184 m 201 184 l 377 184 q 382 179 382 184 l 382 5 q 377 0 382 0 l 201 0 q 195 5 195 0 l 195 179 q 201 184 196 184 m 399 184 l 575 184 q 581 179 581 184 l 581 5 q 575 0 581 0 l 399 0 q 393 5 393 0 l 393 179 q 399 184 394 184 m 597 184 l 770 184 q 776 179 776 184 l 776 5 q 770 0 776 0 l 597 0 q 591 5 591 0 l 591 179 q 597 184 592 184 m 795 184 l 968 184 q 974 179 974 184 l 974 168 q 873 19 974 81 q 806 0 835 0 l 795 0 q 789 5 789 0 l 789 179 q 795 184 790 184 z "},"r":{"ha":1183,"x_min":0,"x_max":974,"o":"m 5 974 l 179 974 q 184 968 184 973 l 184 795 q 179 789 184 789 l 5 789 q 0 795 0 789 l 0 968 q 5 974 1 974 m 203 974 l 377 974 q 382 968 382 973 l 382 795 q 377 789 382 789 l 203 789 q 198 795 198 789 l 198 968 q 203 974 199 974 m 399 974 l 575 974 q 581 968 581 973 l 581 795 q 575 789 581 789 l 399 789 q 393 795 393 789 l 393 968 q 399 974 394 974 m 597 974 l 773 974 q 779 968 779 973 l 779 795 q 773 789 779 789 l 597 789 q 591 795 591 789 l 591 968 q 597 974 592 974 m 795 974 l 806 974 q 960 863 899 974 q 974 800 974 829 l 974 795 q 968 789 974 789 l 795 789 q 789 795 789 789 l 789 968 q 795 974 790 974 m 5 779 l 179 779 q 184 773 184 778 l 184 597 q 179 591 184 591 l 5 591 q 0 597 0 591 l 0 773 q 5 779 1 779 m 795 779 l 968 779 q 974 773 974 778 l 974 597 q 968 591 974 591 l 795 591 q 789 597 789 591 l 789 773 q 795 779 790 779 m 5 581 l 179 581 q 184 575 184 580 l 184 399 q 179 393 184 393 l 5 393 q 0 399 0 393 l 0 575 q 5 581 1 581 m 203 581 l 377 581 q 382 575 382 580 l 382 399 q 377 393 382 393 l 203 393 q 198 399 198 393 l 198 575 q 203 581 199 581 m 399 581 l 575 581 q 581 575 581 580 l 581 399 q 575 393 581 393 l 399 393 q 393 399 393 393 l 393 575 q 399 581 394 581 m 597 581 l 770 581 q 776 575 776 580 l 776 399 q 770 393 776 393 l 597 393 q 591 399 591 393 l 591 575 q 597 581 592 581 m 795 581 l 968 581 q 974 575 974 580 q 917 486 958 527 q 974 396 966 437 l 968 393 l 795 393 q 789 399 789 393 l 789 575 q 795 581 790 581 m 5 382 l 179 382 q 184 377 184 382 l 184 201 q 179 195 184 195 l 5 195 q 0 201 0 195 l 0 377 q 5 382 1 382 m 795 382 l 968 382 q 974 377 974 382 l 974 201 q 968 195 974 195 l 795 195 q 789 201 789 195 l 789 377 q 795 382 790 382 m 5 184 l 179 184 q 184 179 184 184 l 184 5 q 179 0 184 0 l 5 0 q 0 5 0 0 l 0 179 q 5 184 1 184 m 795 184 l 968 184 q 974 179 974 184 l 974 5 q 968 0 974 0 l 795 0 q 789 5 789 0 l 789 179 q 795 184 790 184 z "},"s":{"ha":1183,"x_min":0,"x_max":974,"o":"m 168 974 l 179 974 q 184 968 184 973 l 184 795 q 179 789 184 789 l 5 789 q 0 795 0 789 l 0 806 q 100 955 0 892 q 168 974 139 974 m 203 974 l 377 974 q 382 968 382 973 l 382 795 q 377 789 382 789 l 203 789 q 198 795 198 789 l 198 968 q 203 974 199 974 m 399 974 l 575 974 q 581 968 581 973 l 581 795 q 575 789 581 789 l 399 789 q 393 795 393 789 l 393 968 q 399 974 394 974 m 597 974 l 773 974 q 779 968 779 973 l 779 795 q 773 789 779 789 l 597 789 q 591 795 591 789 l 591 968 q 597 974 592 974 m 795 974 l 806 974 q 955 873 892 974 q 974 806 974 835 l 974 795 q 968 789 974 789 l 795 789 q 789 795 789 789 l 789 968 q 795 974 790 974 m 5 779 l 179 779 q 184 773 184 778 l 184 597 q 179 591 184 591 l 5 591 q 0 597 0 591 l 0 773 q 5 779 1 779 m 795 779 l 968 779 q 974 773 974 778 l 974 689 q 968 684 974 684 l 795 684 q 789 689 789 684 l 789 773 q 795 779 790 779 m 5 581 l 179 581 q 184 575 184 580 l 184 399 q 179 393 184 393 q 11 513 70 393 q 0 567 0 542 l 0 575 q 5 581 1 581 m 203 581 l 377 581 q 382 575 382 580 l 382 399 q 377 393 382 393 l 203 393 q 198 399 198 393 l 198 575 q 203 581 199 581 m 399 581 l 575 581 q 581 575 581 580 l 581 399 q 575 393 581 393 l 399 393 q 393 399 393 393 l 393 575 q 399 581 394 581 m 597 581 l 773 581 q 779 575 779 580 l 779 399 q 773 393 779 393 l 597 393 q 591 399 591 393 l 591 575 q 597 581 592 581 m 795 581 q 963 461 904 581 q 974 407 974 432 l 974 399 q 968 393 974 393 l 795 393 q 789 399 789 393 l 789 575 q 795 581 790 581 m 795 382 l 968 382 q 974 377 974 382 l 974 201 q 968 195 974 195 l 795 195 q 789 201 789 195 l 789 377 q 795 382 790 382 m 5 290 l 179 290 q 184 285 184 290 l 184 201 q 179 195 184 195 l 5 195 q 0 201 0 195 l 0 285 q 5 290 1 290 m 5 184 l 179 184 q 184 179 184 184 l 184 5 q 179 0 184 0 l 168 0 q 19 100 81 0 q 0 168 0 139 l 0 179 q 5 184 1 184 m 203 184 l 377 184 q 382 179 382 184 l 382 5 q 377 0 382 0 l 203 0 q 198 5 198 0 l 198 179 q 203 184 199 184 m 399 184 l 575 184 q 581 179 581 184 l 581 5 q 575 0 581 0 l 399 0 q 393 5 393 0 l 393 179 q 399 184 394 184 m 597 184 l 773 184 q 779 179 779 184 l 779 5 q 773 0 779 0 l 597 0 q 591 5 591 0 l 591 179 q 597 184 592 184 m 795 184 l 968 184 q 974 179 974 184 l 974 168 q 873 19 974 81 q 806 0 835 0 l 795 0 q 789 5 789 0 l 789 179 q 795 184 790 184 z "},"t":{"ha":1183,"x_min":0,"x_max":974,"o":"m 5 974 l 179 974 q 184 968 184 973 l 184 795 q 179 789 184 789 l 5 789 q 0 795 0 789 l 0 968 q 5 974 1 974 m 201 974 l 377 974 q 382 968 382 973 l 382 795 q 377 789 382 789 l 201 789 q 195 795 195 789 l 195 968 q 201 974 196 974 m 399 974 l 575 974 q 581 968 581 973 l 581 795 q 575 789 581 789 l 399 789 q 393 795 393 789 l 393 968 q 399 974 394 974 m 597 974 l 770 974 q 776 968 776 973 l 776 795 q 770 789 776 789 l 597 789 q 591 795 591 789 l 591 968 q 597 974 592 974 m 795 974 l 968 974 q 974 968 974 973 l 974 795 q 968 789 974 789 l 795 789 q 789 795 789 789 l 789 968 q 795 974 790 974 m 399 779 l 575 779 q 581 773 581 778 l 581 597 q 575 591 581 591 l 399 591 q 393 597 393 591 l 393 773 q 399 779 394 779 m 399 581 l 575 581 q 581 575 581 580 l 581 399 q 575 393 581 393 l 399 393 q 393 399 393 393 l 393 575 q 399 581 394 581 m 399 382 l 575 382 q 581 377 581 382 l 581 201 q 575 195 581 195 l 399 195 q 393 201 393 195 l 393 377 q 399 382 394 382 m 399 184 l 575 184 q 581 179 581 184 l 581 5 q 575 0 581 0 l 399 0 q 393 5 393 0 l 393 179 q 399 184 394 184 z "},"u":{"ha":1183,"x_min":0,"x_max":974,"o":"m 5 974 l 179 974 q 184 968 184 973 l 184 795 q 179 789 184 789 l 5 789 q 0 795 0 789 l 0 968 q 5 974 1 974 m 795 974 l 968 974 q 974 968 974 973 l 974 795 q 968 789 974 789 l 795 789 q 789 795 789 789 l 789 968 q 795 974 790 974 m 5 779 l 179 779 q 184 773 184 778 l 184 597 q 179 591 184 591 l 5 591 q 0 597 0 591 l 0 773 q 5 779 1 779 m 795 779 l 968 779 q 974 773 974 778 l 974 597 q 968 591 974 591 l 795 591 q 789 597 789 591 l 789 773 q 795 779 790 779 m 5 581 l 179 581 q 184 575 184 580 l 184 399 q 179 393 184 393 l 5 393 q 0 399 0 393 l 0 575 q 5 581 1 581 m 795 581 l 968 581 q 974 575 974 580 l 974 399 q 968 393 974 393 l 795 393 q 789 399 789 393 l 789 575 q 795 581 790 581 m 5 382 l 179 382 q 184 377 184 382 l 184 201 q 179 195 184 195 l 5 195 q 0 201 0 195 l 0 377 q 5 382 1 382 m 795 382 l 968 382 q 974 377 974 382 l 974 201 q 968 195 974 195 l 795 195 q 789 201 789 195 l 789 377 q 795 382 790 382 m 5 184 l 179 184 q 184 179 184 184 l 184 5 q 179 0 184 0 l 168 0 q 19 100 81 0 q 0 168 0 139 l 0 179 q 5 184 1 184 m 203 184 l 377 184 q 382 179 382 184 l 382 5 q 377 0 382 0 l 203 0 q 198 5 198 0 l 198 179 q 203 184 199 184 m 399 184 l 575 184 q 581 179 581 184 l 581 5 q 575 0 581 0 l 399 0 q 393 5 393 0 l 393 179 q 399 184 394 184 m 597 184 l 773 184 q 779 179 779 184 l 779 5 q 773 0 779 0 l 597 0 q 591 5 591 0 l 591 179 q 597 184 592 184 m 795 184 l 968 184 q 974 179 974 184 l 974 168 q 873 19 974 81 q 806 0 835 0 l 795 0 q 789 5 789 0 l 789 179 q 795 184 790 184 z "},"v":{"ha":1183,"x_min":0,"x_max":974,"o":"m 5 974 l 179 974 q 184 968 184 973 l 184 795 q 179 789 184 789 l 5 789 q 0 795 0 789 l 0 968 q 5 974 1 974 m 795 974 l 968 974 q 974 968 974 973 l 974 795 q 968 789 974 789 l 795 789 q 789 795 789 789 l 789 968 q 795 974 790 974 m 5 779 l 179 779 q 184 773 184 778 l 184 597 q 179 591 184 591 l 5 591 q 0 597 0 591 l 0 773 q 5 779 1 779 m 795 779 l 968 779 q 974 773 974 778 l 974 597 q 968 591 974 591 l 795 591 q 789 597 789 591 l 789 773 q 795 779 790 779 m 5 581 l 179 581 q 184 575 184 580 l 184 399 q 179 393 184 393 l 5 393 q 0 399 0 393 l 0 575 q 5 581 1 581 m 795 581 l 968 581 q 974 575 974 580 l 974 399 q 968 393 974 393 l 795 393 q 789 399 789 393 l 789 575 q 795 581 790 581 m 201 382 l 377 382 q 382 377 382 382 l 382 201 q 377 195 382 195 l 201 195 q 195 201 195 195 l 195 377 q 201 382 196 382 m 597 382 l 773 382 q 779 377 779 382 l 779 201 q 773 195 779 195 l 597 195 q 591 201 591 195 l 591 377 q 597 382 592 382 m 399 184 l 575 184 q 581 179 581 184 l 581 5 q 575 0 581 0 l 399 0 q 393 5 393 0 l 393 179 q 399 184 394 184 z "},"w":{"ha":1183,"x_min":0,"x_max":974,"o":"m 5 0 q 0 5 1 0 l 0 179 q 5 184 0 184 l 179 184 q 184 179 184 184 l 184 5 q 179 0 184 1 l 5 0 m 203 0 q 198 5 199 0 l 198 179 q 203 184 198 184 l 377 184 q 382 179 382 184 l 382 5 q 377 0 382 1 l 203 0 m 399 0 q 393 5 394 0 l 393 179 q 399 184 393 184 l 575 184 q 581 179 581 184 l 581 5 l 578 0 q 488 57 543 0 q 399 0 444 13 m 597 0 q 591 5 592 0 l 591 179 q 597 184 591 184 l 773 184 q 779 179 779 184 l 779 5 q 773 0 779 1 l 597 0 m 795 0 q 789 5 790 0 l 789 179 q 795 184 789 184 l 968 184 q 974 179 974 184 l 974 5 q 968 0 974 1 l 795 0 m 5 195 q 0 201 1 195 l 0 377 q 5 382 0 382 l 179 382 q 184 377 184 382 l 184 201 q 179 195 184 196 l 5 195 m 399 195 q 393 201 394 195 l 393 377 q 399 382 393 382 l 575 382 q 581 377 581 382 l 581 201 q 575 195 581 196 l 399 195 m 795 195 q 789 201 790 195 l 789 377 q 795 382 789 382 l 968 382 q 974 377 974 382 l 974 201 q 968 195 974 196 l 795 195 m 5 393 q 0 399 1 393 l 0 575 q 5 581 0 581 l 179 581 q 184 575 184 581 l 184 399 q 179 393 184 394 l 5 393 m 399 393 q 393 399 394 393 l 393 575 q 399 581 393 581 l 575 581 q 581 575 581 581 l 581 399 q 575 393 581 394 l 399 393 m 795 393 q 789 399 790 393 l 789 575 q 795 581 789 581 l 968 581 q 974 575 974 581 l 974 399 q 968 393 974 394 l 795 393 m 5 591 q 0 597 1 591 l 0 773 q 5 779 0 779 l 179 779 q 184 773 184 779 l 184 597 q 179 591 184 592 l 5 591 m 399 591 q 393 597 394 591 l 393 773 q 399 779 393 779 l 575 779 q 581 773 581 779 l 581 597 q 575 591 581 592 l 399 591 m 795 591 q 789 597 790 591 l 789 773 q 795 779 789 779 l 968 779 q 974 773 974 779 l 974 597 q 968 591 974 592 l 795 591 m 5 789 q 0 795 1 789 l 0 968 q 5 974 0 974 l 179 974 q 184 968 184 974 l 184 795 q 179 789 184 790 l 5 789 m 399 789 q 393 795 394 789 l 393 968 q 399 974 393 974 l 575 974 q 581 968 581 974 l 581 795 q 575 789 581 790 l 399 789 m 795 789 q 789 795 790 789 l 789 968 q 795 974 789 974 l 968 974 q 974 968 974 974 l 974 795 q 968 789 974 790 l 795 789 z "},"x":{"ha":1183,"x_min":0,"x_max":974,"o":"m 5 974 l 179 974 q 184 968 184 973 l 184 795 q 179 789 184 789 l 5 789 q 0 795 0 789 l 0 968 q 5 974 1 974 m 795 974 l 968 974 q 974 968 974 973 l 974 795 q 968 789 974 789 l 795 789 q 789 795 789 789 l 789 968 q 795 974 790 974 m 201 779 l 377 779 q 382 773 382 778 l 382 597 q 377 591 382 591 l 201 591 q 195 597 195 591 l 195 773 q 201 779 196 779 m 597 779 l 770 779 q 776 773 776 778 l 776 597 q 770 591 776 591 l 597 591 q 591 597 591 591 l 591 773 q 597 779 592 779 m 399 581 l 575 581 q 581 575 581 580 l 581 399 q 575 393 581 393 l 399 393 q 393 399 393 393 l 393 575 q 399 581 394 581 m 201 382 l 377 382 q 382 377 382 382 l 382 201 q 377 195 382 195 l 201 195 q 195 201 195 195 l 195 377 q 201 382 196 382 m 597 382 l 770 382 q 776 377 776 382 l 776 201 q 770 195 776 195 l 597 195 q 591 201 591 195 l 591 377 q 597 382 592 382 m 5 184 l 179 184 q 184 179 184 184 l 184 5 q 179 0 184 0 l 5 0 q 0 5 0 0 l 0 179 q 5 184 1 184 m 795 184 l 968 184 q 974 179 974 184 l 974 5 q 968 0 974 0 l 795 0 q 789 5 789 0 l 789 179 q 795 184 790 184 z "},"y":{"ha":1183,"x_min":0,"x_max":974,"o":"m 5 974 l 179 974 q 184 968 184 973 l 184 795 q 179 789 184 789 l 5 789 q 0 795 0 789 l 0 968 q 5 974 1 974 m 795 974 l 968 974 q 974 968 974 973 l 974 795 q 968 789 974 789 l 795 789 q 789 795 789 789 l 789 968 q 795 974 790 974 m 5 779 l 179 779 q 184 773 184 778 l 184 597 q 179 591 184 591 l 5 591 q 0 597 0 591 l 0 773 q 5 779 1 779 m 795 779 l 968 779 q 974 773 974 778 l 974 597 q 968 591 974 591 l 795 591 q 789 597 789 591 l 789 773 q 795 779 790 779 m 5 581 l 179 581 q 184 575 184 580 l 184 399 q 179 393 184 393 q 11 513 70 393 q 0 567 0 542 l 0 575 q 5 581 1 581 m 201 581 l 377 581 q 382 575 382 580 l 382 399 q 377 393 382 393 l 201 393 q 195 399 195 393 l 195 575 q 201 581 196 581 m 399 581 l 575 581 q 581 575 581 580 l 581 399 q 575 393 581 393 l 399 393 q 393 399 393 393 l 393 575 q 399 581 394 581 m 597 581 l 773 581 q 779 575 779 580 l 779 399 q 773 393 779 393 l 597 393 q 591 399 591 393 l 591 575 q 597 581 592 581 m 795 581 l 968 581 q 974 575 974 580 l 974 567 q 857 407 974 465 q 792 393 823 393 l 789 399 l 789 575 q 795 581 790 581 m 399 382 l 575 382 q 581 377 581 382 l 581 201 q 575 195 581 195 l 399 195 q 393 201 393 195 l 393 377 q 399 382 394 382 m 399 184 l 575 184 q 581 179 581 184 l 581 5 q 575 0 581 0 l 399 0 q 393 5 393 0 l 393 179 q 399 184 394 184 z "},"z":{"ha":1183,"x_min":0,"x_max":974,"o":"m 5 974 l 179 974 q 184 968 184 973 l 184 795 q 179 789 184 789 l 5 789 q 0 795 0 789 l 0 968 q 5 974 1 974 m 201 974 l 377 974 q 382 968 382 973 l 382 795 q 377 789 382 789 l 201 789 q 195 795 195 789 l 195 968 q 201 974 196 974 m 399 974 l 575 974 q 581 968 581 973 l 581 795 q 575 789 581 789 l 399 789 q 393 795 393 789 l 393 968 q 399 974 394 974 m 597 974 l 773 974 q 779 968 779 973 l 779 795 q 773 789 779 789 l 597 789 q 591 795 591 789 l 591 968 q 597 974 592 974 m 795 974 l 968 974 q 974 968 974 973 l 974 795 q 968 789 974 789 l 795 789 q 789 795 789 789 l 789 968 q 795 974 790 974 m 597 779 l 773 779 q 779 773 779 778 l 779 597 q 773 591 779 591 l 597 591 q 591 597 591 591 l 591 773 q 597 779 592 779 m 399 581 l 575 581 q 581 575 581 580 l 581 399 q 575 393 581 393 l 399 393 q 393 399 393 393 l 393 575 q 399 581 394 581 m 201 382 l 377 382 q 382 377 382 382 l 382 201 q 377 195 382 195 l 201 195 q 195 201 195 195 l 195 377 q 201 382 196 382 m 5 184 l 179 184 q 184 179 184 184 l 184 5 q 179 0 184 0 l 5 0 q 0 5 0 0 l 0 179 q 5 184 1 184 m 201 184 l 377 184 q 382 179 382 184 l 382 5 q 377 0 382 0 l 201 0 q 195 5 195 0 l 195 179 q 201 184 196 184 m 399 184 l 575 184 q 581 179 581 184 l 581 5 q 575 0 581 0 l 399 0 q 393 5 393 0 l 393 179 q 399 184 394 184 m 597 184 l 773 184 q 779 179 779 184 l 779 5 q 773 0 779 0 l 597 0 q 591 5 591 0 l 591 179 q 597 184 592 184 m 795 184 l 968 184 q 974 179 974 184 l 974 5 q 968 0 974 0 l 795 0 q 789 5 789 0 l 789 179 q 795 184 790 184 z "},"{":{"ha":1183,"x_min":0,"x_max":977,"o":"m 5 974 l 179 974 q 184 968 184 973 l 184 795 q 179 789 184 789 l 5 789 q 0 795 0 789 l 0 968 q 5 974 1 974 m 201 974 l 377 974 q 382 968 382 973 l 382 795 q 377 789 382 789 l 201 789 q 195 795 195 789 l 195 968 q 201 974 196 974 m 399 974 l 575 974 q 581 968 581 973 l 581 795 q 575 789 581 789 l 399 789 q 393 795 393 789 l 393 968 q 399 974 394 974 m 597 974 l 770 974 q 776 968 776 973 l 776 795 q 770 789 776 789 l 597 789 q 591 795 591 789 l 591 968 q 597 974 592 974 m 795 974 l 971 974 q 977 968 977 973 l 977 795 q 971 789 977 789 l 795 789 q 789 795 789 789 l 789 968 q 795 974 790 974 m 5 779 l 179 779 q 184 773 184 778 l 184 597 q 179 591 184 591 l 5 591 q 0 597 0 591 l 0 773 q 5 779 1 779 m 795 779 l 971 779 q 977 773 977 778 l 977 597 q 971 591 977 591 l 795 591 q 789 597 789 591 l 789 773 q 795 779 790 779 m 5 581 l 179 581 q 184 575 184 580 l 184 399 q 179 393 184 393 l 5 393 q 0 399 0 393 l 0 575 q 5 581 1 581 m 399 581 l 575 581 q 581 575 581 580 l 581 399 q 575 393 581 393 l 399 393 q 393 399 393 393 l 393 575 q 399 581 394 581 m 795 581 l 971 581 q 977 575 977 580 l 977 399 q 971 393 977 393 l 795 393 q 789 399 789 393 l 789 575 q 795 581 790 581 m 5 382 l 179 382 q 184 377 184 382 l 184 201 q 179 195 184 195 l 5 195 q 0 201 0 195 l 0 377 q 5 382 1 382 m 795 382 l 971 382 q 977 377 977 382 l 977 201 q 971 195 977 195 l 795 195 q 789 201 789 195 l 789 377 q 795 382 790 382 m 5 184 l 179 184 q 184 179 184 184 l 184 5 q 179 0 184 0 l 5 0 q 0 5 0 0 l 0 179 q 5 184 1 184 m 201 184 l 377 184 q 382 179 382 184 l 382 5 q 377 0 382 0 l 201 0 q 195 5 195 0 l 195 179 q 201 184 196 184 m 399 184 l 575 184 q 581 179 581 184 l 581 5 q 575 0 581 0 l 399 0 q 393 5 393 0 l 393 179 q 399 184 394 184 m 597 184 l 770 184 q 776 179 776 184 l 776 5 q 770 0 776 0 l 597 0 q 591 5 591 0 l 591 179 q 597 184 592 184 m 795 184 l 971 184 q 977 179 977 184 l 977 5 q 971 0 977 0 l 795 0 q 789 5 789 0 l 789 179 q 795 184 790 184 z "},"|":{"ha":1183,"x_min":0,"x_max":977,"o":"m 5 974 l 179 974 q 184 968 184 973 l 184 795 q 179 789 184 789 l 5 789 q 0 795 0 789 l 0 968 q 5 974 1 974 m 201 974 l 377 974 q 382 968 382 973 l 382 795 q 377 789 382 789 l 201 789 q 195 795 195 789 l 195 968 q 201 974 196 974 m 399 974 l 575 974 q 581 968 581 973 l 581 795 q 575 789 581 789 l 399 789 q 393 795 393 789 l 393 968 q 399 974 394 974 m 597 974 l 770 974 q 776 968 776 973 l 776 795 q 770 789 776 789 l 597 789 q 591 795 591 789 l 591 968 q 597 974 592 974 m 795 974 l 971 974 q 977 968 977 973 l 977 795 q 971 789 977 789 l 795 789 q 789 795 789 789 l 789 968 q 795 974 790 974 m 5 779 l 179 779 q 184 773 184 778 l 184 597 q 179 591 184 591 l 5 591 q 0 597 0 591 l 0 773 q 5 779 1 779 m 795 779 l 971 779 q 977 773 977 778 l 977 597 q 971 591 977 591 l 795 591 q 789 597 789 591 l 789 773 q 795 779 790 779 m 5 581 l 179 581 q 184 575 184 580 l 184 399 q 179 393 184 393 l 5 393 q 0 399 0 393 l 0 575 q 5 581 1 581 m 399 581 l 575 581 q 581 575 581 580 l 581 399 q 575 393 581 393 l 399 393 q 393 399 393 393 l 393 575 q 399 581 394 581 m 795 581 l 971 581 q 977 575 977 580 l 977 399 q 971 393 977 393 l 795 393 q 789 399 789 393 l 789 575 q 795 581 790 581 m 5 382 l 179 382 q 184 377 184 382 l 184 201 q 179 195 184 195 l 5 195 q 0 201 0 195 l 0 377 q 5 382 1 382 m 795 382 l 971 382 q 977 377 977 382 l 977 201 q 971 195 977 195 l 795 195 q 789 201 789 195 l 789 377 q 795 382 790 382 m 5 184 l 179 184 q 184 179 184 184 l 184 5 q 179 0 184 0 l 5 0 q 0 5 0 0 l 0 179 q 5 184 1 184 m 201 184 l 377 184 q 382 179 382 184 l 382 5 q 377 0 382 0 l 201 0 q 195 5 195 0 l 195 179 q 201 184 196 184 m 399 184 l 575 184 q 581 179 581 184 l 581 5 q 575 0 581 0 l 399 0 q 393 5 393 0 l 393 179 q 399 184 394 184 m 597 184 l 770 184 q 776 179 776 184 l 776 5 q 770 0 776 0 l 597 0 q 591 5 591 0 l 591 179 q 597 184 592 184 m 795 184 l 971 184 q 977 179 977 184 l 977 5 q 971 0 977 0 l 795 0 q 789 5 789 0 l 789 179 q 795 184 790 184 z "},"}":{"ha":1183,"x_min":0,"x_max":977,"o":"m 5 974 l 179 974 q 184 968 184 973 l 184 795 q 179 789 184 789 l 5 789 q 0 795 0 789 l 0 968 q 5 974 1 974 m 201 974 l 377 974 q 382 968 382 973 l 382 795 q 377 789 382 789 l 201 789 q 195 795 195 789 l 195 968 q 201 974 196 974 m 399 974 l 575 974 q 581 968 581 973 l 581 795 q 575 789 581 789 l 399 789 q 393 795 393 789 l 393 968 q 399 974 394 974 m 597 974 l 770 974 q 776 968 776 973 l 776 795 q 770 789 776 789 l 597 789 q 591 795 591 789 l 591 968 q 597 974 592 974 m 795 974 l 971 974 q 977 968 977 973 l 977 795 q 971 789 977 789 l 795 789 q 789 795 789 789 l 789 968 q 795 974 790 974 m 5 779 l 179 779 q 184 773 184 778 l 184 597 q 179 591 184 591 l 5 591 q 0 597 0 591 l 0 773 q 5 779 1 779 m 795 779 l 971 779 q 977 773 977 778 l 977 597 q 971 591 977 591 l 795 591 q 789 597 789 591 l 789 773 q 795 779 790 779 m 5 581 l 179 581 q 184 575 184 580 l 184 399 q 179 393 184 393 l 5 393 q 0 399 0 393 l 0 575 q 5 581 1 581 m 399 581 l 575 581 q 581 575 581 580 l 581 399 q 575 393 581 393 l 399 393 q 393 399 393 393 l 393 575 q 399 581 394 581 m 795 581 l 971 581 q 977 575 977 580 l 977 399 q 971 393 977 393 l 795 393 q 789 399 789 393 l 789 575 q 795 581 790 581 m 5 382 l 179 382 q 184 377 184 382 l 184 201 q 179 195 184 195 l 5 195 q 0 201 0 195 l 0 377 q 5 382 1 382 m 795 382 l 971 382 q 977 377 977 382 l 977 201 q 971 195 977 195 l 795 195 q 789 201 789 195 l 789 377 q 795 382 790 382 m 5 184 l 179 184 q 184 179 184 184 l 184 5 q 179 0 184 0 l 5 0 q 0 5 0 0 l 0 179 q 5 184 1 184 m 201 184 l 377 184 q 382 179 382 184 l 382 5 q 377 0 382 0 l 201 0 q 195 5 195 0 l 195 179 q 201 184 196 184 m 399 184 l 575 184 q 581 179 581 184 l 581 5 q 575 0 581 0 l 399 0 q 393 5 393 0 l 393 179 q 399 184 394 184 m 597 184 l 770 184 q 776 179 776 184 l 776 5 q 770 0 776 0 l 597 0 q 591 5 591 0 l 591 179 q 597 184 592 184 m 795 184 l 971 184 q 977 179 977 184 l 977 5 q 971 0 977 0 l 795 0 q 789 5 789 0 l 789 179 q 795 184 790 184 z "},"~":{"ha":1183,"x_min":0,"x_max":977,"o":"m 5 974 l 179 974 q 184 968 184 973 l 184 795 q 179 789 184 789 l 5 789 q 0 795 0 789 l 0 968 q 5 974 1 974 m 201 974 l 377 974 q 382 968 382 973 l 382 795 q 377 789 382 789 l 201 789 q 195 795 195 789 l 195 968 q 201 974 196 974 m 399 974 l 575 974 q 581 968 581 973 l 581 795 q 575 789 581 789 l 399 789 q 393 795 393 789 l 393 968 q 399 974 394 974 m 597 974 l 770 974 q 776 968 776 973 l 776 795 q 770 789 776 789 l 597 789 q 591 795 591 789 l 591 968 q 597 974 592 974 m 795 974 l 971 974 q 977 968 977 973 l 977 795 q 971 789 977 789 l 795 789 q 789 795 789 789 l 789 968 q 795 974 790 974 m 5 779 l 179 779 q 184 773 184 778 l 184 597 q 179 591 184 591 l 5 591 q 0 597 0 591 l 0 773 q 5 779 1 779 m 795 779 l 971 779 q 977 773 977 778 l 977 597 q 971 591 977 591 l 795 591 q 789 597 789 591 l 789 773 q 795 779 790 779 m 5 581 l 179 581 q 184 575 184 580 l 184 399 q 179 393 184 393 l 5 393 q 0 399 0 393 l 0 575 q 5 581 1 581 m 399 581 l 575 581 q 581 575 581 580 l 581 399 q 575 393 581 393 l 399 393 q 393 399 393 393 l 393 575 q 399 581 394 581 m 795 581 l 971 581 q 977 575 977 580 l 977 399 q 971 393 977 393 l 795 393 q 789 399 789 393 l 789 575 q 795 581 790 581 m 5 382 l 179 382 q 184 377 184 382 l 184 201 q 179 195 184 195 l 5 195 q 0 201 0 195 l 0 377 q 5 382 1 382 m 795 382 l 971 382 q 977 377 977 382 l 977 201 q 971 195 977 195 l 795 195 q 789 201 789 195 l 789 377 q 795 382 790 382 m 5 184 l 179 184 q 184 179 184 184 l 184 5 q 179 0 184 0 l 5 0 q 0 5 0 0 l 0 179 q 5 184 1 184 m 201 184 l 377 184 q 382 179 382 184 l 382 5 q 377 0 382 0 l 201 0 q 195 5 195 0 l 195 179 q 201 184 196 184 m 399 184 l 575 184 q 581 179 581 184 l 581 5 q 575 0 581 0 l 399 0 q 393 5 393 0 l 393 179 q 399 184 394 184 m 597 184 l 770 184 q 776 179 776 184 l 776 5 q 770 0 776 0 l 597 0 q 591 5 591 0 l 591 179 q 597 184 592 184 m 795 184 l 971 184 q 977 179 977 184 l 977 5 q 971 0 977 0 l 795 0 q 789 5 789 0 l 789 179 q 795 184 790 184 z "},"¡":{"ha":1183,"x_min":0,"x_max":977,"o":"m 5 974 l 179 974 q 184 968 184 973 l 184 795 q 179 789 184 789 l 5 789 q 0 795 0 789 l 0 968 q 5 974 1 974 m 201 974 l 377 974 q 382 968 382 973 l 382 795 q 377 789 382 789 l 201 789 q 195 795 195 789 l 195 968 q 201 974 196 974 m 399 974 l 575 974 q 581 968 581 973 l 581 795 q 575 789 581 789 l 399 789 q 393 795 393 789 l 393 968 q 399 974 394 974 m 597 974 l 770 974 q 776 968 776 973 l 776 795 q 770 789 776 789 l 597 789 q 591 795 591 789 l 591 968 q 597 974 592 974 m 795 974 l 971 974 q 977 968 977 973 l 977 795 q 971 789 977 789 l 795 789 q 789 795 789 789 l 789 968 q 795 974 790 974 m 5 779 l 179 779 q 184 773 184 778 l 184 597 q 179 591 184 591 l 5 591 q 0 597 0 591 l 0 773 q 5 779 1 779 m 795 779 l 971 779 q 977 773 977 778 l 977 597 q 971 591 977 591 l 795 591 q 789 597 789 591 l 789 773 q 795 779 790 779 m 5 581 l 179 581 q 184 575 184 580 l 184 399 q 179 393 184 393 l 5 393 q 0 399 0 393 l 0 575 q 5 581 1 581 m 399 581 l 575 581 q 581 575 581 580 l 581 399 q 575 393 581 393 l 399 393 q 393 399 393 393 l 393 575 q 399 581 394 581 m 795 581 l 971 581 q 977 575 977 580 l 977 399 q 971 393 977 393 l 795 393 q 789 399 789 393 l 789 575 q 795 581 790 581 m 5 382 l 179 382 q 184 377 184 382 l 184 201 q 179 195 184 195 l 5 195 q 0 201 0 195 l 0 377 q 5 382 1 382 m 795 382 l 971 382 q 977 377 977 382 l 977 201 q 971 195 977 195 l 795 195 q 789 201 789 195 l 789 377 q 795 382 790 382 m 5 184 l 179 184 q 184 179 184 184 l 184 5 q 179 0 184 0 l 5 0 q 0 5 0 0 l 0 179 q 5 184 1 184 m 201 184 l 377 184 q 382 179 382 184 l 382 5 q 377 0 382 0 l 201 0 q 195 5 195 0 l 195 179 q 201 184 196 184 m 399 184 l 575 184 q 581 179 581 184 l 581 5 q 575 0 581 0 l 399 0 q 393 5 393 0 l 393 179 q 399 184 394 184 m 597 184 l 770 184 q 776 179 776 184 l 776 5 q 770 0 776 0 l 597 0 q 591 5 591 0 l 591 179 q 597 184 592 184 m 795 184 l 971 184 q 977 179 977 184 l 977 5 q 971 0 977 0 l 795 0 q 789 5 789 0 l 789 179 q 795 184 790 184 z "},"¢":{"ha":1183,"x_min":0,"x_max":977,"o":"m 5 974 l 179 974 q 184 968 184 973 l 184 795 q 179 789 184 789 l 5 789 q 0 795 0 789 l 0 968 q 5 974 1 974 m 201 974 l 377 974 q 382 968 382 973 l 382 795 q 377 789 382 789 l 201 789 q 195 795 195 789 l 195 968 q 201 974 196 974 m 399 974 l 575 974 q 581 968 581 973 l 581 795 q 575 789 581 789 l 399 789 q 393 795 393 789 l 393 968 q 399 974 394 974 m 597 974 l 770 974 q 776 968 776 973 l 776 795 q 770 789 776 789 l 597 789 q 591 795 591 789 l 591 968 q 597 974 592 974 m 795 974 l 971 974 q 977 968 977 973 l 977 795 q 971 789 977 789 l 795 789 q 789 795 789 789 l 789 968 q 795 974 790 974 m 5 779 l 179 779 q 184 773 184 778 l 184 597 q 179 591 184 591 l 5 591 q 0 597 0 591 l 0 773 q 5 779 1 779 m 795 779 l 971 779 q 977 773 977 778 l 977 597 q 971 591 977 591 l 795 591 q 789 597 789 591 l 789 773 q 795 779 790 779 m 5 581 l 179 581 q 184 575 184 580 l 184 399 q 179 393 184 393 l 5 393 q 0 399 0 393 l 0 575 q 5 581 1 581 m 399 581 l 575 581 q 581 575 581 580 l 581 399 q 575 393 581 393 l 399 393 q 393 399 393 393 l 393 575 q 399 581 394 581 m 795 581 l 971 581 q 977 575 977 580 l 977 399 q 971 393 977 393 l 795 393 q 789 399 789 393 l 789 575 q 795 581 790 581 m 5 382 l 179 382 q 184 377 184 382 l 184 201 q 179 195 184 195 l 5 195 q 0 201 0 195 l 0 377 q 5 382 1 382 m 795 382 l 971 382 q 977 377 977 382 l 977 201 q 971 195 977 195 l 795 195 q 789 201 789 195 l 789 377 q 795 382 790 382 m 5 184 l 179 184 q 184 179 184 184 l 184 5 q 179 0 184 0 l 5 0 q 0 5 0 0 l 0 179 q 5 184 1 184 m 201 184 l 377 184 q 382 179 382 184 l 382 5 q 377 0 382 0 l 201 0 q 195 5 195 0 l 195 179 q 201 184 196 184 m 399 184 l 575 184 q 581 179 581 184 l 581 5 q 575 0 581 0 l 399 0 q 393 5 393 0 l 393 179 q 399 184 394 184 m 597 184 l 770 184 q 776 179 776 184 l 776 5 q 770 0 776 0 l 597 0 q 591 5 591 0 l 591 179 q 597 184 592 184 m 795 184 l 971 184 q 977 179 977 184 l 977 5 q 971 0 977 0 l 795 0 q 789 5 789 0 l 789 179 q 795 184 790 184 z "},"£":{"ha":1183,"x_min":0,"x_max":977,"o":"m 5 974 l 179 974 q 184 968 184 973 l 184 795 q 179 789 184 789 l 5 789 q 0 795 0 789 l 0 968 q 5 974 1 974 m 201 974 l 377 974 q 382 968 382 973 l 382 795 q 377 789 382 789 l 201 789 q 195 795 195 789 l 195 968 q 201 974 196 974 m 399 974 l 575 974 q 581 968 581 973 l 581 795 q 575 789 581 789 l 399 789 q 393 795 393 789 l 393 968 q 399 974 394 974 m 597 974 l 770 974 q 776 968 776 973 l 776 795 q 770 789 776 789 l 597 789 q 591 795 591 789 l 591 968 q 597 974 592 974 m 795 974 l 971 974 q 977 968 977 973 l 977 795 q 971 789 977 789 l 795 789 q 789 795 789 789 l 789 968 q 795 974 790 974 m 5 779 l 179 779 q 184 773 184 778 l 184 597 q 179 591 184 591 l 5 591 q 0 597 0 591 l 0 773 q 5 779 1 779 m 795 779 l 971 779 q 977 773 977 778 l 977 597 q 971 591 977 591 l 795 591 q 789 597 789 591 l 789 773 q 795 779 790 779 m 5 581 l 179 581 q 184 575 184 580 l 184 399 q 179 393 184 393 l 5 393 q 0 399 0 393 l 0 575 q 5 581 1 581 m 399 581 l 575 581 q 581 575 581 580 l 581 399 q 575 393 581 393 l 399 393 q 393 399 393 393 l 393 575 q 399 581 394 581 m 795 581 l 971 581 q 977 575 977 580 l 977 399 q 971 393 977 393 l 795 393 q 789 399 789 393 l 789 575 q 795 581 790 581 m 5 382 l 179 382 q 184 377 184 382 l 184 201 q 179 195 184 195 l 5 195 q 0 201 0 195 l 0 377 q 5 382 1 382 m 795 382 l 971 382 q 977 377 977 382 l 977 201 q 971 195 977 195 l 795 195 q 789 201 789 195 l 789 377 q 795 382 790 382 m 5 184 l 179 184 q 184 179 184 184 l 184 5 q 179 0 184 0 l 5 0 q 0 5 0 0 l 0 179 q 5 184 1 184 m 201 184 l 377 184 q 382 179 382 184 l 382 5 q 377 0 382 0 l 201 0 q 195 5 195 0 l 195 179 q 201 184 196 184 m 399 184 l 575 184 q 581 179 581 184 l 581 5 q 575 0 581 0 l 399 0 q 393 5 393 0 l 393 179 q 399 184 394 184 m 597 184 l 770 184 q 776 179 776 184 l 776 5 q 770 0 776 0 l 597 0 q 591 5 591 0 l 591 179 q 597 184 592 184 m 795 184 l 971 184 q 977 179 977 184 l 977 5 q 971 0 977 0 l 795 0 q 789 5 789 0 l 789 179 q 795 184 790 184 z "},"¤":{"ha":1183,"x_min":0,"x_max":977,"o":"m 5 974 l 179 974 q 184 968 184 973 l 184 795 q 179 789 184 789 l 5 789 q 0 795 0 789 l 0 968 q 5 974 1 974 m 201 974 l 377 974 q 382 968 382 973 l 382 795 q 377 789 382 789 l 201 789 q 195 795 195 789 l 195 968 q 201 974 196 974 m 399 974 l 575 974 q 581 968 581 973 l 581 795 q 575 789 581 789 l 399 789 q 393 795 393 789 l 393 968 q 399 974 394 974 m 597 974 l 770 974 q 776 968 776 973 l 776 795 q 770 789 776 789 l 597 789 q 591 795 591 789 l 591 968 q 597 974 592 974 m 795 974 l 971 974 q 977 968 977 973 l 977 795 q 971 789 977 789 l 795 789 q 789 795 789 789 l 789 968 q 795 974 790 974 m 5 779 l 179 779 q 184 773 184 778 l 184 597 q 179 591 184 591 l 5 591 q 0 597 0 591 l 0 773 q 5 779 1 779 m 795 779 l 971 779 q 977 773 977 778 l 977 597 q 971 591 977 591 l 795 591 q 789 597 789 591 l 789 773 q 795 779 790 779 m 5 581 l 179 581 q 184 575 184 580 l 184 399 q 179 393 184 393 l 5 393 q 0 399 0 393 l 0 575 q 5 581 1 581 m 399 581 l 575 581 q 581 575 581 580 l 581 399 q 575 393 581 393 l 399 393 q 393 399 393 393 l 393 575 q 399 581 394 581 m 795 581 l 971 581 q 977 575 977 580 l 977 399 q 971 393 977 393 l 795 393 q 789 399 789 393 l 789 575 q 795 581 790 581 m 5 382 l 179 382 q 184 377 184 382 l 184 201 q 179 195 184 195 l 5 195 q 0 201 0 195 l 0 377 q 5 382 1 382 m 795 382 l 971 382 q 977 377 977 382 l 977 201 q 971 195 977 195 l 795 195 q 789 201 789 195 l 789 377 q 795 382 790 382 m 5 184 l 179 184 q 184 179 184 184 l 184 5 q 179 0 184 0 l 5 0 q 0 5 0 0 l 0 179 q 5 184 1 184 m 201 184 l 377 184 q 382 179 382 184 l 382 5 q 377 0 382 0 l 201 0 q 195 5 195 0 l 195 179 q 201 184 196 184 m 399 184 l 575 184 q 581 179 581 184 l 581 5 q 575 0 581 0 l 399 0 q 393 5 393 0 l 393 179 q 399 184 394 184 m 597 184 l 770 184 q 776 179 776 184 l 776 5 q 770 0 776 0 l 597 0 q 591 5 591 0 l 591 179 q 597 184 592 184 m 795 184 l 971 184 q 977 179 977 184 l 977 5 q 971 0 977 0 l 795 0 q 789 5 789 0 l 789 179 q 795 184 790 184 z "},"¥":{"ha":1183,"x_min":0,"x_max":977,"o":"m 5 974 l 179 974 q 184 968 184 973 l 184 795 q 179 789 184 789 l 5 789 q 0 795 0 789 l 0 968 q 5 974 1 974 m 201 974 l 377 974 q 382 968 382 973 l 382 795 q 377 789 382 789 l 201 789 q 195 795 195 789 l 195 968 q 201 974 196 974 m 399 974 l 575 974 q 581 968 581 973 l 581 795 q 575 789 581 789 l 399 789 q 393 795 393 789 l 393 968 q 399 974 394 974 m 597 974 l 770 974 q 776 968 776 973 l 776 795 q 770 789 776 789 l 597 789 q 591 795 591 789 l 591 968 q 597 974 592 974 m 795 974 l 971 974 q 977 968 977 973 l 977 795 q 971 789 977 789 l 795 789 q 789 795 789 789 l 789 968 q 795 974 790 974 m 5 779 l 179 779 q 184 773 184 778 l 184 597 q 179 591 184 591 l 5 591 q 0 597 0 591 l 0 773 q 5 779 1 779 m 795 779 l 971 779 q 977 773 977 778 l 977 597 q 971 591 977 591 l 795 591 q 789 597 789 591 l 789 773 q 795 779 790 779 m 5 581 l 179 581 q 184 575 184 580 l 184 399 q 179 393 184 393 l 5 393 q 0 399 0 393 l 0 575 q 5 581 1 581 m 399 581 l 575 581 q 581 575 581 580 l 581 399 q 575 393 581 393 l 399 393 q 393 399 393 393 l 393 575 q 399 581 394 581 m 795 581 l 971 581 q 977 575 977 580 l 977 399 q 971 393 977 393 l 795 393 q 789 399 789 393 l 789 575 q 795 581 790 581 m 5 382 l 179 382 q 184 377 184 382 l 184 201 q 179 195 184 195 l 5 195 q 0 201 0 195 l 0 377 q 5 382 1 382 m 795 382 l 971 382 q 977 377 977 382 l 977 201 q 971 195 977 195 l 795 195 q 789 201 789 195 l 789 377 q 795 382 790 382 m 5 184 l 179 184 q 184 179 184 184 l 184 5 q 179 0 184 0 l 5 0 q 0 5 0 0 l 0 179 q 5 184 1 184 m 201 184 l 377 184 q 382 179 382 184 l 382 5 q 377 0 382 0 l 201 0 q 195 5 195 0 l 195 179 q 201 184 196 184 m 399 184 l 575 184 q 581 179 581 184 l 581 5 q 575 0 581 0 l 399 0 q 393 5 393 0 l 393 179 q 399 184 394 184 m 597 184 l 770 184 q 776 179 776 184 l 776 5 q 770 0 776 0 l 597 0 q 591 5 591 0 l 591 179 q 597 184 592 184 m 795 184 l 971 184 q 977 179 977 184 l 977 5 q 971 0 977 0 l 795 0 q 789 5 789 0 l 789 179 q 795 184 790 184 z "},"¦":{"ha":1183,"x_min":0,"x_max":977,"o":"m 5 974 l 179 974 q 184 968 184 973 l 184 795 q 179 789 184 789 l 5 789 q 0 795 0 789 l 0 968 q 5 974 1 974 m 201 974 l 377 974 q 382 968 382 973 l 382 795 q 377 789 382 789 l 201 789 q 195 795 195 789 l 195 968 q 201 974 196 974 m 399 974 l 575 974 q 581 968 581 973 l 581 795 q 575 789 581 789 l 399 789 q 393 795 393 789 l 393 968 q 399 974 394 974 m 597 974 l 770 974 q 776 968 776 973 l 776 795 q 770 789 776 789 l 597 789 q 591 795 591 789 l 591 968 q 597 974 592 974 m 795 974 l 971 974 q 977 968 977 973 l 977 795 q 971 789 977 789 l 795 789 q 789 795 789 789 l 789 968 q 795 974 790 974 m 5 779 l 179 779 q 184 773 184 778 l 184 597 q 179 591 184 591 l 5 591 q 0 597 0 591 l 0 773 q 5 779 1 779 m 795 779 l 971 779 q 977 773 977 778 l 977 597 q 971 591 977 591 l 795 591 q 789 597 789 591 l 789 773 q 795 779 790 779 m 5 581 l 179 581 q 184 575 184 580 l 184 399 q 179 393 184 393 l 5 393 q 0 399 0 393 l 0 575 q 5 581 1 581 m 399 581 l 575 581 q 581 575 581 580 l 581 399 q 575 393 581 393 l 399 393 q 393 399 393 393 l 393 575 q 399 581 394 581 m 795 581 l 971 581 q 977 575 977 580 l 977 399 q 971 393 977 393 l 795 393 q 789 399 789 393 l 789 575 q 795 581 790 581 m 5 382 l 179 382 q 184 377 184 382 l 184 201 q 179 195 184 195 l 5 195 q 0 201 0 195 l 0 377 q 5 382 1 382 m 795 382 l 971 382 q 977 377 977 382 l 977 201 q 971 195 977 195 l 795 195 q 789 201 789 195 l 789 377 q 795 382 790 382 m 5 184 l 179 184 q 184 179 184 184 l 184 5 q 179 0 184 0 l 5 0 q 0 5 0 0 l 0 179 q 5 184 1 184 m 201 184 l 377 184 q 382 179 382 184 l 382 5 q 377 0 382 0 l 201 0 q 195 5 195 0 l 195 179 q 201 184 196 184 m 399 184 l 575 184 q 581 179 581 184 l 581 5 q 575 0 581 0 l 399 0 q 393 5 393 0 l 393 179 q 399 184 394 184 m 597 184 l 770 184 q 776 179 776 184 l 776 5 q 770 0 776 0 l 597 0 q 591 5 591 0 l 591 179 q 597 184 592 184 m 795 184 l 971 184 q 977 179 977 184 l 977 5 q 971 0 977 0 l 795 0 q 789 5 789 0 l 789 179 q 795 184 790 184 z "},"§":{"ha":1183,"x_min":0,"x_max":977,"o":"m 5 974 l 179 974 q 184 968 184 973 l 184 795 q 179 789 184 789 l 5 789 q 0 795 0 789 l 0 968 q 5 974 1 974 m 201 974 l 377 974 q 382 968 382 973 l 382 795 q 377 789 382 789 l 201 789 q 195 795 195 789 l 195 968 q 201 974 196 974 m 399 974 l 575 974 q 581 968 581 973 l 581 795 q 575 789 581 789 l 399 789 q 393 795 393 789 l 393 968 q 399 974 394 974 m 597 974 l 770 974 q 776 968 776 973 l 776 795 q 770 789 776 789 l 597 789 q 591 795 591 789 l 591 968 q 597 974 592 974 m 795 974 l 971 974 q 977 968 977 973 l 977 795 q 971 789 977 789 l 795 789 q 789 795 789 789 l 789 968 q 795 974 790 974 m 5 779 l 179 779 q 184 773 184 778 l 184 597 q 179 591 184 591 l 5 591 q 0 597 0 591 l 0 773 q 5 779 1 779 m 795 779 l 971 779 q 977 773 977 778 l 977 597 q 971 591 977 591 l 795 591 q 789 597 789 591 l 789 773 q 795 779 790 779 m 5 581 l 179 581 q 184 575 184 580 l 184 399 q 179 393 184 393 l 5 393 q 0 399 0 393 l 0 575 q 5 581 1 581 m 399 581 l 575 581 q 581 575 581 580 l 581 399 q 575 393 581 393 l 399 393 q 393 399 393 393 l 393 575 q 399 581 394 581 m 795 581 l 971 581 q 977 575 977 580 l 977 399 q 971 393 977 393 l 795 393 q 789 399 789 393 l 789 575 q 795 581 790 581 m 5 382 l 179 382 q 184 377 184 382 l 184 201 q 179 195 184 195 l 5 195 q 0 201 0 195 l 0 377 q 5 382 1 382 m 795 382 l 971 382 q 977 377 977 382 l 977 201 q 971 195 977 195 l 795 195 q 789 201 789 195 l 789 377 q 795 382 790 382 m 5 184 l 179 184 q 184 179 184 184 l 184 5 q 179 0 184 0 l 5 0 q 0 5 0 0 l 0 179 q 5 184 1 184 m 201 184 l 377 184 q 382 179 382 184 l 382 5 q 377 0 382 0 l 201 0 q 195 5 195 0 l 195 179 q 201 184 196 184 m 399 184 l 575 184 q 581 179 581 184 l 581 5 q 575 0 581 0 l 399 0 q 393 5 393 0 l 393 179 q 399 184 394 184 m 597 184 l 770 184 q 776 179 776 184 l 776 5 q 770 0 776 0 l 597 0 q 591 5 591 0 l 591 179 q 597 184 592 184 m 795 184 l 971 184 q 977 179 977 184 l 977 5 q 971 0 977 0 l 795 0 q 789 5 789 0 l 789 179 q 795 184 790 184 z "},"¨":{"ha":1183,"x_min":0,"x_max":977,"o":"m 5 974 l 179 974 q 184 968 184 973 l 184 795 q 179 789 184 789 l 5 789 q 0 795 0 789 l 0 968 q 5 974 1 974 m 201 974 l 377 974 q 382 968 382 973 l 382 795 q 377 789 382 789 l 201 789 q 195 795 195 789 l 195 968 q 201 974 196 974 m 399 974 l 575 974 q 581 968 581 973 l 581 795 q 575 789 581 789 l 399 789 q 393 795 393 789 l 393 968 q 399 974 394 974 m 597 974 l 770 974 q 776 968 776 973 l 776 795 q 770 789 776 789 l 597 789 q 591 795 591 789 l 591 968 q 597 974 592 974 m 795 974 l 971 974 q 977 968 977 973 l 977 795 q 971 789 977 789 l 795 789 q 789 795 789 789 l 789 968 q 795 974 790 974 m 5 779 l 179 779 q 184 773 184 778 l 184 597 q 179 591 184 591 l 5 591 q 0 597 0 591 l 0 773 q 5 779 1 779 m 795 779 l 971 779 q 977 773 977 778 l 977 597 q 971 591 977 591 l 795 591 q 789 597 789 591 l 789 773 q 795 779 790 779 m 5 581 l 179 581 q 184 575 184 580 l 184 399 q 179 393 184 393 l 5 393 q 0 399 0 393 l 0 575 q 5 581 1 581 m 399 581 l 575 581 q 581 575 581 580 l 581 399 q 575 393 581 393 l 399 393 q 393 399 393 393 l 393 575 q 399 581 394 581 m 795 581 l 971 581 q 977 575 977 580 l 977 399 q 971 393 977 393 l 795 393 q 789 399 789 393 l 789 575 q 795 581 790 581 m 5 382 l 179 382 q 184 377 184 382 l 184 201 q 179 195 184 195 l 5 195 q 0 201 0 195 l 0 377 q 5 382 1 382 m 795 382 l 971 382 q 977 377 977 382 l 977 201 q 971 195 977 195 l 795 195 q 789 201 789 195 l 789 377 q 795 382 790 382 m 5 184 l 179 184 q 184 179 184 184 l 184 5 q 179 0 184 0 l 5 0 q 0 5 0 0 l 0 179 q 5 184 1 184 m 201 184 l 377 184 q 382 179 382 184 l 382 5 q 377 0 382 0 l 201 0 q 195 5 195 0 l 195 179 q 201 184 196 184 m 399 184 l 575 184 q 581 179 581 184 l 581 5 q 575 0 581 0 l 399 0 q 393 5 393 0 l 393 179 q 399 184 394 184 m 597 184 l 770 184 q 776 179 776 184 l 776 5 q 770 0 776 0 l 597 0 q 591 5 591 0 l 591 179 q 597 184 592 184 m 795 184 l 971 184 q 977 179 977 184 l 977 5 q 971 0 977 0 l 795 0 q 789 5 789 0 l 789 179 q 795 184 790 184 z "},"©":{"ha":1183,"x_min":0,"x_max":977,"o":"m 5 974 l 179 974 q 184 968 184 973 l 184 795 q 179 789 184 789 l 5 789 q 0 795 0 789 l 0 968 q 5 974 1 974 m 201 974 l 377 974 q 382 968 382 973 l 382 795 q 377 789 382 789 l 201 789 q 195 795 195 789 l 195 968 q 201 974 196 974 m 399 974 l 575 974 q 581 968 581 973 l 581 795 q 575 789 581 789 l 399 789 q 393 795 393 789 l 393 968 q 399 974 394 974 m 597 974 l 770 974 q 776 968 776 973 l 776 795 q 770 789 776 789 l 597 789 q 591 795 591 789 l 591 968 q 597 974 592 974 m 795 974 l 971 974 q 977 968 977 973 l 977 795 q 971 789 977 789 l 795 789 q 789 795 789 789 l 789 968 q 795 974 790 974 m 5 779 l 179 779 q 184 773 184 778 l 184 597 q 179 591 184 591 l 5 591 q 0 597 0 591 l 0 773 q 5 779 1 779 m 795 779 l 971 779 q 977 773 977 778 l 977 597 q 971 591 977 591 l 795 591 q 789 597 789 591 l 789 773 q 795 779 790 779 m 5 581 l 179 581 q 184 575 184 580 l 184 399 q 179 393 184 393 l 5 393 q 0 399 0 393 l 0 575 q 5 581 1 581 m 399 581 l 575 581 q 581 575 581 580 l 581 399 q 575 393 581 393 l 399 393 q 393 399 393 393 l 393 575 q 399 581 394 581 m 795 581 l 971 581 q 977 575 977 580 l 977 399 q 971 393 977 393 l 795 393 q 789 399 789 393 l 789 575 q 795 581 790 581 m 5 382 l 179 382 q 184 377 184 382 l 184 201 q 179 195 184 195 l 5 195 q 0 201 0 195 l 0 377 q 5 382 1 382 m 795 382 l 971 382 q 977 377 977 382 l 977 201 q 971 195 977 195 l 795 195 q 789 201 789 195 l 789 377 q 795 382 790 382 m 5 184 l 179 184 q 184 179 184 184 l 184 5 q 179 0 184 0 l 5 0 q 0 5 0 0 l 0 179 q 5 184 1 184 m 201 184 l 377 184 q 382 179 382 184 l 382 5 q 377 0 382 0 l 201 0 q 195 5 195 0 l 195 179 q 201 184 196 184 m 399 184 l 575 184 q 581 179 581 184 l 581 5 q 575 0 581 0 l 399 0 q 393 5 393 0 l 393 179 q 399 184 394 184 m 597 184 l 770 184 q 776 179 776 184 l 776 5 q 770 0 776 0 l 597 0 q 591 5 591 0 l 591 179 q 597 184 592 184 m 795 184 l 971 184 q 977 179 977 184 l 977 5 q 971 0 977 0 l 795 0 q 789 5 789 0 l 789 179 q 795 184 790 184 z "},"ª":{"ha":1183,"x_min":0,"x_max":977,"o":"m 5 974 l 179 974 q 184 968 184 973 l 184 795 q 179 789 184 789 l 5 789 q 0 795 0 789 l 0 968 q 5 974 1 974 m 201 974 l 377 974 q 382 968 382 973 l 382 795 q 377 789 382 789 l 201 789 q 195 795 195 789 l 195 968 q 201 974 196 974 m 399 974 l 575 974 q 581 968 581 973 l 581 795 q 575 789 581 789 l 399 789 q 393 795 393 789 l 393 968 q 399 974 394 974 m 597 974 l 770 974 q 776 968 776 973 l 776 795 q 770 789 776 789 l 597 789 q 591 795 591 789 l 591 968 q 597 974 592 974 m 795 974 l 971 974 q 977 968 977 973 l 977 795 q 971 789 977 789 l 795 789 q 789 795 789 789 l 789 968 q 795 974 790 974 m 5 779 l 179 779 q 184 773 184 778 l 184 597 q 179 591 184 591 l 5 591 q 0 597 0 591 l 0 773 q 5 779 1 779 m 795 779 l 971 779 q 977 773 977 778 l 977 597 q 971 591 977 591 l 795 591 q 789 597 789 591 l 789 773 q 795 779 790 779 m 5 581 l 179 581 q 184 575 184 580 l 184 399 q 179 393 184 393 l 5 393 q 0 399 0 393 l 0 575 q 5 581 1 581 m 399 581 l 575 581 q 581 575 581 580 l 581 399 q 575 393 581 393 l 399 393 q 393 399 393 393 l 393 575 q 399 581 394 581 m 795 581 l 971 581 q 977 575 977 580 l 977 399 q 971 393 977 393 l 795 393 q 789 399 789 393 l 789 575 q 795 581 790 581 m 5 382 l 179 382 q 184 377 184 382 l 184 201 q 179 195 184 195 l 5 195 q 0 201 0 195 l 0 377 q 5 382 1 382 m 795 382 l 971 382 q 977 377 977 382 l 977 201 q 971 195 977 195 l 795 195 q 789 201 789 195 l 789 377 q 795 382 790 382 m 5 184 l 179 184 q 184 179 184 184 l 184 5 q 179 0 184 0 l 5 0 q 0 5 0 0 l 0 179 q 5 184 1 184 m 201 184 l 377 184 q 382 179 382 184 l 382 5 q 377 0 382 0 l 201 0 q 195 5 195 0 l 195 179 q 201 184 196 184 m 399 184 l 575 184 q 581 179 581 184 l 581 5 q 575 0 581 0 l 399 0 q 393 5 393 0 l 393 179 q 399 184 394 184 m 597 184 l 770 184 q 776 179 776 184 l 776 5 q 770 0 776 0 l 597 0 q 591 5 591 0 l 591 179 q 597 184 592 184 m 795 184 l 971 184 q 977 179 977 184 l 977 5 q 971 0 977 0 l 795 0 q 789 5 789 0 l 789 179 q 795 184 790 184 z "},"«":{"ha":1183,"x_min":0,"x_max":977,"o":"m 5 974 l 179 974 q 184 968 184 973 l 184 795 q 179 789 184 789 l 5 789 q 0 795 0 789 l 0 968 q 5 974 1 974 m 201 974 l 377 974 q 382 968 382 973 l 382 795 q 377 789 382 789 l 201 789 q 195 795 195 789 l 195 968 q 201 974 196 974 m 399 974 l 575 974 q 581 968 581 973 l 581 795 q 575 789 581 789 l 399 789 q 393 795 393 789 l 393 968 q 399 974 394 974 m 597 974 l 770 974 q 776 968 776 973 l 776 795 q 770 789 776 789 l 597 789 q 591 795 591 789 l 591 968 q 597 974 592 974 m 795 974 l 971 974 q 977 968 977 973 l 977 795 q 971 789 977 789 l 795 789 q 789 795 789 789 l 789 968 q 795 974 790 974 m 5 779 l 179 779 q 184 773 184 778 l 184 597 q 179 591 184 591 l 5 591 q 0 597 0 591 l 0 773 q 5 779 1 779 m 795 779 l 971 779 q 977 773 977 778 l 977 597 q 971 591 977 591 l 795 591 q 789 597 789 591 l 789 773 q 795 779 790 779 m 5 581 l 179 581 q 184 575 184 580 l 184 399 q 179 393 184 393 l 5 393 q 0 399 0 393 l 0 575 q 5 581 1 581 m 399 581 l 575 581 q 581 575 581 580 l 581 399 q 575 393 581 393 l 399 393 q 393 399 393 393 l 393 575 q 399 581 394 581 m 795 581 l 971 581 q 977 575 977 580 l 977 399 q 971 393 977 393 l 795 393 q 789 399 789 393 l 789 575 q 795 581 790 581 m 5 382 l 179 382 q 184 377 184 382 l 184 201 q 179 195 184 195 l 5 195 q 0 201 0 195 l 0 377 q 5 382 1 382 m 795 382 l 971 382 q 977 377 977 382 l 977 201 q 971 195 977 195 l 795 195 q 789 201 789 195 l 789 377 q 795 382 790 382 m 5 184 l 179 184 q 184 179 184 184 l 184 5 q 179 0 184 0 l 5 0 q 0 5 0 0 l 0 179 q 5 184 1 184 m 201 184 l 377 184 q 382 179 382 184 l 382 5 q 377 0 382 0 l 201 0 q 195 5 195 0 l 195 179 q 201 184 196 184 m 399 184 l 575 184 q 581 179 581 184 l 581 5 q 575 0 581 0 l 399 0 q 393 5 393 0 l 393 179 q 399 184 394 184 m 597 184 l 770 184 q 776 179 776 184 l 776 5 q 770 0 776 0 l 597 0 q 591 5 591 0 l 591 179 q 597 184 592 184 m 795 184 l 971 184 q 977 179 977 184 l 977 5 q 971 0 977 0 l 795 0 q 789 5 789 0 l 789 179 q 795 184 790 184 z "},"¬":{"ha":1183,"x_min":0,"x_max":977,"o":"m 5 974 l 179 974 q 184 968 184 973 l 184 795 q 179 789 184 789 l 5 789 q 0 795 0 789 l 0 968 q 5 974 1 974 m 201 974 l 377 974 q 382 968 382 973 l 382 795 q 377 789 382 789 l 201 789 q 195 795 195 789 l 195 968 q 201 974 196 974 m 399 974 l 575 974 q 581 968 581 973 l 581 795 q 575 789 581 789 l 399 789 q 393 795 393 789 l 393 968 q 399 974 394 974 m 597 974 l 770 974 q 776 968 776 973 l 776 795 q 770 789 776 789 l 597 789 q 591 795 591 789 l 591 968 q 597 974 592 974 m 795 974 l 971 974 q 977 968 977 973 l 977 795 q 971 789 977 789 l 795 789 q 789 795 789 789 l 789 968 q 795 974 790 974 m 5 779 l 179 779 q 184 773 184 778 l 184 597 q 179 591 184 591 l 5 591 q 0 597 0 591 l 0 773 q 5 779 1 779 m 795 779 l 971 779 q 977 773 977 778 l 977 597 q 971 591 977 591 l 795 591 q 789 597 789 591 l 789 773 q 795 779 790 779 m 5 581 l 179 581 q 184 575 184 580 l 184 399 q 179 393 184 393 l 5 393 q 0 399 0 393 l 0 575 q 5 581 1 581 m 399 581 l 575 581 q 581 575 581 580 l 581 399 q 575 393 581 393 l 399 393 q 393 399 393 393 l 393 575 q 399 581 394 581 m 795 581 l 971 581 q 977 575 977 580 l 977 399 q 971 393 977 393 l 795 393 q 789 399 789 393 l 789 575 q 795 581 790 581 m 5 382 l 179 382 q 184 377 184 382 l 184 201 q 179 195 184 195 l 5 195 q 0 201 0 195 l 0 377 q 5 382 1 382 m 795 382 l 971 382 q 977 377 977 382 l 977 201 q 971 195 977 195 l 795 195 q 789 201 789 195 l 789 377 q 795 382 790 382 m 5 184 l 179 184 q 184 179 184 184 l 184 5 q 179 0 184 0 l 5 0 q 0 5 0 0 l 0 179 q 5 184 1 184 m 201 184 l 377 184 q 382 179 382 184 l 382 5 q 377 0 382 0 l 201 0 q 195 5 195 0 l 195 179 q 201 184 196 184 m 399 184 l 575 184 q 581 179 581 184 l 581 5 q 575 0 581 0 l 399 0 q 393 5 393 0 l 393 179 q 399 184 394 184 m 597 184 l 770 184 q 776 179 776 184 l 776 5 q 770 0 776 0 l 597 0 q 591 5 591 0 l 591 179 q 597 184 592 184 m 795 184 l 971 184 q 977 179 977 184 l 977 5 q 971 0 977 0 l 795 0 q 789 5 789 0 l 789 179 q 795 184 790 184 z "},"®":{"ha":1183,"x_min":0,"x_max":977,"o":"m 5 974 l 179 974 q 184 968 184 973 l 184 795 q 179 789 184 789 l 5 789 q 0 795 0 789 l 0 968 q 5 974 1 974 m 201 974 l 377 974 q 382 968 382 973 l 382 795 q 377 789 382 789 l 201 789 q 195 795 195 789 l 195 968 q 201 974 196 974 m 399 974 l 575 974 q 581 968 581 973 l 581 795 q 575 789 581 789 l 399 789 q 393 795 393 789 l 393 968 q 399 974 394 974 m 597 974 l 770 974 q 776 968 776 973 l 776 795 q 770 789 776 789 l 597 789 q 591 795 591 789 l 591 968 q 597 974 592 974 m 795 974 l 971 974 q 977 968 977 973 l 977 795 q 971 789 977 789 l 795 789 q 789 795 789 789 l 789 968 q 795 974 790 974 m 5 779 l 179 779 q 184 773 184 778 l 184 597 q 179 591 184 591 l 5 591 q 0 597 0 591 l 0 773 q 5 779 1 779 m 795 779 l 971 779 q 977 773 977 778 l 977 597 q 971 591 977 591 l 795 591 q 789 597 789 591 l 789 773 q 795 779 790 779 m 5 581 l 179 581 q 184 575 184 580 l 184 399 q 179 393 184 393 l 5 393 q 0 399 0 393 l 0 575 q 5 581 1 581 m 399 581 l 575 581 q 581 575 581 580 l 581 399 q 575 393 581 393 l 399 393 q 393 399 393 393 l 393 575 q 399 581 394 581 m 795 581 l 971 581 q 977 575 977 580 l 977 399 q 971 393 977 393 l 795 393 q 789 399 789 393 l 789 575 q 795 581 790 581 m 5 382 l 179 382 q 184 377 184 382 l 184 201 q 179 195 184 195 l 5 195 q 0 201 0 195 l 0 377 q 5 382 1 382 m 795 382 l 971 382 q 977 377 977 382 l 977 201 q 971 195 977 195 l 795 195 q 789 201 789 195 l 789 377 q 795 382 790 382 m 5 184 l 179 184 q 184 179 184 184 l 184 5 q 179 0 184 0 l 5 0 q 0 5 0 0 l 0 179 q 5 184 1 184 m 201 184 l 377 184 q 382 179 382 184 l 382 5 q 377 0 382 0 l 201 0 q 195 5 195 0 l 195 179 q 201 184 196 184 m 399 184 l 575 184 q 581 179 581 184 l 581 5 q 575 0 581 0 l 399 0 q 393 5 393 0 l 393 179 q 399 184 394 184 m 597 184 l 770 184 q 776 179 776 184 l 776 5 q 770 0 776 0 l 597 0 q 591 5 591 0 l 591 179 q 597 184 592 184 m 795 184 l 971 184 q 977 179 977 184 l 977 5 q 971 0 977 0 l 795 0 q 789 5 789 0 l 789 179 q 795 184 790 184 z "},"¯":{"ha":1183,"x_min":0,"x_max":977,"o":"m 5 974 l 179 974 q 184 968 184 973 l 184 795 q 179 789 184 789 l 5 789 q 0 795 0 789 l 0 968 q 5 974 1 974 m 201 974 l 377 974 q 382 968 382 973 l 382 795 q 377 789 382 789 l 201 789 q 195 795 195 789 l 195 968 q 201 974 196 974 m 399 974 l 575 974 q 581 968 581 973 l 581 795 q 575 789 581 789 l 399 789 q 393 795 393 789 l 393 968 q 399 974 394 974 m 597 974 l 770 974 q 776 968 776 973 l 776 795 q 770 789 776 789 l 597 789 q 591 795 591 789 l 591 968 q 597 974 592 974 m 795 974 l 971 974 q 977 968 977 973 l 977 795 q 971 789 977 789 l 795 789 q 789 795 789 789 l 789 968 q 795 974 790 974 m 5 779 l 179 779 q 184 773 184 778 l 184 597 q 179 591 184 591 l 5 591 q 0 597 0 591 l 0 773 q 5 779 1 779 m 795 779 l 971 779 q 977 773 977 778 l 977 597 q 971 591 977 591 l 795 591 q 789 597 789 591 l 789 773 q 795 779 790 779 m 5 581 l 179 581 q 184 575 184 580 l 184 399 q 179 393 184 393 l 5 393 q 0 399 0 393 l 0 575 q 5 581 1 581 m 399 581 l 575 581 q 581 575 581 580 l 581 399 q 575 393 581 393 l 399 393 q 393 399 393 393 l 393 575 q 399 581 394 581 m 795 581 l 971 581 q 977 575 977 580 l 977 399 q 971 393 977 393 l 795 393 q 789 399 789 393 l 789 575 q 795 581 790 581 m 5 382 l 179 382 q 184 377 184 382 l 184 201 q 179 195 184 195 l 5 195 q 0 201 0 195 l 0 377 q 5 382 1 382 m 795 382 l 971 382 q 977 377 977 382 l 977 201 q 971 195 977 195 l 795 195 q 789 201 789 195 l 789 377 q 795 382 790 382 m 5 184 l 179 184 q 184 179 184 184 l 184 5 q 179 0 184 0 l 5 0 q 0 5 0 0 l 0 179 q 5 184 1 184 m 201 184 l 377 184 q 382 179 382 184 l 382 5 q 377 0 382 0 l 201 0 q 195 5 195 0 l 195 179 q 201 184 196 184 m 399 184 l 575 184 q 581 179 581 184 l 581 5 q 575 0 581 0 l 399 0 q 393 5 393 0 l 393 179 q 399 184 394 184 m 597 184 l 770 184 q 776 179 776 184 l 776 5 q 770 0 776 0 l 597 0 q 591 5 591 0 l 591 179 q 597 184 592 184 m 795 184 l 971 184 q 977 179 977 184 l 977 5 q 971 0 977 0 l 795 0 q 789 5 789 0 l 789 179 q 795 184 790 184 z "},"°":{"ha":789,"x_min":0,"x_max":578,"o":"m 171 974 l 179 974 q 184 968 184 973 l 184 795 q 179 789 184 789 l 5 789 q 0 795 0 789 l 0 806 q 103 958 0 893 q 171 974 142 974 m 201 974 l 374 974 q 380 968 380 973 l 380 795 q 374 789 380 789 l 201 789 q 195 795 195 789 l 195 968 q 201 974 196 974 m 399 974 l 404 974 q 564 857 508 974 q 578 792 578 823 l 572 789 l 399 789 q 393 795 393 789 l 393 968 q 399 974 394 974 m 5 779 l 179 779 q 184 773 184 778 l 184 597 q 179 591 184 591 l 5 591 q 0 597 0 591 l 0 773 q 5 779 1 779 m 399 779 l 572 779 q 578 773 578 778 l 578 597 q 572 591 578 591 l 399 591 q 393 597 393 591 l 393 773 q 399 779 394 779 m 5 581 l 179 581 q 184 575 184 580 l 184 399 q 179 393 184 393 q 5 526 61 393 q 0 567 0 552 l 0 575 q 5 581 1 581 m 201 581 l 374 581 q 380 575 380 580 l 380 399 q 374 393 380 393 l 201 393 q 195 399 195 393 l 195 575 q 201 581 196 581 m 399 581 l 572 581 q 578 575 578 580 q 461 407 578 466 q 396 393 423 393 l 393 399 l 393 575 q 399 581 394 581 z "},"±":{"ha":1183,"x_min":0,"x_max":977,"o":"m 5 974 l 179 974 q 184 968 184 973 l 184 795 q 179 789 184 789 l 5 789 q 0 795 0 789 l 0 968 q 5 974 1 974 m 201 974 l 377 974 q 382 968 382 973 l 382 795 q 377 789 382 789 l 201 789 q 195 795 195 789 l 195 968 q 201 974 196 974 m 399 974 l 575 974 q 581 968 581 973 l 581 795 q 575 789 581 789 l 399 789 q 393 795 393 789 l 393 968 q 399 974 394 974 m 597 974 l 770 974 q 776 968 776 973 l 776 795 q 770 789 776 789 l 597 789 q 591 795 591 789 l 591 968 q 597 974 592 974 m 795 974 l 971 974 q 977 968 977 973 l 977 795 q 971 789 977 789 l 795 789 q 789 795 789 789 l 789 968 q 795 974 790 974 m 5 779 l 179 779 q 184 773 184 778 l 184 597 q 179 591 184 591 l 5 591 q 0 597 0 591 l 0 773 q 5 779 1 779 m 795 779 l 971 779 q 977 773 977 778 l 977 597 q 971 591 977 591 l 795 591 q 789 597 789 591 l 789 773 q 795 779 790 779 m 5 581 l 179 581 q 184 575 184 580 l 184 399 q 179 393 184 393 l 5 393 q 0 399 0 393 l 0 575 q 5 581 1 581 m 399 581 l 575 581 q 581 575 581 580 l 581 399 q 575 393 581 393 l 399 393 q 393 399 393 393 l 393 575 q 399 581 394 581 m 795 581 l 971 581 q 977 575 977 580 l 977 399 q 971 393 977 393 l 795 393 q 789 399 789 393 l 789 575 q 795 581 790 581 m 5 382 l 179 382 q 184 377 184 382 l 184 201 q 179 195 184 195 l 5 195 q 0 201 0 195 l 0 377 q 5 382 1 382 m 795 382 l 971 382 q 977 377 977 382 l 977 201 q 971 195 977 195 l 795 195 q 789 201 789 195 l 789 377 q 795 382 790 382 m 5 184 l 179 184 q 184 179 184 184 l 184 5 q 179 0 184 0 l 5 0 q 0 5 0 0 l 0 179 q 5 184 1 184 m 201 184 l 377 184 q 382 179 382 184 l 382 5 q 377 0 382 0 l 201 0 q 195 5 195 0 l 195 179 q 201 184 196 184 m 399 184 l 575 184 q 581 179 581 184 l 581 5 q 575 0 581 0 l 399 0 q 393 5 393 0 l 393 179 q 399 184 394 184 m 597 184 l 770 184 q 776 179 776 184 l 776 5 q 770 0 776 0 l 597 0 q 591 5 591 0 l 591 179 q 597 184 592 184 m 795 184 l 971 184 q 977 179 977 184 l 977 5 q 971 0 977 0 l 795 0 q 789 5 789 0 l 789 179 q 795 184 790 184 z "},"²":{"ha":1183,"x_min":0,"x_max":977,"o":"m 5 974 l 179 974 q 184 968 184 973 l 184 795 q 179 789 184 789 l 5 789 q 0 795 0 789 l 0 968 q 5 974 1 974 m 201 974 l 377 974 q 382 968 382 973 l 382 795 q 377 789 382 789 l 201 789 q 195 795 195 789 l 195 968 q 201 974 196 974 m 399 974 l 575 974 q 581 968 581 973 l 581 795 q 575 789 581 789 l 399 789 q 393 795 393 789 l 393 968 q 399 974 394 974 m 597 974 l 770 974 q 776 968 776 973 l 776 795 q 770 789 776 789 l 597 789 q 591 795 591 789 l 591 968 q 597 974 592 974 m 795 974 l 971 974 q 977 968 977 973 l 977 795 q 971 789 977 789 l 795 789 q 789 795 789 789 l 789 968 q 795 974 790 974 m 5 779 l 179 779 q 184 773 184 778 l 184 597 q 179 591 184 591 l 5 591 q 0 597 0 591 l 0 773 q 5 779 1 779 m 795 779 l 971 779 q 977 773 977 778 l 977 597 q 971 591 977 591 l 795 591 q 789 597 789 591 l 789 773 q 795 779 790 779 m 5 581 l 179 581 q 184 575 184 580 l 184 399 q 179 393 184 393 l 5 393 q 0 399 0 393 l 0 575 q 5 581 1 581 m 399 581 l 575 581 q 581 575 581 580 l 581 399 q 575 393 581 393 l 399 393 q 393 399 393 393 l 393 575 q 399 581 394 581 m 795 581 l 971 581 q 977 575 977 580 l 977 399 q 971 393 977 393 l 795 393 q 789 399 789 393 l 789 575 q 795 581 790 581 m 5 382 l 179 382 q 184 377 184 382 l 184 201 q 179 195 184 195 l 5 195 q 0 201 0 195 l 0 377 q 5 382 1 382 m 795 382 l 971 382 q 977 377 977 382 l 977 201 q 971 195 977 195 l 795 195 q 789 201 789 195 l 789 377 q 795 382 790 382 m 5 184 l 179 184 q 184 179 184 184 l 184 5 q 179 0 184 0 l 5 0 q 0 5 0 0 l 0 179 q 5 184 1 184 m 201 184 l 377 184 q 382 179 382 184 l 382 5 q 377 0 382 0 l 201 0 q 195 5 195 0 l 195 179 q 201 184 196 184 m 399 184 l 575 184 q 581 179 581 184 l 581 5 q 575 0 581 0 l 399 0 q 393 5 393 0 l 393 179 q 399 184 394 184 m 597 184 l 770 184 q 776 179 776 184 l 776 5 q 770 0 776 0 l 597 0 q 591 5 591 0 l 591 179 q 597 184 592 184 m 795 184 l 971 184 q 977 179 977 184 l 977 5 q 971 0 977 0 l 795 0 q 789 5 789 0 l 789 179 q 795 184 790 184 z "},"³":{"ha":1183,"x_min":0,"x_max":977,"o":"m 5 974 l 179 974 q 184 968 184 973 l 184 795 q 179 789 184 789 l 5 789 q 0 795 0 789 l 0 968 q 5 974 1 974 m 201 974 l 377 974 q 382 968 382 973 l 382 795 q 377 789 382 789 l 201 789 q 195 795 195 789 l 195 968 q 201 974 196 974 m 399 974 l 575 974 q 581 968 581 973 l 581 795 q 575 789 581 789 l 399 789 q 393 795 393 789 l 393 968 q 399 974 394 974 m 597 974 l 770 974 q 776 968 776 973 l 776 795 q 770 789 776 789 l 597 789 q 591 795 591 789 l 591 968 q 597 974 592 974 m 795 974 l 971 974 q 977 968 977 973 l 977 795 q 971 789 977 789 l 795 789 q 789 795 789 789 l 789 968 q 795 974 790 974 m 5 779 l 179 779 q 184 773 184 778 l 184 597 q 179 591 184 591 l 5 591 q 0 597 0 591 l 0 773 q 5 779 1 779 m 795 779 l 971 779 q 977 773 977 778 l 977 597 q 971 591 977 591 l 795 591 q 789 597 789 591 l 789 773 q 795 779 790 779 m 5 581 l 179 581 q 184 575 184 580 l 184 399 q 179 393 184 393 l 5 393 q 0 399 0 393 l 0 575 q 5 581 1 581 m 399 581 l 575 581 q 581 575 581 580 l 581 399 q 575 393 581 393 l 399 393 q 393 399 393 393 l 393 575 q 399 581 394 581 m 795 581 l 971 581 q 977 575 977 580 l 977 399 q 971 393 977 393 l 795 393 q 789 399 789 393 l 789 575 q 795 581 790 581 m 5 382 l 179 382 q 184 377 184 382 l 184 201 q 179 195 184 195 l 5 195 q 0 201 0 195 l 0 377 q 5 382 1 382 m 795 382 l 971 382 q 977 377 977 382 l 977 201 q 971 195 977 195 l 795 195 q 789 201 789 195 l 789 377 q 795 382 790 382 m 5 184 l 179 184 q 184 179 184 184 l 184 5 q 179 0 184 0 l 5 0 q 0 5 0 0 l 0 179 q 5 184 1 184 m 201 184 l 377 184 q 382 179 382 184 l 382 5 q 377 0 382 0 l 201 0 q 195 5 195 0 l 195 179 q 201 184 196 184 m 399 184 l 575 184 q 581 179 581 184 l 581 5 q 575 0 581 0 l 399 0 q 393 5 393 0 l 393 179 q 399 184 394 184 m 597 184 l 770 184 q 776 179 776 184 l 776 5 q 770 0 776 0 l 597 0 q 591 5 591 0 l 591 179 q 597 184 592 184 m 795 184 l 971 184 q 977 179 977 184 l 977 5 q 971 0 977 0 l 795 0 q 789 5 789 0 l 789 179 q 795 184 790 184 z "},"´":{"ha":1183,"x_min":0,"x_max":977,"o":"m 5 974 l 179 974 q 184 968 184 973 l 184 795 q 179 789 184 789 l 5 789 q 0 795 0 789 l 0 968 q 5 974 1 974 m 201 974 l 377 974 q 382 968 382 973 l 382 795 q 377 789 382 789 l 201 789 q 195 795 195 789 l 195 968 q 201 974 196 974 m 399 974 l 575 974 q 581 968 581 973 l 581 795 q 575 789 581 789 l 399 789 q 393 795 393 789 l 393 968 q 399 974 394 974 m 597 974 l 770 974 q 776 968 776 973 l 776 795 q 770 789 776 789 l 597 789 q 591 795 591 789 l 591 968 q 597 974 592 974 m 795 974 l 971 974 q 977 968 977 973 l 977 795 q 971 789 977 789 l 795 789 q 789 795 789 789 l 789 968 q 795 974 790 974 m 5 779 l 179 779 q 184 773 184 778 l 184 597 q 179 591 184 591 l 5 591 q 0 597 0 591 l 0 773 q 5 779 1 779 m 795 779 l 971 779 q 977 773 977 778 l 977 597 q 971 591 977 591 l 795 591 q 789 597 789 591 l 789 773 q 795 779 790 779 m 5 581 l 179 581 q 184 575 184 580 l 184 399 q 179 393 184 393 l 5 393 q 0 399 0 393 l 0 575 q 5 581 1 581 m 399 581 l 575 581 q 581 575 581 580 l 581 399 q 575 393 581 393 l 399 393 q 393 399 393 393 l 393 575 q 399 581 394 581 m 795 581 l 971 581 q 977 575 977 580 l 977 399 q 971 393 977 393 l 795 393 q 789 399 789 393 l 789 575 q 795 581 790 581 m 5 382 l 179 382 q 184 377 184 382 l 184 201 q 179 195 184 195 l 5 195 q 0 201 0 195 l 0 377 q 5 382 1 382 m 795 382 l 971 382 q 977 377 977 382 l 977 201 q 971 195 977 195 l 795 195 q 789 201 789 195 l 789 377 q 795 382 790 382 m 5 184 l 179 184 q 184 179 184 184 l 184 5 q 179 0 184 0 l 5 0 q 0 5 0 0 l 0 179 q 5 184 1 184 m 201 184 l 377 184 q 382 179 382 184 l 382 5 q 377 0 382 0 l 201 0 q 195 5 195 0 l 195 179 q 201 184 196 184 m 399 184 l 575 184 q 581 179 581 184 l 581 5 q 575 0 581 0 l 399 0 q 393 5 393 0 l 393 179 q 399 184 394 184 m 597 184 l 770 184 q 776 179 776 184 l 776 5 q 770 0 776 0 l 597 0 q 591 5 591 0 l 591 179 q 597 184 592 184 m 795 184 l 971 184 q 977 179 977 184 l 977 5 q 971 0 977 0 l 795 0 q 789 5 789 0 l 789 179 q 795 184 790 184 z "},"µ":{"ha":1183,"x_min":0,"x_max":977,"o":"m 5 974 l 179 974 q 184 968 184 973 l 184 795 q 179 789 184 789 l 5 789 q 0 795 0 789 l 0 968 q 5 974 1 974 m 201 974 l 377 974 q 382 968 382 973 l 382 795 q 377 789 382 789 l 201 789 q 195 795 195 789 l 195 968 q 201 974 196 974 m 399 974 l 575 974 q 581 968 581 973 l 581 795 q 575 789 581 789 l 399 789 q 393 795 393 789 l 393 968 q 399 974 394 974 m 597 974 l 770 974 q 776 968 776 973 l 776 795 q 770 789 776 789 l 597 789 q 591 795 591 789 l 591 968 q 597 974 592 974 m 795 974 l 971 974 q 977 968 977 973 l 977 795 q 971 789 977 789 l 795 789 q 789 795 789 789 l 789 968 q 795 974 790 974 m 5 779 l 179 779 q 184 773 184 778 l 184 597 q 179 591 184 591 l 5 591 q 0 597 0 591 l 0 773 q 5 779 1 779 m 795 779 l 971 779 q 977 773 977 778 l 977 597 q 971 591 977 591 l 795 591 q 789 597 789 591 l 789 773 q 795 779 790 779 m 5 581 l 179 581 q 184 575 184 580 l 184 399 q 179 393 184 393 l 5 393 q 0 399 0 393 l 0 575 q 5 581 1 581 m 399 581 l 575 581 q 581 575 581 580 l 581 399 q 575 393 581 393 l 399 393 q 393 399 393 393 l 393 575 q 399 581 394 581 m 795 581 l 971 581 q 977 575 977 580 l 977 399 q 971 393 977 393 l 795 393 q 789 399 789 393 l 789 575 q 795 581 790 581 m 5 382 l 179 382 q 184 377 184 382 l 184 201 q 179 195 184 195 l 5 195 q 0 201 0 195 l 0 377 q 5 382 1 382 m 795 382 l 971 382 q 977 377 977 382 l 977 201 q 971 195 977 195 l 795 195 q 789 201 789 195 l 789 377 q 795 382 790 382 m 5 184 l 179 184 q 184 179 184 184 l 184 5 q 179 0 184 0 l 5 0 q 0 5 0 0 l 0 179 q 5 184 1 184 m 201 184 l 377 184 q 382 179 382 184 l 382 5 q 377 0 382 0 l 201 0 q 195 5 195 0 l 195 179 q 201 184 196 184 m 399 184 l 575 184 q 581 179 581 184 l 581 5 q 575 0 581 0 l 399 0 q 393 5 393 0 l 393 179 q 399 184 394 184 m 597 184 l 770 184 q 776 179 776 184 l 776 5 q 770 0 776 0 l 597 0 q 591 5 591 0 l 591 179 q 597 184 592 184 m 795 184 l 971 184 q 977 179 977 184 l 977 5 q 971 0 977 0 l 795 0 q 789 5 789 0 l 789 179 q 795 184 790 184 z "},"¶":{"ha":1183,"x_min":0,"x_max":977,"o":"m 5 974 l 179 974 q 184 968 184 973 l 184 795 q 179 789 184 789 l 5 789 q 0 795 0 789 l 0 968 q 5 974 1 974 m 201 974 l 377 974 q 382 968 382 973 l 382 795 q 377 789 382 789 l 201 789 q 195 795 195 789 l 195 968 q 201 974 196 974 m 399 974 l 575 974 q 581 968 581 973 l 581 795 q 575 789 581 789 l 399 789 q 393 795 393 789 l 393 968 q 399 974 394 974 m 597 974 l 770 974 q 776 968 776 973 l 776 795 q 770 789 776 789 l 597 789 q 591 795 591 789 l 591 968 q 597 974 592 974 m 795 974 l 971 974 q 977 968 977 973 l 977 795 q 971 789 977 789 l 795 789 q 789 795 789 789 l 789 968 q 795 974 790 974 m 5 779 l 179 779 q 184 773 184 778 l 184 597 q 179 591 184 591 l 5 591 q 0 597 0 591 l 0 773 q 5 779 1 779 m 795 779 l 971 779 q 977 773 977 778 l 977 597 q 971 591 977 591 l 795 591 q 789 597 789 591 l 789 773 q 795 779 790 779 m 5 581 l 179 581 q 184 575 184 580 l 184 399 q 179 393 184 393 l 5 393 q 0 399 0 393 l 0 575 q 5 581 1 581 m 399 581 l 575 581 q 581 575 581 580 l 581 399 q 575 393 581 393 l 399 393 q 393 399 393 393 l 393 575 q 399 581 394 581 m 795 581 l 971 581 q 977 575 977 580 l 977 399 q 971 393 977 393 l 795 393 q 789 399 789 393 l 789 575 q 795 581 790 581 m 5 382 l 179 382 q 184 377 184 382 l 184 201 q 179 195 184 195 l 5 195 q 0 201 0 195 l 0 377 q 5 382 1 382 m 795 382 l 971 382 q 977 377 977 382 l 977 201 q 971 195 977 195 l 795 195 q 789 201 789 195 l 789 377 q 795 382 790 382 m 5 184 l 179 184 q 184 179 184 184 l 184 5 q 179 0 184 0 l 5 0 q 0 5 0 0 l 0 179 q 5 184 1 184 m 201 184 l 377 184 q 382 179 382 184 l 382 5 q 377 0 382 0 l 201 0 q 195 5 195 0 l 195 179 q 201 184 196 184 m 399 184 l 575 184 q 581 179 581 184 l 581 5 q 575 0 581 0 l 399 0 q 393 5 393 0 l 393 179 q 399 184 394 184 m 597 184 l 770 184 q 776 179 776 184 l 776 5 q 770 0 776 0 l 597 0 q 591 5 591 0 l 591 179 q 597 184 592 184 m 795 184 l 971 184 q 977 179 977 184 l 977 5 q 971 0 977 0 l 795 0 q 789 5 789 0 l 789 179 q 795 184 790 184 z "},"·":{"ha":1183,"x_min":0,"x_max":977,"o":"m 5 974 l 179 974 q 184 968 184 973 l 184 795 q 179 789 184 789 l 5 789 q 0 795 0 789 l 0 968 q 5 974 1 974 m 201 974 l 377 974 q 382 968 382 973 l 382 795 q 377 789 382 789 l 201 789 q 195 795 195 789 l 195 968 q 201 974 196 974 m 399 974 l 575 974 q 581 968 581 973 l 581 795 q 575 789 581 789 l 399 789 q 393 795 393 789 l 393 968 q 399 974 394 974 m 597 974 l 770 974 q 776 968 776 973 l 776 795 q 770 789 776 789 l 597 789 q 591 795 591 789 l 591 968 q 597 974 592 974 m 795 974 l 971 974 q 977 968 977 973 l 977 795 q 971 789 977 789 l 795 789 q 789 795 789 789 l 789 968 q 795 974 790 974 m 5 779 l 179 779 q 184 773 184 778 l 184 597 q 179 591 184 591 l 5 591 q 0 597 0 591 l 0 773 q 5 779 1 779 m 795 779 l 971 779 q 977 773 977 778 l 977 597 q 971 591 977 591 l 795 591 q 789 597 789 591 l 789 773 q 795 779 790 779 m 5 581 l 179 581 q 184 575 184 580 l 184 399 q 179 393 184 393 l 5 393 q 0 399 0 393 l 0 575 q 5 581 1 581 m 399 581 l 575 581 q 581 575 581 580 l 581 399 q 575 393 581 393 l 399 393 q 393 399 393 393 l 393 575 q 399 581 394 581 m 795 581 l 971 581 q 977 575 977 580 l 977 399 q 971 393 977 393 l 795 393 q 789 399 789 393 l 789 575 q 795 581 790 581 m 5 382 l 179 382 q 184 377 184 382 l 184 201 q 179 195 184 195 l 5 195 q 0 201 0 195 l 0 377 q 5 382 1 382 m 795 382 l 971 382 q 977 377 977 382 l 977 201 q 971 195 977 195 l 795 195 q 789 201 789 195 l 789 377 q 795 382 790 382 m 5 184 l 179 184 q 184 179 184 184 l 184 5 q 179 0 184 0 l 5 0 q 0 5 0 0 l 0 179 q 5 184 1 184 m 201 184 l 377 184 q 382 179 382 184 l 382 5 q 377 0 382 0 l 201 0 q 195 5 195 0 l 195 179 q 201 184 196 184 m 399 184 l 575 184 q 581 179 581 184 l 581 5 q 575 0 581 0 l 399 0 q 393 5 393 0 l 393 179 q 399 184 394 184 m 597 184 l 770 184 q 776 179 776 184 l 776 5 q 770 0 776 0 l 597 0 q 591 5 591 0 l 591 179 q 597 184 592 184 m 795 184 l 971 184 q 977 179 977 184 l 977 5 q 971 0 977 0 l 795 0 q 789 5 789 0 l 789 179 q 795 184 790 184 z "},"∙":{"ha":1183,"x_min":0,"x_max":977,"o":"m 5 974 l 179 974 q 184 968 184 973 l 184 795 q 179 789 184 789 l 5 789 q 0 795 0 789 l 0 968 q 5 974 1 974 m 201 974 l 377 974 q 382 968 382 973 l 382 795 q 377 789 382 789 l 201 789 q 195 795 195 789 l 195 968 q 201 974 196 974 m 399 974 l 575 974 q 581 968 581 973 l 581 795 q 575 789 581 789 l 399 789 q 393 795 393 789 l 393 968 q 399 974 394 974 m 597 974 l 770 974 q 776 968 776 973 l 776 795 q 770 789 776 789 l 597 789 q 591 795 591 789 l 591 968 q 597 974 592 974 m 795 974 l 971 974 q 977 968 977 973 l 977 795 q 971 789 977 789 l 795 789 q 789 795 789 789 l 789 968 q 795 974 790 974 m 5 779 l 179 779 q 184 773 184 778 l 184 597 q 179 591 184 591 l 5 591 q 0 597 0 591 l 0 773 q 5 779 1 779 m 795 779 l 971 779 q 977 773 977 778 l 977 597 q 971 591 977 591 l 795 591 q 789 597 789 591 l 789 773 q 795 779 790 779 m 5 581 l 179 581 q 184 575 184 580 l 184 399 q 179 393 184 393 l 5 393 q 0 399 0 393 l 0 575 q 5 581 1 581 m 399 581 l 575 581 q 581 575 581 580 l 581 399 q 575 393 581 393 l 399 393 q 393 399 393 393 l 393 575 q 399 581 394 581 m 795 581 l 971 581 q 977 575 977 580 l 977 399 q 971 393 977 393 l 795 393 q 789 399 789 393 l 789 575 q 795 581 790 581 m 5 382 l 179 382 q 184 377 184 382 l 184 201 q 179 195 184 195 l 5 195 q 0 201 0 195 l 0 377 q 5 382 1 382 m 795 382 l 971 382 q 977 377 977 382 l 977 201 q 971 195 977 195 l 795 195 q 789 201 789 195 l 789 377 q 795 382 790 382 m 5 184 l 179 184 q 184 179 184 184 l 184 5 q 179 0 184 0 l 5 0 q 0 5 0 0 l 0 179 q 5 184 1 184 m 201 184 l 377 184 q 382 179 382 184 l 382 5 q 377 0 382 0 l 201 0 q 195 5 195 0 l 195 179 q 201 184 196 184 m 399 184 l 575 184 q 581 179 581 184 l 581 5 q 575 0 581 0 l 399 0 q 393 5 393 0 l 393 179 q 399 184 394 184 m 597 184 l 770 184 q 776 179 776 184 l 776 5 q 770 0 776 0 l 597 0 q 591 5 591 0 l 591 179 q 597 184 592 184 m 795 184 l 971 184 q 977 179 977 184 l 977 5 q 971 0 977 0 l 795 0 q 789 5 789 0 l 789 179 q 795 184 790 184 z "},"¸":{"ha":1183,"x_min":0,"x_max":977,"o":"m 5 974 l 179 974 q 184 968 184 973 l 184 795 q 179 789 184 789 l 5 789 q 0 795 0 789 l 0 968 q 5 974 1 974 m 201 974 l 377 974 q 382 968 382 973 l 382 795 q 377 789 382 789 l 201 789 q 195 795 195 789 l 195 968 q 201 974 196 974 m 399 974 l 575 974 q 581 968 581 973 l 581 795 q 575 789 581 789 l 399 789 q 393 795 393 789 l 393 968 q 399 974 394 974 m 597 974 l 770 974 q 776 968 776 973 l 776 795 q 770 789 776 789 l 597 789 q 591 795 591 789 l 591 968 q 597 974 592 974 m 795 974 l 971 974 q 977 968 977 973 l 977 795 q 971 789 977 789 l 795 789 q 789 795 789 789 l 789 968 q 795 974 790 974 m 5 779 l 179 779 q 184 773 184 778 l 184 597 q 179 591 184 591 l 5 591 q 0 597 0 591 l 0 773 q 5 779 1 779 m 795 779 l 971 779 q 977 773 977 778 l 977 597 q 971 591 977 591 l 795 591 q 789 597 789 591 l 789 773 q 795 779 790 779 m 5 581 l 179 581 q 184 575 184 580 l 184 399 q 179 393 184 393 l 5 393 q 0 399 0 393 l 0 575 q 5 581 1 581 m 399 581 l 575 581 q 581 575 581 580 l 581 399 q 575 393 581 393 l 399 393 q 393 399 393 393 l 393 575 q 399 581 394 581 m 795 581 l 971 581 q 977 575 977 580 l 977 399 q 971 393 977 393 l 795 393 q 789 399 789 393 l 789 575 q 795 581 790 581 m 5 382 l 179 382 q 184 377 184 382 l 184 201 q 179 195 184 195 l 5 195 q 0 201 0 195 l 0 377 q 5 382 1 382 m 795 382 l 971 382 q 977 377 977 382 l 977 201 q 971 195 977 195 l 795 195 q 789 201 789 195 l 789 377 q 795 382 790 382 m 5 184 l 179 184 q 184 179 184 184 l 184 5 q 179 0 184 0 l 5 0 q 0 5 0 0 l 0 179 q 5 184 1 184 m 201 184 l 377 184 q 382 179 382 184 l 382 5 q 377 0 382 0 l 201 0 q 195 5 195 0 l 195 179 q 201 184 196 184 m 399 184 l 575 184 q 581 179 581 184 l 581 5 q 575 0 581 0 l 399 0 q 393 5 393 0 l 393 179 q 399 184 394 184 m 597 184 l 770 184 q 776 179 776 184 l 776 5 q 770 0 776 0 l 597 0 q 591 5 591 0 l 591 179 q 597 184 592 184 m 795 184 l 971 184 q 977 179 977 184 l 977 5 q 971 0 977 0 l 795 0 q 789 5 789 0 l 789 179 q 795 184 790 184 z "}}}
